<svg xmlns="http://www.w3.org/2000/svg" width="9.068" height="19.518" viewBox="0 0 9.068 19.518">
  <g id="Group_1583" data-name="Group 1583" transform="translate(0)">
    <g id="Group_1335" data-name="Group 1335" transform="translate(0)">
      <path id="Path_2099" data-name="Path 2099" d="M335.078,682.834v9.437a.246.246,0,0,0,.245.246h3.5a.246.246,0,0,0,.246-.246v-9.59h2.541a.246.246,0,0,0,.245-.224l.244-2.89a.246.246,0,0,0-.246-.266h-2.784v-2.051a.87.87,0,0,1,.87-.869H341.9a.246.246,0,0,0,.246-.246v-2.889A.246.246,0,0,0,341.9,673h-3.309a3.515,3.515,0,0,0-3.515,3.516V679.3h-1.753a.246.246,0,0,0-.246.246v2.888a.246.246,0,0,0,.246.246h1.753Z" transform="translate(-333.079 -672.998)" fill="#1778f2" fill-rule="evenodd"/>
    </g>
  </g>
</svg>