<svg xmlns="http://www.w3.org/2000/svg" width="1796.209" height="827.127" viewBox="0 0 1796.209 827.127">
  <g id="Group_2709" data-name="Group 2709" transform="translate(-80 -160)">
    <g id="Group_2708" data-name="Group 2708">
      <g id="Group_148" data-name="Group 148" transform="translate(177 614)" opacity="0.1">
        <path id="Path_378" data-name="Path 378" d="M84.177,94.874l7.018,1.576,1.215,2.374-7.018-1.576Z" transform="translate(-76.608 -89.149)" fill="#25215a"/>
        <path id="Path_379" data-name="Path 379" d="M76.043,94.384l4.443-5.229,1.361,2.659L77.4,97.043Z" transform="translate(-74.435 -83.177)" fill="#25215a"/>
        <path id="Path_380" data-name="Path 380" d="M86.189,79.026l-3.542,4.168-1.362-2.659,1.863-2.193Z" transform="translate(-75.836 -61.406)" fill="#25215a"/>
        <path id="Path_381" data-name="Path 381" d="M103.167,100.008l7.785,1.748,1.215,2.374-7.785-1.748Z" transform="translate(-81.683 -98.217)" fill="#25215a"/>
        <path id="Path_382" data-name="Path 382" d="M95.625,99.939l4.01-4.719L101,97.879l-4.01,4.719Z" transform="translate(-79.667 -93.176)" fill="#25215a"/>
        <path id="Path_383" data-name="Path 383" d="M96.868,87.711a.731.731,0,0,0-.719.24L91.4,93.543l-8.031-1.8,4.252-5a.733.733,0,0,0-.4-1.189l-7.7-1.729,4.4-5.176,8.447,1.9a.743.743,0,0,0,.16.018.733.733,0,0,0,.558-.258l4.75-5.59,8.031,1.8-4.252,5a.733.733,0,0,0,.4,1.189l7.692,1.728-4.4,5.176Z" transform="translate(-75.366 -69.088)" fill="#3a3a99"/>
        <path id="Path_384" data-name="Path 384" d="M113.77,89.2l3.452.775,1.215,2.374-6.167-1.385Z" transform="translate(-84.115 -78.51)" fill="#25215a"/>
        <path id="Path_385" data-name="Path 385" d="M104.624,94.4a.727.727,0,0,1-.719.24l-8.442-1.9-4.751,5.591a.729.729,0,0,1-.719.24l-9.646-2.167a.73.73,0,0,1-.487-.384l-.005,0-2.085-4.071a.733.733,0,0,1,.094-.809l1.681-1.979-3.04-.683a.726.726,0,0,1-.487-.383l-.005,0-2.086-4.071a.734.734,0,0,1,.094-.808l5.471-6.438a.731.731,0,0,1,.719-.241l8.447,1.9,4.75-5.591a.733.733,0,0,1,.558-.258.742.742,0,0,1,.16.018l9.646,2.166a.735.735,0,0,1,.492.381l2.085,4.071-.005,0a.682.682,0,0,1,.048.1.731.731,0,0,1-.136.707l-1.682,1.979,3.037.682a.734.734,0,0,1,.492.38l2.085,4.072-.005,0a.768.768,0,0,1,.048.1.733.733,0,0,1-.136.707ZM79.3,91.725l1.362,2.659L84.2,90.217l-3.04-.684Zm.6-13.151L75.457,83.8l1.362,2.659,4.443-5.228ZM88.434,79.9l-7.017-1.577L82.632,80.7l7.018,1.576Zm5.382-5.258-4.01,4.719,1.361,2.659,4.01-4.718Zm9.3,1.495-7.785-1.748,1.216,2.374,7.785,1.748Zm3.838,7.923-3.453-.775L102,85.046l6.166,1.386ZM100.5,86.21a.733.733,0,0,1-.4-1.189l4.252-5-8.031-1.8-4.75,5.59a.733.733,0,0,1-.558.258.743.743,0,0,1-.16-.018l-8.447-1.9-4.4,5.176,7.7,1.729a.733.733,0,0,1,.4,1.189l-4.252,5,8.031,1.8,4.75-5.591a.731.731,0,0,1,.719-.24l8.442,1.9,4.4-5.176Z" transform="translate(-73.848 -72.596)" fill="#161616"/>
      </g>
      <g id="Group_164" data-name="Group 164" transform="translate(19.151 787.404)" opacity="0.1">
        <path id="Path_378-2" data-name="Path 378" d="M84.177,98.824l7.018-1.576,1.215-2.374L85.392,96.45Z" transform="translate(-2.76 -5.953)" fill="#25215a"/>
        <path id="Path_379-2" data-name="Path 379" d="M76.043,91.814l4.443,5.229,1.361-2.659L77.4,89.155Z" transform="translate(-0.586 -4.425)" fill="#25215a"/>
        <path id="Path_380-2" data-name="Path 380" d="M86.189,82.511l-3.542-4.168L81.286,81l1.863,2.193Z" transform="translate(-1.987 -1.536)" fill="#25215a"/>
        <path id="Path_381-2" data-name="Path 381" d="M103.167,104.13l7.785-1.748,1.215-2.374-7.785,1.748Z" transform="translate(-7.834 -7.325)" fill="#25215a"/>
        <path id="Path_382-2" data-name="Path 382" d="M95.625,97.878l4.01,4.719L101,99.938l-4.01-4.719Z" transform="translate(-5.819 -6.045)" fill="#25215a"/>
        <path id="Path_383-2" data-name="Path 383" d="M96.868,80.537a.731.731,0,0,1-.719-.24L91.4,74.705l-8.031,1.8,4.252,5a.733.733,0,0,1-.4,1.189l-7.7,1.729,4.4,5.176,8.447-1.9a.743.743,0,0,1,.16-.018.733.733,0,0,1,.558.258l4.75,5.59,8.031-1.8-4.252-5a.733.733,0,0,1,.4-1.189l7.692-1.728-4.4-5.176Z" transform="translate(-1.517 -0.564)" fill="#3a3a99"/>
        <path id="Path_384-2" data-name="Path 384" d="M113.77,92.346l3.452-.775,1.215-2.374-6.167,1.385Z" transform="translate(-10.267 -4.436)" fill="#25215a"/>
        <path id="Path_385-2" data-name="Path 385" d="M104.624,76.79a.727.727,0,0,0-.719-.24l-8.442,1.9-4.751-5.591a.729.729,0,0,0-.719-.24l-9.646,2.167a.73.73,0,0,0-.487.384l-.005,0-2.085,4.071a.733.733,0,0,0,.094.809l1.681,1.979-3.04.683a.726.726,0,0,0-.487.383l-.005,0-2.086,4.071a.734.734,0,0,0,.094.808L79.493,94.4a.731.731,0,0,0,.719.241l8.447-1.9,4.75,5.591a.733.733,0,0,0,.558.258.742.742,0,0,0,.16-.018l9.646-2.166a.735.735,0,0,0,.492-.381l2.085-4.071-.005,0a.682.682,0,0,0,.048-.1.731.731,0,0,0-.136-.707l-1.682-1.979,3.037-.682a.734.734,0,0,0,.492-.38l2.085-4.072-.005,0a.768.768,0,0,0,.048-.1.733.733,0,0,0-.136-.707ZM79.3,79.467l1.362-2.659L84.2,80.975l-3.04.684Zm.6,13.151-4.443-5.229,1.362-2.659,4.443,5.228Zm8.535-1.323-7.017,1.577L82.632,90.5l7.018-1.576Zm5.382,5.258-4.01-4.719,1.361-2.659,4.01,4.718Zm9.3-1.495-7.785,1.748,1.216-2.374,7.785-1.748Zm3.838-7.923-3.453.775L102,86.146l6.166-1.386ZM100.5,84.982a.733.733,0,0,0-.4,1.189l4.252,5-8.031,1.8-4.75-5.59a.733.733,0,0,0-.558-.258.743.743,0,0,0-.16.018l-8.447,1.9-4.4-5.176,7.7-1.729a.733.733,0,0,0,.4-1.189l-4.252-5,8.031-1.8,4.75,5.591a.731.731,0,0,0,.719.24l8.442-1.9,4.4,5.176Z" transform="translate(0 0)" fill="#161616"/>
      </g>
      <g id="Group_149" data-name="Group 149" transform="translate(82 199)" opacity="0.1">
        <path id="Path_378-3" data-name="Path 378" d="M84.177,94.874l7.018,1.576,1.215,2.374-7.018-1.576Z" transform="translate(-76.608 -89.149)" fill="#25215a"/>
        <path id="Path_379-3" data-name="Path 379" d="M76.043,94.384l4.443-5.229,1.361,2.659L77.4,97.043Z" transform="translate(-74.435 -83.177)" fill="#25215a"/>
        <path id="Path_380-3" data-name="Path 380" d="M86.189,79.026l-3.542,4.168-1.362-2.659,1.863-2.193Z" transform="translate(-75.836 -61.406)" fill="#25215a"/>
        <path id="Path_381-3" data-name="Path 381" d="M103.167,100.008l7.785,1.748,1.215,2.374-7.785-1.748Z" transform="translate(-81.683 -98.217)" fill="#25215a"/>
        <path id="Path_382-3" data-name="Path 382" d="M95.625,99.939l4.01-4.719L101,97.879l-4.01,4.719Z" transform="translate(-79.667 -93.176)" fill="#25215a"/>
        <path id="Path_383-3" data-name="Path 383" d="M96.868,87.711a.731.731,0,0,0-.719.24L91.4,93.543l-8.031-1.8,4.252-5a.733.733,0,0,0-.4-1.189l-7.7-1.729,4.4-5.176,8.447,1.9a.743.743,0,0,0,.16.018.733.733,0,0,0,.558-.258l4.75-5.59,8.031,1.8-4.252,5a.733.733,0,0,0,.4,1.189l7.692,1.728-4.4,5.176Z" transform="translate(-75.366 -69.088)" fill="#3a3a99"/>
        <path id="Path_384-3" data-name="Path 384" d="M113.77,89.2l3.452.775,1.215,2.374-6.167-1.385Z" transform="translate(-84.115 -78.51)" fill="#25215a"/>
        <path id="Path_385-3" data-name="Path 385" d="M104.624,94.4a.727.727,0,0,1-.719.24l-8.442-1.9-4.751,5.591a.729.729,0,0,1-.719.24l-9.646-2.167a.73.73,0,0,1-.487-.384l-.005,0-2.085-4.071a.733.733,0,0,1,.094-.809l1.681-1.979-3.04-.683a.726.726,0,0,1-.487-.383l-.005,0-2.086-4.071a.734.734,0,0,1,.094-.808l5.471-6.438a.731.731,0,0,1,.719-.241l8.447,1.9,4.75-5.591a.733.733,0,0,1,.558-.258.742.742,0,0,1,.16.018l9.646,2.166a.735.735,0,0,1,.492.381l2.085,4.071-.005,0a.682.682,0,0,1,.048.1.731.731,0,0,1-.136.707l-1.682,1.979,3.037.682a.734.734,0,0,1,.492.38l2.085,4.072-.005,0a.768.768,0,0,1,.048.1.733.733,0,0,1-.136.707ZM79.3,91.725l1.362,2.659L84.2,90.217l-3.04-.684Zm.6-13.151L75.457,83.8l1.362,2.659,4.443-5.228ZM88.434,79.9,81.417,78.32,82.632,80.7l7.018,1.576Zm5.382-5.258-4.01,4.719,1.361,2.659,4.01-4.718Zm9.3,1.495-7.785-1.748,1.216,2.374,7.785,1.748Zm3.838,7.923-3.453-.775L102,85.046l6.166,1.386ZM100.5,86.21a.733.733,0,0,1-.4-1.189l4.252-5-8.031-1.8-4.75,5.59a.733.733,0,0,1-.558.258.743.743,0,0,1-.16-.018l-8.447-1.9-4.4,5.176,7.7,1.729a.733.733,0,0,1,.4,1.189l-4.252,5,8.031,1.8,4.75-5.591a.731.731,0,0,1,.719-.24l8.442,1.9,4.4-5.176Z" transform="translate(-73.848 -72.596)" fill="#161616"/>
      </g>
      <g id="Group_150" data-name="Group 150" transform="translate(1063 270)" opacity="0.1">
        <path id="Path_378-4" data-name="Path 378" d="M92.41,98.824l-7.018-1.576-1.215-2.374,7.018,1.576Z" transform="translate(-63.559 -78.549)" fill="#25215a"/>
        <path id="Path_379-4" data-name="Path 379" d="M81.847,91.814,77.4,97.043l-1.361-2.659,4.443-5.228Z" transform="translate(-47.036 -77.021)" fill="#25215a"/>
        <path id="Path_380-4" data-name="Path 380" d="M81.286,82.511l3.542-4.168L86.189,81l-1.863,2.193Z" transform="translate(-55.219 -74.132)" fill="#25215a"/>
        <path id="Path_381-4" data-name="Path 381" d="M112.168,104.13l-7.785-1.748-1.215-2.374,7.785,1.748Z" transform="translate(-97.232 -79.921)" fill="#25215a"/>
        <path id="Path_382-4" data-name="Path 382" d="M101,97.878l-4.01,4.719-1.361-2.659,4.01-4.719Z" transform="translate(-80.534 -78.641)" fill="#25215a"/>
        <path id="Path_383-4" data-name="Path 383" d="M92.368,80.537a.731.731,0,0,0,.719-.24l4.75-5.591,8.031,1.8-4.252,5a.733.733,0,0,0,.4,1.189l7.7,1.729-4.4,5.176-8.447-1.9a.743.743,0,0,0-.16-.018.733.733,0,0,0-.558.258l-4.75,5.59-8.031-1.8,4.252-5a.733.733,0,0,0-.4-1.189l-7.692-1.728,4.4-5.176Z" transform="translate(-77.451 -73.16)" fill="#3a3a99"/>
        <path id="Path_384-4" data-name="Path 384" d="M116.939,92.346l-3.452-.775L112.271,89.2l6.167,1.385Z" transform="translate(-110.174 -77.032)" fill="#25215a"/>
        <path id="Path_385-4" data-name="Path 385" d="M79.493,76.79a.727.727,0,0,1,.719-.24l8.442,1.9L93.4,72.855a.729.729,0,0,1,.719-.24l9.646,2.167a.73.73,0,0,1,.487.384l.005,0,2.085,4.071a.733.733,0,0,1-.094.809l-1.681,1.979,3.04.683a.726.726,0,0,1,.487.383l.005,0,2.086,4.071a.734.734,0,0,1-.094.808L104.623,94.4a.731.731,0,0,1-.719.241l-8.447-1.9-4.75,5.591a.733.733,0,0,1-.558.258.742.742,0,0,1-.16-.018l-9.646-2.166a.735.735,0,0,1-.492-.381L77.766,91.96l.005,0a.682.682,0,0,1-.048-.1.731.731,0,0,1,.136-.707l1.682-1.979-3.037-.682a.734.734,0,0,1-.492-.38l-2.085-4.072.005,0a.768.768,0,0,1-.048-.1.733.733,0,0,1,.136-.707Zm25.325,2.676-1.362-2.659-3.542,4.168,3.04.684Zm-.6,13.151,4.443-5.229L107.3,84.73l-4.443,5.228Zm-8.535-1.323,7.017,1.577L101.484,90.5l-7.018-1.576ZM90.3,96.552l4.01-4.719L92.95,89.175l-4.01,4.718ZM81,95.057l7.785,1.748-1.216-2.374-7.785-1.748Zm-3.838-7.923,3.453.775,1.5-1.764L75.946,84.76Zm6.455-2.153a.733.733,0,0,1,.4,1.189l-4.252,5,8.031,1.8,4.75-5.59a.733.733,0,0,1,.558-.258.743.743,0,0,1,.16.018l8.447,1.9,4.4-5.176-7.7-1.729a.733.733,0,0,1-.4-1.189l4.252-5-8.031-1.8-4.75,5.591a.731.731,0,0,1-.719.24l-8.442-1.9-4.4,5.176Z" transform="translate(-73.848 -72.596)" fill="#161616"/>
      </g>
      <g id="Group_151" data-name="Group 151" transform="translate(970.151 420.404)" opacity="0.1">
        <path id="Path_378-5" data-name="Path 378" d="M84.177,98.824l7.018-1.576,1.215-2.374L85.392,96.45Z" transform="translate(-2.76 -5.953)" fill="#25215a"/>
        <path id="Path_379-5" data-name="Path 379" d="M76.043,91.814l4.443,5.229,1.361-2.659L77.4,89.155Z" transform="translate(-0.586 -4.425)" fill="#25215a"/>
        <path id="Path_380-5" data-name="Path 380" d="M86.189,82.511l-3.542-4.168L81.286,81l1.863,2.193Z" transform="translate(-1.987 -1.536)" fill="#25215a"/>
        <path id="Path_381-5" data-name="Path 381" d="M103.167,104.13l7.785-1.748,1.215-2.374-7.785,1.748Z" transform="translate(-7.834 -7.325)" fill="#25215a"/>
        <path id="Path_382-5" data-name="Path 382" d="M95.625,97.878l4.01,4.719L101,99.938l-4.01-4.719Z" transform="translate(-5.819 -6.045)" fill="#25215a"/>
        <path id="Path_383-5" data-name="Path 383" d="M96.868,80.537a.731.731,0,0,1-.719-.24L91.4,74.705l-8.031,1.8,4.252,5a.733.733,0,0,1-.4,1.189l-7.7,1.729,4.4,5.176,8.447-1.9a.743.743,0,0,1,.16-.018.733.733,0,0,1,.558.258l4.75,5.59,8.031-1.8-4.252-5a.733.733,0,0,1,.4-1.189l7.692-1.728-4.4-5.176Z" transform="translate(-1.517 -0.564)" fill="#3a3a99"/>
        <path id="Path_384-5" data-name="Path 384" d="M113.77,92.346l3.452-.775,1.215-2.374-6.167,1.385Z" transform="translate(-10.267 -4.436)" fill="#25215a"/>
        <path id="Path_385-5" data-name="Path 385" d="M104.624,76.79a.727.727,0,0,0-.719-.24l-8.442,1.9-4.751-5.591a.729.729,0,0,0-.719-.24l-9.646,2.167a.73.73,0,0,0-.487.384l-.005,0-2.085,4.071a.733.733,0,0,0,.094.809l1.681,1.979-3.04.683a.726.726,0,0,0-.487.383l-.005,0-2.086,4.071a.734.734,0,0,0,.094.808L79.493,94.4a.731.731,0,0,0,.719.241l8.447-1.9,4.75,5.591a.733.733,0,0,0,.558.258.742.742,0,0,0,.16-.018l9.646-2.166a.735.735,0,0,0,.492-.381l2.085-4.071-.005,0a.682.682,0,0,0,.048-.1.731.731,0,0,0-.136-.707l-1.682-1.979,3.037-.682a.734.734,0,0,0,.492-.38l2.085-4.072-.005,0a.768.768,0,0,0,.048-.1.733.733,0,0,0-.136-.707ZM79.3,79.467l1.362-2.659L84.2,80.975l-3.04.684Zm.6,13.151-4.443-5.229,1.362-2.659,4.443,5.228Zm8.535-1.323-7.017,1.577L82.632,90.5l7.018-1.576Zm5.382,5.258-4.01-4.719,1.361-2.659,4.01,4.718Zm9.3-1.495-7.785,1.748,1.216-2.374,7.785-1.748Zm3.838-7.923-3.453.775L102,86.146l6.166-1.386ZM100.5,84.982a.733.733,0,0,0-.4,1.189l4.252,5-8.031,1.8-4.75-5.59a.733.733,0,0,0-.558-.258.743.743,0,0,0-.16.018l-8.447,1.9-4.4-5.176,7.7-1.729a.733.733,0,0,0,.4-1.189l-4.252-5,8.031-1.8,4.75,5.591a.731.731,0,0,0,.719.24l8.442-1.9,4.4,5.176Z" transform="translate(0 0)" fill="#161616"/>
      </g>
      <g id="Group_152" data-name="Group 152" transform="translate(891.151 682.404)" opacity="0.1">
        <path id="Path_378-6" data-name="Path 378" d="M84.177,98.824l7.018-1.576,1.215-2.374L85.392,96.45Z" transform="translate(-2.76 -5.953)" fill="#25215a"/>
        <path id="Path_379-6" data-name="Path 379" d="M76.043,91.814l4.443,5.229,1.361-2.659L77.4,89.155Z" transform="translate(-0.586 -4.425)" fill="#25215a"/>
        <path id="Path_380-6" data-name="Path 380" d="M86.189,82.511l-3.542-4.168L81.286,81l1.863,2.193Z" transform="translate(-1.987 -1.536)" fill="#25215a"/>
        <path id="Path_381-6" data-name="Path 381" d="M103.167,104.13l7.785-1.748,1.215-2.374-7.785,1.748Z" transform="translate(-7.834 -7.325)" fill="#25215a"/>
        <path id="Path_382-6" data-name="Path 382" d="M95.625,97.878l4.01,4.719L101,99.938l-4.01-4.719Z" transform="translate(-5.819 -6.045)" fill="#25215a"/>
        <path id="Path_383-6" data-name="Path 383" d="M96.868,80.537a.731.731,0,0,1-.719-.24L91.4,74.705l-8.031,1.8,4.252,5a.733.733,0,0,1-.4,1.189l-7.7,1.729,4.4,5.176,8.447-1.9a.743.743,0,0,1,.16-.018.733.733,0,0,1,.558.258l4.75,5.59,8.031-1.8-4.252-5a.733.733,0,0,1,.4-1.189l7.692-1.728-4.4-5.176Z" transform="translate(-1.517 -0.564)" fill="#3a3a99"/>
        <path id="Path_384-6" data-name="Path 384" d="M113.77,92.346l3.452-.775,1.215-2.374-6.167,1.385Z" transform="translate(-10.267 -4.436)" fill="#25215a"/>
        <path id="Path_385-6" data-name="Path 385" d="M104.624,76.79a.727.727,0,0,0-.719-.24l-8.442,1.9-4.751-5.591a.729.729,0,0,0-.719-.24l-9.646,2.167a.73.73,0,0,0-.487.384l-.005,0-2.085,4.071a.733.733,0,0,0,.094.809l1.681,1.979-3.04.683a.726.726,0,0,0-.487.383l-.005,0-2.086,4.071a.734.734,0,0,0,.094.808L79.493,94.4a.731.731,0,0,0,.719.241l8.447-1.9,4.75,5.591a.733.733,0,0,0,.558.258.742.742,0,0,0,.16-.018l9.646-2.166a.735.735,0,0,0,.492-.381l2.085-4.071-.005,0a.682.682,0,0,0,.048-.1.731.731,0,0,0-.136-.707l-1.682-1.979,3.037-.682a.734.734,0,0,0,.492-.38l2.085-4.072-.005,0a.768.768,0,0,0,.048-.1.733.733,0,0,0-.136-.707ZM79.3,79.467l1.362-2.659L84.2,80.975l-3.04.684Zm.6,13.151-4.443-5.229,1.362-2.659,4.443,5.228Zm8.535-1.323-7.017,1.577L82.632,90.5l7.018-1.576Zm5.382,5.258-4.01-4.719,1.361-2.659,4.01,4.718Zm9.3-1.495-7.785,1.748,1.216-2.374,7.785-1.748Zm3.838-7.923-3.453.775L102,86.146l6.166-1.386ZM100.5,84.982a.733.733,0,0,0-.4,1.189l4.252,5-8.031,1.8-4.75-5.59a.733.733,0,0,0-.558-.258.743.743,0,0,0-.16.018l-8.447,1.9-4.4-5.176,7.7-1.729a.733.733,0,0,0,.4-1.189l-4.252-5,8.031-1.8,4.75,5.591a.731.731,0,0,0,.719.24l8.442-1.9,4.4,5.176Z" transform="translate(0 0)" fill="#161616"/>
      </g>
      <g id="Group_153" data-name="Group 153" transform="translate(309.151 761.404)" opacity="0.1">
        <path id="Path_378-7" data-name="Path 378" d="M84.177,98.824l7.018-1.576,1.215-2.374L85.392,96.45Z" transform="translate(-2.76 -5.953)" fill="#25215a"/>
        <path id="Path_379-7" data-name="Path 379" d="M76.043,91.814l4.443,5.229,1.361-2.659L77.4,89.155Z" transform="translate(-0.586 -4.425)" fill="#25215a"/>
        <path id="Path_380-7" data-name="Path 380" d="M86.189,82.511l-3.542-4.168L81.286,81l1.863,2.193Z" transform="translate(-1.987 -1.536)" fill="#25215a"/>
        <path id="Path_381-7" data-name="Path 381" d="M103.167,104.13l7.785-1.748,1.215-2.374-7.785,1.748Z" transform="translate(-7.834 -7.325)" fill="#25215a"/>
        <path id="Path_382-7" data-name="Path 382" d="M95.625,97.878l4.01,4.719L101,99.938l-4.01-4.719Z" transform="translate(-5.819 -6.045)" fill="#25215a"/>
        <path id="Path_383-7" data-name="Path 383" d="M96.868,80.537a.731.731,0,0,1-.719-.24L91.4,74.705l-8.031,1.8,4.252,5a.733.733,0,0,1-.4,1.189l-7.7,1.729,4.4,5.176,8.447-1.9a.743.743,0,0,1,.16-.018.733.733,0,0,1,.558.258l4.75,5.59,8.031-1.8-4.252-5a.733.733,0,0,1,.4-1.189l7.692-1.728-4.4-5.176Z" transform="translate(-1.517 -0.564)" fill="#3a3a99"/>
        <path id="Path_384-7" data-name="Path 384" d="M113.77,92.346l3.452-.775,1.215-2.374-6.167,1.385Z" transform="translate(-10.267 -4.436)" fill="#25215a"/>
        <path id="Path_385-7" data-name="Path 385" d="M104.624,76.79a.727.727,0,0,0-.719-.24l-8.442,1.9-4.751-5.591a.729.729,0,0,0-.719-.24l-9.646,2.167a.73.73,0,0,0-.487.384l-.005,0-2.085,4.071a.733.733,0,0,0,.094.809l1.681,1.979-3.04.683a.726.726,0,0,0-.487.383l-.005,0-2.086,4.071a.734.734,0,0,0,.094.808L79.493,94.4a.731.731,0,0,0,.719.241l8.447-1.9,4.75,5.591a.733.733,0,0,0,.558.258.742.742,0,0,0,.16-.018l9.646-2.166a.735.735,0,0,0,.492-.381l2.085-4.071-.005,0a.682.682,0,0,0,.048-.1.731.731,0,0,0-.136-.707l-1.682-1.979,3.037-.682a.734.734,0,0,0,.492-.38l2.085-4.072-.005,0a.768.768,0,0,0,.048-.1.733.733,0,0,0-.136-.707ZM79.3,79.467l1.362-2.659L84.2,80.975l-3.04.684Zm.6,13.151-4.443-5.229,1.362-2.659,4.443,5.228Zm8.535-1.323-7.017,1.577L82.632,90.5l7.018-1.576Zm5.382,5.258-4.01-4.719,1.361-2.659,4.01,4.718Zm9.3-1.495-7.785,1.748,1.216-2.374,7.785-1.748Zm3.838-7.923-3.453.775L102,86.146l6.166-1.386ZM100.5,84.982a.733.733,0,0,0-.4,1.189l4.252,5-8.031,1.8-4.75-5.59a.733.733,0,0,0-.558-.258.743.743,0,0,0-.16.018l-8.447,1.9-4.4-5.176,7.7-1.729a.733.733,0,0,0,.4-1.189l-4.252-5,8.031-1.8,4.75,5.591a.731.731,0,0,0,.719.24l8.442-1.9,4.4,5.176Z" transform="translate(0 0)" fill="#161616"/>
      </g>
      <g id="Group_163" data-name="Group 163" transform="translate(732 860)" opacity="0.1">
        <path id="Path_378-8" data-name="Path 378" d="M92.41,98.824l-7.018-1.576-1.215-2.374,7.018,1.576Z" transform="translate(-63.559 -78.549)" fill="#25215a"/>
        <path id="Path_379-8" data-name="Path 379" d="M81.847,91.814,77.4,97.043l-1.361-2.659,4.443-5.228Z" transform="translate(-47.036 -77.021)" fill="#25215a"/>
        <path id="Path_380-8" data-name="Path 380" d="M81.286,82.511l3.542-4.168L86.189,81l-1.863,2.193Z" transform="translate(-55.219 -74.132)" fill="#25215a"/>
        <path id="Path_381-8" data-name="Path 381" d="M112.168,104.13l-7.785-1.748-1.215-2.374,7.785,1.748Z" transform="translate(-97.232 -79.921)" fill="#25215a"/>
        <path id="Path_382-8" data-name="Path 382" d="M101,97.878l-4.01,4.719-1.361-2.659,4.01-4.719Z" transform="translate(-80.534 -78.641)" fill="#25215a"/>
        <path id="Path_383-8" data-name="Path 383" d="M92.368,80.537a.731.731,0,0,0,.719-.24l4.75-5.591,8.031,1.8-4.252,5a.733.733,0,0,0,.4,1.189l7.7,1.729-4.4,5.176-8.447-1.9a.743.743,0,0,0-.16-.018.733.733,0,0,0-.558.258l-4.75,5.59-8.031-1.8,4.252-5a.733.733,0,0,0-.4-1.189l-7.692-1.728,4.4-5.176Z" transform="translate(-77.451 -73.16)" fill="#3a3a99"/>
        <path id="Path_384-8" data-name="Path 384" d="M116.939,92.346l-3.452-.775L112.271,89.2l6.167,1.385Z" transform="translate(-110.174 -77.032)" fill="#25215a"/>
        <path id="Path_385-8" data-name="Path 385" d="M79.493,76.79a.727.727,0,0,1,.719-.24l8.442,1.9L93.4,72.855a.729.729,0,0,1,.719-.24l9.646,2.167a.73.73,0,0,1,.487.384l.005,0,2.085,4.071a.733.733,0,0,1-.094.809l-1.681,1.979,3.04.683a.726.726,0,0,1,.487.383l.005,0,2.086,4.071a.734.734,0,0,1-.094.808L104.623,94.4a.731.731,0,0,1-.719.241l-8.447-1.9-4.75,5.591a.733.733,0,0,1-.558.258.742.742,0,0,1-.16-.018l-9.646-2.166a.735.735,0,0,1-.492-.381L77.766,91.96l.005,0a.682.682,0,0,1-.048-.1.731.731,0,0,1,.136-.707l1.682-1.979-3.037-.682a.734.734,0,0,1-.492-.38l-2.085-4.072.005,0a.768.768,0,0,1-.048-.1.733.733,0,0,1,.136-.707Zm25.325,2.676-1.362-2.659-3.542,4.168,3.04.684Zm-.6,13.151,4.443-5.229L107.3,84.73l-4.443,5.228Zm-8.535-1.323,7.017,1.577L101.484,90.5l-7.018-1.576ZM90.3,96.552l4.01-4.719L92.95,89.175l-4.01,4.718ZM81,95.057l7.785,1.748-1.216-2.374-7.785-1.748Zm-3.838-7.923,3.453.775,1.5-1.764L75.946,84.76Zm6.455-2.153a.733.733,0,0,1,.4,1.189l-4.252,5,8.031,1.8,4.75-5.59a.733.733,0,0,1,.558-.258.743.743,0,0,1,.16.018l8.447,1.9,4.4-5.176-7.7-1.729a.733.733,0,0,1-.4-1.189l4.252-5-8.031-1.8-4.75,5.591a.731.731,0,0,1-.719.24l-8.442-1.9-4.4,5.176Z" transform="translate(-73.848 -72.596)" fill="#161616"/>
      </g>
      <g id="Group_154" data-name="Group 154" transform="translate(44.151 287.404)" opacity="0.1">
        <path id="Path_378-9" data-name="Path 378" d="M84.177,98.824l7.018-1.576,1.215-2.374L85.392,96.45Z" transform="translate(-2.76 -5.953)" fill="#25215a"/>
        <path id="Path_379-9" data-name="Path 379" d="M76.043,91.814l4.443,5.229,1.361-2.659L77.4,89.155Z" transform="translate(-0.586 -4.425)" fill="#25215a"/>
        <path id="Path_380-9" data-name="Path 380" d="M86.189,82.511l-3.542-4.168L81.286,81l1.863,2.193Z" transform="translate(-1.987 -1.536)" fill="#25215a"/>
        <path id="Path_381-9" data-name="Path 381" d="M103.167,104.13l7.785-1.748,1.215-2.374-7.785,1.748Z" transform="translate(-7.834 -7.325)" fill="#25215a"/>
        <path id="Path_382-9" data-name="Path 382" d="M95.625,97.878l4.01,4.719L101,99.938l-4.01-4.719Z" transform="translate(-5.819 -6.045)" fill="#25215a"/>
        <path id="Path_383-9" data-name="Path 383" d="M96.868,80.537a.731.731,0,0,1-.719-.24L91.4,74.705l-8.031,1.8,4.252,5a.733.733,0,0,1-.4,1.189l-7.7,1.729,4.4,5.176,8.447-1.9a.743.743,0,0,1,.16-.018.733.733,0,0,1,.558.258l4.75,5.59,8.031-1.8-4.252-5a.733.733,0,0,1,.4-1.189l7.692-1.728-4.4-5.176Z" transform="translate(-1.517 -0.564)" fill="#3a3a99"/>
        <path id="Path_384-9" data-name="Path 384" d="M113.77,92.346l3.452-.775,1.215-2.374-6.167,1.385Z" transform="translate(-10.267 -4.436)" fill="#25215a"/>
        <path id="Path_385-9" data-name="Path 385" d="M104.624,76.79a.727.727,0,0,0-.719-.24l-8.442,1.9-4.751-5.591a.729.729,0,0,0-.719-.24l-9.646,2.167a.73.73,0,0,0-.487.384l-.005,0-2.085,4.071a.733.733,0,0,0,.094.809l1.681,1.979-3.04.683a.726.726,0,0,0-.487.383l-.005,0-2.086,4.071a.734.734,0,0,0,.094.808L79.493,94.4a.731.731,0,0,0,.719.241l8.447-1.9,4.75,5.591a.733.733,0,0,0,.558.258.742.742,0,0,0,.16-.018l9.646-2.166a.735.735,0,0,0,.492-.381l2.085-4.071-.005,0a.682.682,0,0,0,.048-.1.731.731,0,0,0-.136-.707l-1.682-1.979,3.037-.682a.734.734,0,0,0,.492-.38l2.085-4.072-.005,0a.768.768,0,0,0,.048-.1.733.733,0,0,0-.136-.707ZM79.3,79.467l1.362-2.659L84.2,80.975l-3.04.684Zm.6,13.151-4.443-5.229,1.362-2.659,4.443,5.228Zm8.535-1.323-7.017,1.577L82.632,90.5l7.018-1.576Zm5.382,5.258-4.01-4.719,1.361-2.659,4.01,4.718Zm9.3-1.495-7.785,1.748,1.216-2.374,7.785-1.748Zm3.838-7.923-3.453.775L102,86.146l6.166-1.386ZM100.5,84.982a.733.733,0,0,0-.4,1.189l4.252,5-8.031,1.8-4.75-5.59a.733.733,0,0,0-.558-.258.743.743,0,0,0-.16.018l-8.447,1.9-4.4-5.176,7.7-1.729a.733.733,0,0,0,.4-1.189l-4.252-5,8.031-1.8,4.75,5.591a.731.731,0,0,0,.719.24l8.442-1.9,4.4,5.176Z" transform="translate(0 0)" fill="#161616"/>
      </g>
      <g id="Group_155" data-name="Group 155" transform="translate(670.151 126.404)" opacity="0.1">
        <path id="Path_378-10" data-name="Path 378" d="M84.177,98.824l7.018-1.576,1.215-2.374L85.392,96.45Z" transform="translate(-2.76 -5.953)" fill="#25215a"/>
        <path id="Path_379-10" data-name="Path 379" d="M76.043,91.814l4.443,5.229,1.361-2.659L77.4,89.155Z" transform="translate(-0.586 -4.425)" fill="#25215a"/>
        <path id="Path_380-10" data-name="Path 380" d="M86.189,82.511l-3.542-4.168L81.286,81l1.863,2.193Z" transform="translate(-1.987 -1.536)" fill="#25215a"/>
        <path id="Path_381-10" data-name="Path 381" d="M103.167,104.13l7.785-1.748,1.215-2.374-7.785,1.748Z" transform="translate(-7.834 -7.325)" fill="#25215a"/>
        <path id="Path_382-10" data-name="Path 382" d="M95.625,97.878l4.01,4.719L101,99.938l-4.01-4.719Z" transform="translate(-5.819 -6.045)" fill="#25215a"/>
        <path id="Path_383-10" data-name="Path 383" d="M96.868,80.537a.731.731,0,0,1-.719-.24L91.4,74.705l-8.031,1.8,4.252,5a.733.733,0,0,1-.4,1.189l-7.7,1.729,4.4,5.176,8.447-1.9a.743.743,0,0,1,.16-.018.733.733,0,0,1,.558.258l4.75,5.59,8.031-1.8-4.252-5a.733.733,0,0,1,.4-1.189l7.692-1.728-4.4-5.176Z" transform="translate(-1.517 -0.564)" fill="#3a3a99"/>
        <path id="Path_384-10" data-name="Path 384" d="M113.77,92.346l3.452-.775,1.215-2.374-6.167,1.385Z" transform="translate(-10.267 -4.436)" fill="#25215a"/>
        <path id="Path_385-10" data-name="Path 385" d="M104.624,76.79a.727.727,0,0,0-.719-.24l-8.442,1.9-4.751-5.591a.729.729,0,0,0-.719-.24l-9.646,2.167a.73.73,0,0,0-.487.384l-.005,0-2.085,4.071a.733.733,0,0,0,.094.809l1.681,1.979-3.04.683a.726.726,0,0,0-.487.383l-.005,0-2.086,4.071a.734.734,0,0,0,.094.808L79.493,94.4a.731.731,0,0,0,.719.241l8.447-1.9,4.75,5.591a.733.733,0,0,0,.558.258.742.742,0,0,0,.16-.018l9.646-2.166a.735.735,0,0,0,.492-.381l2.085-4.071-.005,0a.682.682,0,0,0,.048-.1.731.731,0,0,0-.136-.707l-1.682-1.979,3.037-.682a.734.734,0,0,0,.492-.38l2.085-4.072-.005,0a.768.768,0,0,0,.048-.1.733.733,0,0,0-.136-.707ZM79.3,79.467l1.362-2.659L84.2,80.975l-3.04.684Zm.6,13.151-4.443-5.229,1.362-2.659,4.443,5.228Zm8.535-1.323-7.017,1.577L82.632,90.5l7.018-1.576Zm5.382,5.258-4.01-4.719,1.361-2.659,4.01,4.718Zm9.3-1.495-7.785,1.748,1.216-2.374,7.785-1.748Zm3.838-7.923-3.453.775L102,86.146l6.166-1.386ZM100.5,84.982a.733.733,0,0,0-.4,1.189l4.252,5-8.031,1.8-4.75-5.59a.733.733,0,0,0-.558-.258.743.743,0,0,0-.16.018l-8.447,1.9-4.4-5.176,7.7-1.729a.733.733,0,0,0,.4-1.189l-4.252-5,8.031-1.8,4.75,5.591a.731.731,0,0,0,.719.24l8.442-1.9,4.4,5.176Z" transform="translate(0 0)" fill="#161616"/>
      </g>
      <g id="Group_162" data-name="Group 162" transform="translate(346 186)" opacity="0.1">
        <path id="Path_378-11" data-name="Path 378" d="M92.41,98.824l-7.018-1.576-1.215-2.374,7.018,1.576Z" transform="translate(-63.559 -78.549)" fill="#25215a"/>
        <path id="Path_379-11" data-name="Path 379" d="M81.847,91.814,77.4,97.043l-1.361-2.659,4.443-5.228Z" transform="translate(-47.036 -77.021)" fill="#25215a"/>
        <path id="Path_380-11" data-name="Path 380" d="M81.286,82.511l3.542-4.168L86.189,81l-1.863,2.193Z" transform="translate(-55.219 -74.132)" fill="#25215a"/>
        <path id="Path_381-11" data-name="Path 381" d="M112.168,104.13l-7.785-1.748-1.215-2.374,7.785,1.748Z" transform="translate(-97.232 -79.921)" fill="#25215a"/>
        <path id="Path_382-11" data-name="Path 382" d="M101,97.878l-4.01,4.719-1.361-2.659,4.01-4.719Z" transform="translate(-80.534 -78.641)" fill="#25215a"/>
        <path id="Path_383-11" data-name="Path 383" d="M92.368,80.537a.731.731,0,0,0,.719-.24l4.75-5.591,8.031,1.8-4.252,5a.733.733,0,0,0,.4,1.189l7.7,1.729-4.4,5.176-8.447-1.9a.743.743,0,0,0-.16-.018.733.733,0,0,0-.558.258l-4.75,5.59-8.031-1.8,4.252-5a.733.733,0,0,0-.4-1.189l-7.692-1.728,4.4-5.176Z" transform="translate(-77.451 -73.16)" fill="#3a3a99"/>
        <path id="Path_384-11" data-name="Path 384" d="M116.939,92.346l-3.452-.775L112.271,89.2l6.167,1.385Z" transform="translate(-110.174 -77.032)" fill="#25215a"/>
        <path id="Path_385-11" data-name="Path 385" d="M79.493,76.79a.727.727,0,0,1,.719-.24l8.442,1.9L93.4,72.855a.729.729,0,0,1,.719-.24l9.646,2.167a.73.73,0,0,1,.487.384l.005,0,2.085,4.071a.733.733,0,0,1-.094.809l-1.681,1.979,3.04.683a.726.726,0,0,1,.487.383l.005,0,2.086,4.071a.734.734,0,0,1-.094.808L104.623,94.4a.731.731,0,0,1-.719.241l-8.447-1.9-4.75,5.591a.733.733,0,0,1-.558.258.742.742,0,0,1-.16-.018l-9.646-2.166a.735.735,0,0,1-.492-.381L77.766,91.96l.005,0a.682.682,0,0,1-.048-.1.731.731,0,0,1,.136-.707l1.682-1.979-3.037-.682a.734.734,0,0,1-.492-.38l-2.085-4.072.005,0a.768.768,0,0,1-.048-.1.733.733,0,0,1,.136-.707Zm25.325,2.676-1.362-2.659-3.542,4.168,3.04.684Zm-.6,13.151,4.443-5.229L107.3,84.73l-4.443,5.228Zm-8.535-1.323,7.017,1.577L101.485,90.5l-7.018-1.576ZM90.3,96.552l4.01-4.719L92.95,89.175l-4.01,4.718ZM81,95.057l7.785,1.748-1.216-2.374-7.785-1.748Zm-3.838-7.923,3.453.775,1.5-1.764L75.946,84.76Zm6.455-2.153a.733.733,0,0,1,.4,1.189l-4.252,5,8.031,1.8,4.75-5.59a.733.733,0,0,1,.558-.258.743.743,0,0,1,.16.018l8.447,1.9,4.4-5.176-7.7-1.729a.733.733,0,0,1-.4-1.189l4.252-5-8.031-1.8-4.75,5.591a.731.731,0,0,1-.719.24l-8.442-1.9-4.4,5.176Z" transform="translate(-73.848 -72.596)" fill="#161616"/>
      </g>
      <g id="Group_156" data-name="Group 156" transform="translate(1802 186)" opacity="0.1">
        <path id="Path_378-12" data-name="Path 378" d="M92.41,94.874,85.392,96.45l-1.215,2.374,7.018-1.576Z" transform="translate(-63.559 -89.149)" fill="#25215a"/>
        <path id="Path_379-12" data-name="Path 379" d="M81.847,94.384,77.4,89.155l-1.361,2.659,4.443,5.228Z" transform="translate(-47.036 -83.177)" fill="#25215a"/>
        <path id="Path_380-12" data-name="Path 380" d="M81.286,79.026l3.542,4.168,1.362-2.659-1.863-2.193Z" transform="translate(-55.219 -61.406)" fill="#25215a"/>
        <path id="Path_381-12" data-name="Path 381" d="M112.168,100.008l-7.785,1.748-1.215,2.374,7.785-1.748Z" transform="translate(-97.232 -98.217)" fill="#25215a"/>
        <path id="Path_382-12" data-name="Path 382" d="M101,99.939l-4.01-4.719-1.361,2.659,4.01,4.719Z" transform="translate(-80.534 -93.176)" fill="#25215a"/>
        <path id="Path_383-12" data-name="Path 383" d="M92.368,87.711a.731.731,0,0,1,.719.24l4.75,5.591,8.031-1.8-4.252-5a.733.733,0,0,1,.4-1.189l7.7-1.729-4.4-5.176-8.447,1.9a.743.743,0,0,1-.16.018.733.733,0,0,1-.558-.258l-4.75-5.59-8.031,1.8,4.252,5a.733.733,0,0,1-.4,1.189l-7.692,1.728,4.4,5.176Z" transform="translate(-77.451 -69.088)" fill="#3a3a99"/>
        <path id="Path_384-12" data-name="Path 384" d="M116.939,89.2l-3.452.775-1.215,2.374,6.167-1.385Z" transform="translate(-110.174 -78.51)" fill="#25215a"/>
        <path id="Path_385-12" data-name="Path 385" d="M79.493,94.4a.727.727,0,0,0,.719.24l8.442-1.9L93.4,98.337a.729.729,0,0,0,.719.24l9.646-2.167a.73.73,0,0,0,.487-.384l.005,0,2.085-4.071a.733.733,0,0,0-.094-.809l-1.681-1.979,3.04-.683a.726.726,0,0,0,.487-.383l.005,0,2.086-4.071a.734.734,0,0,0-.094-.808l-5.471-6.438a.731.731,0,0,0-.719-.241l-8.447,1.9-4.75-5.591a.733.733,0,0,0-.558-.258.742.742,0,0,0-.16.018L80.343,74.78a.735.735,0,0,0-.492.381l-2.085,4.071.005,0a.682.682,0,0,0-.048.1.731.731,0,0,0,.136.707l1.682,1.979-3.037.682a.734.734,0,0,0-.492.38l-2.085,4.072.005,0a.768.768,0,0,0-.048.1.733.733,0,0,0,.136.707Zm25.325-2.676-1.362,2.659-3.542-4.168,3.04-.684Zm-.6-13.151L108.66,83.8,107.3,86.462l-4.443-5.228ZM95.682,79.9,102.7,78.32,101.484,80.7l-7.018,1.576ZM90.3,74.64l4.01,4.719L92.95,82.017,88.94,77.3ZM81,76.135l7.785-1.748L87.568,76.76l-7.785,1.748Zm-3.838,7.923,3.453-.775,1.5,1.764-6.166,1.386Zm6.455,2.153a.733.733,0,0,0,.4-1.189l-4.252-5,8.031-1.8,4.75,5.59a.733.733,0,0,0,.558.258.743.743,0,0,0,.16-.018l8.447-1.9,4.4,5.176-7.7,1.729a.733.733,0,0,0-.4,1.189l4.252,5-8.031,1.8-4.75-5.591a.731.731,0,0,0-.719-.24l-8.442,1.9-4.4-5.176Z" transform="translate(-73.848 -72.596)" fill="#161616"/>
      </g>
      <g id="Group_157" data-name="Group 157" transform="translate(1766 463)" opacity="0.1">
        <path id="Path_378-13" data-name="Path 378" d="M92.41,98.824l-7.018-1.576-1.215-2.374,7.018,1.576Z" transform="translate(-63.559 -78.549)" fill="#25215a"/>
        <path id="Path_379-13" data-name="Path 379" d="M81.847,91.814,77.4,97.043l-1.361-2.659,4.443-5.228Z" transform="translate(-47.036 -77.021)" fill="#25215a"/>
        <path id="Path_380-13" data-name="Path 380" d="M81.286,82.511l3.542-4.168L86.189,81l-1.863,2.193Z" transform="translate(-55.219 -74.132)" fill="#25215a"/>
        <path id="Path_381-13" data-name="Path 381" d="M112.168,104.13l-7.785-1.748-1.215-2.374,7.785,1.748Z" transform="translate(-97.232 -79.921)" fill="#25215a"/>
        <path id="Path_382-13" data-name="Path 382" d="M101,97.878l-4.01,4.719-1.361-2.659,4.01-4.719Z" transform="translate(-80.534 -78.641)" fill="#25215a"/>
        <path id="Path_383-13" data-name="Path 383" d="M92.368,80.537a.731.731,0,0,0,.719-.24l4.75-5.591,8.031,1.8-4.252,5a.733.733,0,0,0,.4,1.189l7.7,1.729-4.4,5.176-8.447-1.9a.743.743,0,0,0-.16-.018.733.733,0,0,0-.558.258l-4.75,5.59-8.031-1.8,4.252-5a.733.733,0,0,0-.4-1.189l-7.692-1.728,4.4-5.176Z" transform="translate(-77.451 -73.16)" fill="#3a3a99"/>
        <path id="Path_384-13" data-name="Path 384" d="M116.939,92.346l-3.452-.775L112.271,89.2l6.167,1.385Z" transform="translate(-110.174 -77.032)" fill="#25215a"/>
        <path id="Path_385-13" data-name="Path 385" d="M79.493,76.79a.727.727,0,0,1,.719-.24l8.442,1.9L93.4,72.855a.729.729,0,0,1,.719-.24l9.646,2.167a.73.73,0,0,1,.487.384l.005,0,2.085,4.071a.733.733,0,0,1-.094.809l-1.681,1.979,3.04.683a.726.726,0,0,1,.487.383l.005,0,2.086,4.071a.734.734,0,0,1-.094.808L104.623,94.4a.731.731,0,0,1-.719.241l-8.447-1.9-4.75,5.591a.733.733,0,0,1-.558.258.742.742,0,0,1-.16-.018l-9.646-2.166a.735.735,0,0,1-.492-.381L77.766,91.96l.005,0a.682.682,0,0,1-.048-.1.731.731,0,0,1,.136-.707l1.682-1.979-3.037-.682a.734.734,0,0,1-.492-.38l-2.085-4.072.005,0a.768.768,0,0,1-.048-.1.733.733,0,0,1,.136-.707Zm25.325,2.676-1.362-2.659-3.542,4.168,3.04.684Zm-.6,13.151,4.443-5.229L107.3,84.73l-4.443,5.228Zm-8.535-1.323,7.017,1.577L101.484,90.5l-7.018-1.576ZM90.3,96.552l4.01-4.719L92.95,89.175l-4.01,4.718ZM81,95.057l7.785,1.748-1.216-2.374-7.785-1.748Zm-3.838-7.923,3.453.775,1.5-1.764L75.946,84.76Zm6.455-2.153a.733.733,0,0,1,.4,1.189l-4.252,5,8.031,1.8,4.75-5.59a.733.733,0,0,1,.558-.258.743.743,0,0,1,.16.018l8.447,1.9,4.4-5.176-7.7-1.729a.733.733,0,0,1-.4-1.189l4.252-5-8.031-1.8-4.75,5.591a.731.731,0,0,1-.719.24l-8.442-1.9-4.4,5.176Z" transform="translate(-73.848 -72.596)" fill="#161616"/>
      </g>
      <g id="Group_158" data-name="Group 158" transform="translate(1754 945)" opacity="0.1">
        <path id="Path_378-14" data-name="Path 378" d="M92.41,98.824l-7.018-1.576-1.215-2.374,7.018,1.576Z" transform="translate(-63.559 -78.549)" fill="#25215a"/>
        <path id="Path_379-14" data-name="Path 379" d="M81.847,91.814,77.4,97.043l-1.361-2.659,4.443-5.228Z" transform="translate(-47.036 -77.021)" fill="#25215a"/>
        <path id="Path_380-14" data-name="Path 380" d="M81.286,82.511l3.542-4.168L86.189,81l-1.863,2.193Z" transform="translate(-55.219 -74.132)" fill="#25215a"/>
        <path id="Path_381-14" data-name="Path 381" d="M112.168,104.13l-7.785-1.748-1.215-2.374,7.785,1.748Z" transform="translate(-97.232 -79.921)" fill="#25215a"/>
        <path id="Path_382-14" data-name="Path 382" d="M101,97.878l-4.01,4.719-1.361-2.659,4.01-4.719Z" transform="translate(-80.534 -78.641)" fill="#25215a"/>
        <path id="Path_383-14" data-name="Path 383" d="M92.368,80.537a.731.731,0,0,0,.719-.24l4.75-5.591,8.031,1.8-4.252,5a.733.733,0,0,0,.4,1.189l7.7,1.729-4.4,5.176-8.447-1.9a.743.743,0,0,0-.16-.018.733.733,0,0,0-.558.258l-4.75,5.59-8.031-1.8,4.252-5a.733.733,0,0,0-.4-1.189l-7.692-1.728,4.4-5.176Z" transform="translate(-77.451 -73.16)" fill="#3a3a99"/>
        <path id="Path_384-14" data-name="Path 384" d="M116.939,92.346l-3.452-.775L112.271,89.2l6.167,1.385Z" transform="translate(-110.174 -77.032)" fill="#25215a"/>
        <path id="Path_385-14" data-name="Path 385" d="M79.493,76.79a.727.727,0,0,1,.719-.24l8.442,1.9L93.4,72.855a.729.729,0,0,1,.719-.24l9.646,2.167a.73.73,0,0,1,.487.384l.005,0,2.085,4.071a.733.733,0,0,1-.094.809l-1.681,1.979,3.04.683a.726.726,0,0,1,.487.383l.005,0,2.086,4.071a.734.734,0,0,1-.094.808L104.623,94.4a.731.731,0,0,1-.719.241l-8.447-1.9-4.75,5.591a.733.733,0,0,1-.558.258.742.742,0,0,1-.16-.018l-9.646-2.166a.735.735,0,0,1-.492-.381L77.766,91.96l.005,0a.682.682,0,0,1-.048-.1.731.731,0,0,1,.136-.707l1.682-1.979-3.037-.682a.734.734,0,0,1-.492-.38l-2.085-4.072.005,0a.768.768,0,0,1-.048-.1.733.733,0,0,1,.136-.707Zm25.325,2.676-1.362-2.659-3.542,4.168,3.04.684Zm-.6,13.151,4.443-5.229L107.3,84.73l-4.443,5.228Zm-8.535-1.323,7.017,1.577L101.484,90.5l-7.018-1.576ZM90.3,96.552l4.01-4.719L92.95,89.175l-4.01,4.718ZM81,95.057l7.785,1.748-1.216-2.374-7.785-1.748Zm-3.838-7.923,3.453.775,1.5-1.764L75.946,84.76Zm6.455-2.153a.733.733,0,0,1,.4,1.189l-4.252,5,8.031,1.8,4.75-5.59a.733.733,0,0,1,.558-.258.743.743,0,0,1,.16.018l8.447,1.9,4.4-5.176-7.7-1.729a.733.733,0,0,1-.4-1.189l4.252-5-8.031-1.8-4.75,5.591a.731.731,0,0,1-.719.24l-8.442-1.9-4.4,5.176Z" transform="translate(-73.848 -72.596)" fill="#161616"/>
      </g>
      <g id="Group_159" data-name="Group 159" transform="translate(1766.297 696.352)" opacity="0.1">
        <path id="Path_378-15" data-name="Path 378" d="M84.177,98.467l6.383-1.434,1.106-2.159-6.383,1.433Z" transform="translate(-77.293 -80.025)" fill="#25215a"/>
        <path id="Path_379-15" data-name="Path 379" d="M76.043,91.573l4.041,4.756,1.238-2.419-4.041-4.755Z" transform="translate(-74.58 -78.118)" fill="#25215a"/>
        <path id="Path_380-15" data-name="Path 380" d="M85.746,82.134l-3.222-3.792-1.238,2.419,1.694,1.994Z" transform="translate(-76.329 -74.512)" fill="#25215a"/>
        <path id="Path_381-15" data-name="Path 381" d="M103.167,103.758l7.081-1.59,1.106-2.16-7.081,1.59Z" transform="translate(-83.626 -81.737)" fill="#25215a"/>
        <path id="Path_382-15" data-name="Path 382" d="M95.625,97.638l3.647,4.293,1.238-2.419L96.863,95.22Z" transform="translate(-81.11 -80.141)" fill="#25215a"/>
        <path id="Path_383-15" data-name="Path 383" d="M95.3,80.009a.665.665,0,0,1-.654-.219l-4.32-5.086-7.305,1.641L86.889,80.9a.667.667,0,0,1-.362,1.082l-7,1.572,4,4.708,7.683-1.725a.676.676,0,0,1,.146-.016.666.666,0,0,1,.508.235l4.32,5.085,7.305-1.64-3.868-4.552a.667.667,0,0,1,.362-1.082l7-1.572-4-4.708Z" transform="translate(-75.742 -73.299)" fill="#3a3a99"/>
        <path id="Path_384-15" data-name="Path 384" d="M113.634,92.061l3.14-.7,1.106-2.16-5.609,1.26Z" transform="translate(-86.662 -78.132)" fill="#25215a"/>
        <path id="Path_385-15" data-name="Path 385" d="M101.841,76.411a.661.661,0,0,0-.654-.219l-7.679,1.724-4.321-5.086a.663.663,0,0,0-.654-.219L79.76,74.584a.664.664,0,0,0-.443.349l0,0-1.9,3.7a.667.667,0,0,0,.085.736l1.529,1.8-2.765.621a.66.66,0,0,0-.443.349l0,0-1.9,3.7a.667.667,0,0,0,.085.735l4.976,5.856a.665.665,0,0,0,.654.219l7.683-1.726,4.32,5.086a.666.666,0,0,0,.508.235.675.675,0,0,0,.146-.016l8.773-1.97a.668.668,0,0,0,.447-.347l1.9-3.7,0,0a.619.619,0,0,0,.043-.09.665.665,0,0,0-.124-.643l-1.53-1.8,2.762-.621a.667.667,0,0,0,.447-.346l1.9-3.7,0,0a.7.7,0,0,0,.043-.09.666.666,0,0,0-.124-.643ZM78.806,78.845l1.238-2.419,3.221,3.791L80.5,80.84Zm.547,11.962-4.041-4.756,1.238-2.418,4.041,4.756Zm7.763-1.2-6.383,1.434,1.105-2.16,6.383-1.433Zm4.895,4.782-3.647-4.292L89.6,87.675l3.647,4.292Zm8.461-1.36-7.081,1.59,1.106-2.16,7.081-1.59Zm3.491-7.206-3.141.705-1.363-1.6,5.609-1.26ZM98.09,83.862a.667.667,0,0,0-.362,1.082L101.6,89.5l-7.305,1.64-4.32-5.085a.666.666,0,0,0-.508-.235.676.676,0,0,0-.146.016l-7.683,1.725-4-4.708,7-1.572A.667.667,0,0,0,85,80.195l-3.868-4.552L88.432,74l4.32,5.086a.665.665,0,0,0,.654.219l7.679-1.724,4,4.708Z" transform="translate(-73.848 -72.596)" fill="#161616"/>
      </g>
      <g id="Group_160" data-name="Group 160" transform="translate(1001.151 836.404)" opacity="0.1">
        <path id="Path_378-16" data-name="Path 378" d="M84.177,98.824l7.018-1.576,1.215-2.374L85.392,96.45Z" transform="translate(-2.76 -5.953)" fill="#25215a"/>
        <path id="Path_379-16" data-name="Path 379" d="M76.043,91.814l4.443,5.229,1.361-2.659L77.4,89.155Z" transform="translate(-0.586 -4.425)" fill="#25215a"/>
        <path id="Path_380-16" data-name="Path 380" d="M86.189,82.511l-3.542-4.168L81.286,81l1.863,2.193Z" transform="translate(-1.987 -1.536)" fill="#25215a"/>
        <path id="Path_381-16" data-name="Path 381" d="M103.167,104.13l7.785-1.748,1.215-2.374-7.785,1.748Z" transform="translate(-7.834 -7.325)" fill="#25215a"/>
        <path id="Path_382-16" data-name="Path 382" d="M95.625,97.878l4.01,4.719L101,99.938l-4.01-4.719Z" transform="translate(-5.819 -6.045)" fill="#25215a"/>
        <path id="Path_383-16" data-name="Path 383" d="M96.868,80.537a.731.731,0,0,1-.719-.24L91.4,74.705l-8.031,1.8,4.252,5a.733.733,0,0,1-.4,1.189l-7.7,1.729,4.4,5.176,8.447-1.9a.743.743,0,0,1,.16-.018.733.733,0,0,1,.558.258l4.75,5.59,8.031-1.8-4.252-5a.733.733,0,0,1,.4-1.189l7.692-1.728-4.4-5.176Z" transform="translate(-1.517 -0.564)" fill="#3a3a99"/>
        <path id="Path_384-16" data-name="Path 384" d="M113.77,92.346l3.452-.775,1.215-2.374-6.167,1.385Z" transform="translate(-10.267 -4.436)" fill="#25215a"/>
        <path id="Path_385-16" data-name="Path 385" d="M104.624,76.79a.727.727,0,0,0-.719-.24l-8.442,1.9-4.751-5.591a.729.729,0,0,0-.719-.24l-9.646,2.167a.73.73,0,0,0-.487.384l-.005,0-2.085,4.071a.733.733,0,0,0,.094.809l1.681,1.979-3.04.683a.726.726,0,0,0-.487.383l-.005,0-2.086,4.071a.734.734,0,0,0,.094.808L79.493,94.4a.731.731,0,0,0,.719.241l8.447-1.9,4.75,5.591a.733.733,0,0,0,.558.258.742.742,0,0,0,.16-.018l9.646-2.166a.735.735,0,0,0,.492-.381l2.085-4.071-.005,0a.682.682,0,0,0,.048-.1.731.731,0,0,0-.136-.707l-1.682-1.979,3.037-.682a.734.734,0,0,0,.492-.38l2.085-4.072-.005,0a.768.768,0,0,0,.048-.1.733.733,0,0,0-.136-.707ZM79.3,79.467l1.362-2.659L84.2,80.975l-3.04.684Zm.6,13.151-4.443-5.229,1.362-2.659,4.443,5.228Zm8.535-1.323-7.017,1.577L82.632,90.5l7.018-1.576Zm5.382,5.258-4.01-4.719,1.361-2.659,4.01,4.718Zm9.3-1.495-7.785,1.748,1.216-2.374,7.785-1.748Zm3.838-7.923-3.453.775L102,86.146l6.166-1.386ZM100.5,84.982a.733.733,0,0,0-.4,1.189l4.252,5-8.031,1.8-4.75-5.59a.733.733,0,0,0-.558-.258.743.743,0,0,0-.16.018l-8.447,1.9-4.4-5.176,7.7-1.729a.733.733,0,0,0,.4-1.189l-4.252-5,8.031-1.8,4.75,5.591a.731.731,0,0,0,.719.24l8.442-1.9,4.4,5.176Z" transform="translate(0 0)" fill="#161616"/>
      </g>
      <g id="Group_161" data-name="Group 161" transform="translate(1273 160)" opacity="0.1">
        <path id="Path_378-17" data-name="Path 378" d="M84.177,94.874l7.018,1.576,1.215,2.374-7.018-1.576Z" transform="translate(-76.608 -89.149)" fill="#25215a"/>
        <path id="Path_379-17" data-name="Path 379" d="M76.043,94.384l4.443-5.229,1.361,2.659L77.4,97.043Z" transform="translate(-74.435 -83.177)" fill="#25215a"/>
        <path id="Path_380-17" data-name="Path 380" d="M86.189,79.026l-3.542,4.168-1.362-2.659,1.863-2.193Z" transform="translate(-75.836 -61.406)" fill="#25215a"/>
        <path id="Path_381-17" data-name="Path 381" d="M103.167,100.008l7.785,1.748,1.215,2.374-7.785-1.748Z" transform="translate(-81.683 -98.217)" fill="#25215a"/>
        <path id="Path_382-17" data-name="Path 382" d="M95.625,99.939l4.01-4.719L101,97.879l-4.01,4.719Z" transform="translate(-79.667 -93.176)" fill="#25215a"/>
        <path id="Path_383-17" data-name="Path 383" d="M96.868,87.711a.731.731,0,0,0-.719.24L91.4,93.543l-8.031-1.8,4.252-5a.733.733,0,0,0-.4-1.189l-7.7-1.729,4.4-5.176,8.447,1.9a.743.743,0,0,0,.16.018.733.733,0,0,0,.558-.258l4.75-5.59,8.031,1.8-4.252,5a.733.733,0,0,0,.4,1.189l7.692,1.728-4.4,5.176Z" transform="translate(-75.366 -69.088)" fill="#3a3a99"/>
        <path id="Path_384-17" data-name="Path 384" d="M113.77,89.2l3.452.775,1.215,2.374-6.167-1.385Z" transform="translate(-84.115 -78.51)" fill="#25215a"/>
        <path id="Path_385-17" data-name="Path 385" d="M104.624,94.4a.727.727,0,0,1-.719.24l-8.442-1.9-4.751,5.591a.729.729,0,0,1-.719.24l-9.646-2.167a.73.73,0,0,1-.487-.384l-.005,0-2.085-4.071a.733.733,0,0,1,.094-.809l1.681-1.979-3.04-.683a.726.726,0,0,1-.487-.383l-.005,0-2.086-4.071a.734.734,0,0,1,.094-.808l5.471-6.438a.731.731,0,0,1,.719-.241l8.447,1.9,4.75-5.591a.733.733,0,0,1,.558-.258.742.742,0,0,1,.16.018l9.646,2.166a.735.735,0,0,1,.492.381l2.085,4.071-.005,0a.682.682,0,0,1,.048.1.731.731,0,0,1-.136.707l-1.682,1.979,3.037.682a.734.734,0,0,1,.492.38l2.085,4.072-.005,0a.768.768,0,0,1,.048.1.733.733,0,0,1-.136.707ZM79.3,91.725l1.362,2.659L84.2,90.217l-3.04-.684Zm.6-13.151L75.457,83.8l1.362,2.659,4.443-5.228ZM88.434,79.9,81.417,78.32,82.632,80.7l7.018,1.576Zm5.382-5.258-4.01,4.719,1.361,2.659,4.01-4.718Zm9.3,1.495-7.785-1.748,1.216,2.374,7.785,1.748Zm3.838,7.923-3.453-.775L102,85.046l6.166,1.386ZM100.5,86.21a.733.733,0,0,1-.4-1.189l4.252-5-8.031-1.8-4.75,5.59a.733.733,0,0,1-.558.258.743.743,0,0,1-.16-.018l-8.447-1.9-4.4,5.176,7.7,1.729a.733.733,0,0,1,.4,1.189l-4.252,5,8.031,1.8,4.75-5.591a.731.731,0,0,1,.719-.24l8.442,1.9,4.4-5.176Z" transform="translate(-73.848 -72.596)" fill="#161616"/>
      </g>
      <g id="Group_165" data-name="Group 165" transform="translate(1080 639)" opacity="0.1">
        <path id="Path_386" data-name="Path 386" d="M221.344,101.747c.084.011.158.041.239.058V95.327a.86.86,0,0,0-.5-.228l-29.059-3.892v6.624c.056,0,.112,0,.168.012Z" transform="translate(-185.499 -89.181)" fill="#d3be00"/>
        <path id="Path_387" data-name="Path 387" d="M226.106,96.587V91.17l-2.477,4.314a.284.284,0,0,0-.015.284l-.031.015v4.4l1.5-2.617A2.658,2.658,0,0,1,226.106,96.587Z" transform="translate(-221.583 -87.517)" fill="#d3be00"/>
        <path id="Path_388" data-name="Path 388" d="M191.919,88.957a.762.762,0,0,0,.6.327l29.154,3.9a1.59,1.59,0,0,0,.2.012,1.2,1.2,0,0,0,.991-.408l3.19-5.557a.284.284,0,0,0,.015-.284.764.764,0,0,0-.6-.327l-29.154-3.9a1.519,1.519,0,0,0-.2-.014,1.135,1.135,0,0,0-.987.408l-3.191,5.559A.284.284,0,0,0,191.919,88.957Z" transform="translate(-189.888 -72.075)" fill="#ffed08"/>
        <path id="Path_389" data-name="Path 389" d="M190.134,98.47a2.684,2.684,0,0,0,2.136,1.425l29.162,3.906a3.179,3.179,0,0,0,3.18-1.383L227.8,96.86a2.253,2.253,0,0,0,.178-1.871V87.813a2.232,2.232,0,0,0,0-1.455v-.032h-.012a2.139,2.139,0,0,0-.091-.262,2.7,2.7,0,0,0-2.136-1.425l-29.154-3.9a3.639,3.639,0,0,0-.467-.031,3.082,3.082,0,0,0-2.721,1.413l-3.191,5.558a2.29,2.29,0,0,0-.307,1.139H189.9v8.812h.021A2.27,2.27,0,0,0,190.134,98.47Zm6.286-15.74,29.059,3.892a.86.86,0,0,1,.5.228v6.478c-.081-.017-.155-.047-.239-.058l-29.154-3.9c-.056-.008-.112-.007-.168-.012Zm-.3,8.6a1.519,1.519,0,0,1,.2.014l29.154,3.9a.764.764,0,0,1,.6.327.284.284,0,0,1-.015.284l-3.19,5.557a1.2,1.2,0,0,1-.991.408,1.59,1.59,0,0,1-.2-.012l-29.154-3.9a.762.762,0,0,1-.6-.327.284.284,0,0,1,.015-.284l3.191-5.559A1.135,1.135,0,0,1,196.121,91.335ZM191.9,88.97l.031-.015a.284.284,0,0,1,.015-.284l2.477-4.314v5.417a2.658,2.658,0,0,0-1.02.974l-1.5,2.617Z" transform="translate(-189.897 -80.704)" fill="#161616"/>
      </g>
      <g id="Group_166" data-name="Group 166" transform="translate(691.103 865.296)" opacity="0.1">
        <path id="Path_386-2" data-name="Path 386" d="M192.261,91.265c-.084-.011-.158-.041-.239-.058v6.478a.86.86,0,0,0,.5.228l29.059,3.892V95.181c-.056,0-.112,0-.168-.012Z" fill="#d3be00"/>
        <path id="Path_387-2" data-name="Path 387" d="M223.583,94.761v5.417l2.477-4.314a.284.284,0,0,0,.015-.284l.031-.015v-4.4l-1.5,2.617A2.658,2.658,0,0,1,223.583,94.761Z" fill="#d3be00"/>
        <path id="Path_388-2" data-name="Path 388" d="M226.075,86.949a.762.762,0,0,0-.6-.327l-29.154-3.9a1.59,1.59,0,0,0-.2-.012,1.2,1.2,0,0,0-.991.408l-3.19,5.557a.284.284,0,0,0-.015.284.764.764,0,0,0,.6.327l29.154,3.9a1.519,1.519,0,0,0,.2.014,1.135,1.135,0,0,0,.987-.408l3.191-5.559A.284.284,0,0,0,226.075,86.949Z" fill="#ffed08"/>
        <path id="Path_389-2" data-name="Path 389" d="M227.869,86.065a2.684,2.684,0,0,0-2.136-1.425l-29.162-3.906a3.179,3.179,0,0,0-3.18,1.383L190.2,87.675a2.253,2.253,0,0,0-.178,1.871v7.176a2.232,2.232,0,0,0,0,1.455v.032h.012a2.139,2.139,0,0,0,.091.262,2.7,2.7,0,0,0,2.136,1.425l29.154,3.9a3.639,3.639,0,0,0,.467.031,3.082,3.082,0,0,0,2.721-1.413l3.191-5.558a2.29,2.29,0,0,0,.307-1.139h.005V86.909h-.021A2.27,2.27,0,0,0,227.869,86.065Zm-6.286,15.74-29.059-3.892a.86.86,0,0,1-.5-.228V91.207c.081.017.155.047.239.058l29.154,3.9c.056.008.112.007.168.012Zm.3-8.605a1.519,1.519,0,0,1-.2-.014l-29.154-3.9a.764.764,0,0,1-.6-.327.284.284,0,0,1,.015-.284l3.19-5.557a1.2,1.2,0,0,1,.991-.408,1.59,1.59,0,0,1,.2.012l29.154,3.9a.762.762,0,0,1,.6.327.284.284,0,0,1-.015.284l-3.191,5.559A1.135,1.135,0,0,1,221.882,93.2Zm4.224,2.365-.031.015a.284.284,0,0,1-.015.284l-2.477,4.314V94.761a2.658,2.658,0,0,0,1.02-.974l1.5-2.617Z" fill="#161616"/>
      </g>
      <g id="Group_167" data-name="Group 167" transform="translate(-89.897 658.296)" opacity="0.1">
        <path id="Path_386-3" data-name="Path 386" d="M192.261,91.265c-.084-.011-.158-.041-.239-.058v6.478a.86.86,0,0,0,.5.228l29.059,3.892V95.181c-.056,0-.112,0-.168-.012Z" fill="#d3be00"/>
        <path id="Path_387-3" data-name="Path 387" d="M223.583,94.761v5.417l2.477-4.314a.284.284,0,0,0,.015-.284l.031-.015v-4.4l-1.5,2.617A2.658,2.658,0,0,1,223.583,94.761Z" fill="#d3be00"/>
        <path id="Path_388-3" data-name="Path 388" d="M226.075,86.949a.762.762,0,0,0-.6-.327l-29.154-3.9a1.59,1.59,0,0,0-.2-.012,1.2,1.2,0,0,0-.991.408l-3.19,5.557a.284.284,0,0,0-.015.284.764.764,0,0,0,.6.327l29.154,3.9a1.519,1.519,0,0,0,.2.014,1.135,1.135,0,0,0,.987-.408l3.191-5.559A.284.284,0,0,0,226.075,86.949Z" fill="#ffed08"/>
        <path id="Path_389-3" data-name="Path 389" d="M227.869,86.065a2.684,2.684,0,0,0-2.136-1.425l-29.162-3.906a3.179,3.179,0,0,0-3.18,1.383L190.2,87.675a2.253,2.253,0,0,0-.178,1.871v7.176a2.232,2.232,0,0,0,0,1.455v.032h.012a2.139,2.139,0,0,0,.091.262,2.7,2.7,0,0,0,2.136,1.425l29.154,3.9a3.639,3.639,0,0,0,.467.031,3.082,3.082,0,0,0,2.721-1.413l3.191-5.558a2.29,2.29,0,0,0,.307-1.139h.005V86.909h-.021A2.27,2.27,0,0,0,227.869,86.065Zm-6.286,15.74-29.059-3.892a.86.86,0,0,1-.5-.228V91.207c.081.017.155.047.239.058l29.154,3.9c.056.008.112.007.168.012Zm.3-8.605a1.519,1.519,0,0,1-.2-.014l-29.154-3.9a.764.764,0,0,1-.6-.327.284.284,0,0,1,.015-.284l3.19-5.557a1.2,1.2,0,0,1,.991-.408,1.59,1.59,0,0,1,.2.012l29.154,3.9a.762.762,0,0,1,.6.327.284.284,0,0,1-.015.284l-3.191,5.559A1.135,1.135,0,0,1,221.882,93.2Zm4.224,2.365-.031.015a.284.284,0,0,1-.015.284l-2.477,4.314V94.761a2.658,2.658,0,0,0,1.02-.974l1.5-2.617Z" fill="#161616"/>
      </g>
      <g id="Group_168" data-name="Group 168" transform="translate(80 505)" opacity="0.1">
        <path id="Path_386-4" data-name="Path 386" d="M221.344,91.265c.084-.011.158-.041.239-.058v6.478a.86.86,0,0,1-.5.228l-29.059,3.892V95.181c.056,0,.112,0,.168-.012Z" transform="translate(-185.499 -80.704)" fill="#d3be00"/>
        <path id="Path_387-4" data-name="Path 387" d="M226.106,94.761v5.417l-2.477-4.314a.284.284,0,0,1-.015-.284l-.031-.015v-4.4l1.5,2.617A2.658,2.658,0,0,0,226.106,94.761Z" transform="translate(-221.583 -80.704)" fill="#d3be00"/>
        <path id="Path_388-4" data-name="Path 388" d="M191.919,86.949a.762.762,0,0,1,.6-.327l29.154-3.9a1.59,1.59,0,0,1,.2-.012,1.2,1.2,0,0,1,.991.408l3.19,5.557a.284.284,0,0,1,.015.284.764.764,0,0,1-.6.327l-29.154,3.9a1.519,1.519,0,0,1-.2.014,1.135,1.135,0,0,1-.987-.408l-3.191-5.559A.284.284,0,0,1,191.919,86.949Z" transform="translate(-189.888 -80.704)" fill="#ffed08"/>
        <path id="Path_389-4" data-name="Path 389" d="M190.134,86.065a2.684,2.684,0,0,1,2.136-1.425l29.162-3.906a3.179,3.179,0,0,1,3.18,1.383l3.191,5.558a2.253,2.253,0,0,1,.178,1.871v7.176a2.232,2.232,0,0,1,0,1.455v.032h-.012a2.139,2.139,0,0,1-.091.262,2.7,2.7,0,0,1-2.136,1.425l-29.154,3.9a3.639,3.639,0,0,1-.467.031,3.082,3.082,0,0,1-2.721-1.413l-3.191-5.558a2.29,2.29,0,0,1-.307-1.139H189.9V86.909h.021A2.27,2.27,0,0,1,190.134,86.065Zm6.286,15.74,29.059-3.892a.86.86,0,0,0,.5-.228V91.207c-.081.017-.155.047-.239.058l-29.154,3.9c-.056.008-.112.007-.168.012Zm-.3-8.605a1.519,1.519,0,0,0,.2-.014l29.154-3.9a.764.764,0,0,0,.6-.327.284.284,0,0,0-.015-.284l-3.19-5.557a1.2,1.2,0,0,0-.991-.408,1.59,1.59,0,0,0-.2.012l-29.154,3.9a.762.762,0,0,0-.6.327.284.284,0,0,0,.015.284l3.191,5.559A1.135,1.135,0,0,0,196.121,93.2ZM191.9,95.565l.031.015a.284.284,0,0,0,.015.284l2.477,4.314V94.761a2.658,2.658,0,0,1-1.02-.974l-1.5-2.617Z" transform="translate(-189.897 -80.704)" fill="#161616"/>
      </g>
      <g id="Group_169" data-name="Group 169" transform="translate(28.103 188.296)" opacity="0.1">
        <path id="Path_386-5" data-name="Path 386" d="M192.261,91.265c-.084-.011-.158-.041-.239-.058v6.478a.86.86,0,0,0,.5.228l29.059,3.892V95.181c-.056,0-.112,0-.168-.012Z" fill="#d3be00"/>
        <path id="Path_387-5" data-name="Path 387" d="M223.583,94.761v5.417l2.477-4.314a.284.284,0,0,0,.015-.284l.031-.015v-4.4l-1.5,2.617A2.658,2.658,0,0,1,223.583,94.761Z" fill="#d3be00"/>
        <path id="Path_388-5" data-name="Path 388" d="M226.075,86.949a.762.762,0,0,0-.6-.327l-29.154-3.9a1.59,1.59,0,0,0-.2-.012,1.2,1.2,0,0,0-.991.408l-3.19,5.557a.284.284,0,0,0-.015.284.764.764,0,0,0,.6.327l29.154,3.9a1.519,1.519,0,0,0,.2.014,1.135,1.135,0,0,0,.987-.408l3.191-5.559A.284.284,0,0,0,226.075,86.949Z" fill="#ffed08"/>
        <path id="Path_389-5" data-name="Path 389" d="M227.869,86.065a2.684,2.684,0,0,0-2.136-1.425l-29.162-3.906a3.179,3.179,0,0,0-3.18,1.383L190.2,87.675a2.253,2.253,0,0,0-.178,1.871v7.176a2.232,2.232,0,0,0,0,1.455v.032h.012a2.139,2.139,0,0,0,.091.262,2.7,2.7,0,0,0,2.136,1.425l29.154,3.9a3.639,3.639,0,0,0,.467.031,3.082,3.082,0,0,0,2.721-1.413l3.191-5.558a2.29,2.29,0,0,0,.307-1.139h.005V86.909h-.021A2.27,2.27,0,0,0,227.869,86.065Zm-6.286,15.74-29.059-3.892a.86.86,0,0,1-.5-.228V91.207c.081.017.155.047.239.058l29.154,3.9c.056.008.112.007.168.012Zm.3-8.605a1.519,1.519,0,0,1-.2-.014l-29.154-3.9a.764.764,0,0,1-.6-.327.284.284,0,0,1,.015-.284l3.19-5.557a1.2,1.2,0,0,1,.991-.408,1.59,1.59,0,0,1,.2.012l29.154,3.9a.762.762,0,0,1,.6.327.284.284,0,0,1-.015.284l-3.191,5.559A1.135,1.135,0,0,1,221.882,93.2Zm4.224,2.365-.031.015a.284.284,0,0,1-.015.284l-2.477,4.314V94.761a2.658,2.658,0,0,0,1.02-.974l1.5-2.617Z" fill="#161616"/>
      </g>
      <g id="Group_170" data-name="Group 170" transform="translate(941 187)" opacity="0.1">
        <path id="Path_386-6" data-name="Path 386" d="M221.344,101.747c.084.011.158.041.239.058V95.327a.86.86,0,0,0-.5-.228l-29.059-3.892v6.624c.056,0,.112,0,.168.012Z" transform="translate(-185.499 -89.181)" fill="#d3be00"/>
        <path id="Path_387-6" data-name="Path 387" d="M226.106,96.587V91.17l-2.477,4.314a.284.284,0,0,0-.015.284l-.031.015v4.4l1.5-2.617A2.658,2.658,0,0,1,226.106,96.587Z" transform="translate(-221.583 -87.517)" fill="#d3be00"/>
        <path id="Path_388-6" data-name="Path 388" d="M191.919,88.957a.762.762,0,0,0,.6.327l29.154,3.9a1.59,1.59,0,0,0,.2.012,1.2,1.2,0,0,0,.991-.408l3.19-5.557a.284.284,0,0,0,.015-.284.764.764,0,0,0-.6-.327l-29.154-3.9a1.519,1.519,0,0,0-.2-.014,1.135,1.135,0,0,0-.987.408l-3.191,5.559A.284.284,0,0,0,191.919,88.957Z" transform="translate(-189.888 -72.075)" fill="#ffed08"/>
        <path id="Path_389-6" data-name="Path 389" d="M190.134,98.47a2.684,2.684,0,0,0,2.136,1.425l29.162,3.906a3.179,3.179,0,0,0,3.18-1.383L227.8,96.86a2.253,2.253,0,0,0,.178-1.871V87.813a2.232,2.232,0,0,0,0-1.455v-.032h-.012a2.139,2.139,0,0,0-.091-.262,2.7,2.7,0,0,0-2.136-1.425l-29.154-3.9a3.639,3.639,0,0,0-.467-.031,3.082,3.082,0,0,0-2.721,1.413l-3.191,5.558a2.29,2.29,0,0,0-.307,1.139H189.9v8.812h.021A2.27,2.27,0,0,0,190.134,98.47Zm6.286-15.74,29.059,3.892a.86.86,0,0,1,.5.228v6.478c-.081-.017-.155-.047-.239-.058l-29.154-3.9c-.056-.008-.112-.007-.168-.012Zm-.3,8.605a1.519,1.519,0,0,1,.2.014l29.154,3.9a.764.764,0,0,1,.6.327.284.284,0,0,1-.015.284l-3.19,5.557a1.2,1.2,0,0,1-.991.408,1.59,1.59,0,0,1-.2-.012l-29.154-3.9a.762.762,0,0,1-.6-.327.284.284,0,0,1,.015-.284l3.191-5.559A1.135,1.135,0,0,1,196.121,91.335ZM191.9,88.97l.031-.015a.284.284,0,0,1,.015-.284l2.477-4.314v5.417a2.658,2.658,0,0,0-1.02.974l-1.5,2.617Z" transform="translate(-189.897 -80.704)" fill="#161616"/>
      </g>
      <g id="Group_171" data-name="Group 171" transform="translate(1567 164)" opacity="0.1">
        <path id="Path_386-7" data-name="Path 386" d="M221.344,101.747c.084.011.158.041.239.058V95.327a.86.86,0,0,0-.5-.228l-29.059-3.892v6.624c.056,0,.112,0,.168.012Z" transform="translate(-185.499 -89.181)" fill="#d3be00"/>
        <path id="Path_387-7" data-name="Path 387" d="M226.106,96.587V91.17l-2.477,4.314a.284.284,0,0,0-.015.284l-.031.015v4.4l1.5-2.617A2.658,2.658,0,0,1,226.106,96.587Z" transform="translate(-221.583 -87.517)" fill="#d3be00"/>
        <path id="Path_388-7" data-name="Path 388" d="M191.919,88.957a.762.762,0,0,0,.6.327l29.154,3.9a1.59,1.59,0,0,0,.2.012,1.2,1.2,0,0,0,.991-.408l3.19-5.557a.284.284,0,0,0,.015-.284.764.764,0,0,0-.6-.327l-29.154-3.9a1.519,1.519,0,0,0-.2-.014,1.135,1.135,0,0,0-.987.408l-3.191,5.559A.284.284,0,0,0,191.919,88.957Z" transform="translate(-189.888 -72.075)" fill="#ffed08"/>
        <path id="Path_389-7" data-name="Path 389" d="M190.134,98.47a2.684,2.684,0,0,0,2.136,1.425l29.162,3.906a3.179,3.179,0,0,0,3.18-1.383L227.8,96.86a2.253,2.253,0,0,0,.178-1.871V87.813a2.232,2.232,0,0,0,0-1.455v-.032h-.012a2.139,2.139,0,0,0-.091-.262,2.7,2.7,0,0,0-2.136-1.425l-29.154-3.9a3.639,3.639,0,0,0-.467-.031,3.082,3.082,0,0,0-2.721,1.413l-3.191,5.558a2.29,2.29,0,0,0-.307,1.139H189.9v8.812h.021A2.27,2.27,0,0,0,190.134,98.47Zm6.286-15.74,29.059,3.892a.86.86,0,0,1,.5.228v6.478c-.081-.017-.155-.047-.239-.058l-29.154-3.9c-.056-.008-.112-.007-.168-.012Zm-.3,8.605a1.519,1.519,0,0,1,.2.014l29.154,3.9a.764.764,0,0,1,.6.327.284.284,0,0,1-.015.284l-3.19,5.557a1.2,1.2,0,0,1-.991.408,1.59,1.59,0,0,1-.2-.012l-29.154-3.9a.762.762,0,0,1-.6-.327.284.284,0,0,1,.015-.284l3.191-5.559A1.135,1.135,0,0,1,196.121,91.335ZM191.9,88.97l.031-.015a.284.284,0,0,1,.015-.284l2.477-4.314v5.417a2.658,2.658,0,0,0-1.02.974l-1.5,2.617Z" transform="translate(-189.897 -80.704)" fill="#161616"/>
      </g>
      <g id="Group_172" data-name="Group 172" transform="translate(1761 309)" opacity="0.1">
        <path id="Path_386-8" data-name="Path 386" d="M221.344,91.265c.084-.011.158-.041.239-.058v6.478a.86.86,0,0,1-.5.228l-29.059,3.892V95.181c.056,0,.112,0,.168-.012Z" transform="translate(-185.499 -80.704)" fill="#d3be00"/>
        <path id="Path_387-8" data-name="Path 387" d="M226.106,94.761v5.417l-2.477-4.314a.284.284,0,0,1-.015-.284l-.031-.015v-4.4l1.5,2.617A2.658,2.658,0,0,0,226.106,94.761Z" transform="translate(-221.583 -80.704)" fill="#d3be00"/>
        <path id="Path_388-8" data-name="Path 388" d="M191.919,86.949a.762.762,0,0,1,.6-.327l29.154-3.9a1.59,1.59,0,0,1,.2-.012,1.2,1.2,0,0,1,.991.408l3.19,5.557a.284.284,0,0,1,.015.284.764.764,0,0,1-.6.327l-29.154,3.9a1.519,1.519,0,0,1-.2.014,1.135,1.135,0,0,1-.987-.408l-3.191-5.559A.284.284,0,0,1,191.919,86.949Z" transform="translate(-189.888 -80.704)" fill="#ffed08"/>
        <path id="Path_389-8" data-name="Path 389" d="M190.134,86.065a2.684,2.684,0,0,1,2.136-1.425l29.162-3.906a3.179,3.179,0,0,1,3.18,1.383l3.191,5.558a2.253,2.253,0,0,1,.178,1.871v7.176a2.232,2.232,0,0,1,0,1.455v.032h-.012a2.139,2.139,0,0,1-.091.262,2.7,2.7,0,0,1-2.136,1.425l-29.154,3.9a3.639,3.639,0,0,1-.467.031,3.082,3.082,0,0,1-2.721-1.413l-3.191-5.558a2.29,2.29,0,0,1-.307-1.139H189.9V86.909h.021A2.27,2.27,0,0,1,190.134,86.065Zm6.286,15.74,29.059-3.892a.86.86,0,0,0,.5-.228V91.207c-.081.017-.155.047-.239.058l-29.154,3.9c-.056.008-.112.007-.168.012Zm-.3-8.605a1.519,1.519,0,0,0,.2-.014l29.154-3.9a.764.764,0,0,0,.6-.327.284.284,0,0,0-.015-.284l-3.19-5.557a1.2,1.2,0,0,0-.991-.408,1.59,1.59,0,0,0-.2.012l-29.154,3.9a.762.762,0,0,0-.6.327.284.284,0,0,0,.015.284l3.191,5.559A1.135,1.135,0,0,0,196.121,93.2ZM191.9,95.565l.031.015a.284.284,0,0,0,.015.284l2.477,4.314V94.761a2.658,2.658,0,0,1-1.02-.974l-1.5-2.617Z" transform="translate(-189.897 -80.704)" fill="#161616"/>
      </g>
      <g id="Group_173" data-name="Group 173" transform="translate(1648.103 519.296)" opacity="0.1">
        <path id="Path_386-9" data-name="Path 386" d="M192.261,91.265c-.084-.011-.158-.041-.239-.058v6.478a.86.86,0,0,0,.5.228l29.059,3.892V95.181c-.056,0-.112,0-.168-.012Z" fill="#d3be00"/>
        <path id="Path_387-9" data-name="Path 387" d="M223.583,94.761v5.417l2.477-4.314a.284.284,0,0,0,.015-.284l.031-.015v-4.4l-1.5,2.617A2.658,2.658,0,0,1,223.583,94.761Z" fill="#d3be00"/>
        <path id="Path_388-9" data-name="Path 388" d="M226.075,86.949a.762.762,0,0,0-.6-.327l-29.154-3.9a1.59,1.59,0,0,0-.2-.012,1.2,1.2,0,0,0-.991.408l-3.19,5.557a.284.284,0,0,0-.015.284.764.764,0,0,0,.6.327l29.154,3.9a1.519,1.519,0,0,0,.2.014,1.135,1.135,0,0,0,.987-.408l3.191-5.559A.284.284,0,0,0,226.075,86.949Z" fill="#ffed08"/>
        <path id="Path_389-9" data-name="Path 389" d="M227.869,86.065a2.684,2.684,0,0,0-2.136-1.425l-29.162-3.906a3.179,3.179,0,0,0-3.18,1.383L190.2,87.675a2.253,2.253,0,0,0-.178,1.871v7.176a2.232,2.232,0,0,0,0,1.455v.032h.012a2.139,2.139,0,0,0,.091.262,2.7,2.7,0,0,0,2.136,1.425l29.154,3.9a3.639,3.639,0,0,0,.467.031,3.082,3.082,0,0,0,2.721-1.413l3.191-5.558a2.29,2.29,0,0,0,.307-1.139h.005V86.909h-.021A2.27,2.27,0,0,0,227.869,86.065Zm-6.286,15.74-29.059-3.892a.86.86,0,0,1-.5-.228V91.207c.081.017.155.047.239.058l29.154,3.9c.056.008.112.007.168.012Zm.3-8.605a1.519,1.519,0,0,1-.2-.014l-29.154-3.9a.764.764,0,0,1-.6-.327.284.284,0,0,1,.015-.284l3.19-5.557a1.2,1.2,0,0,1,.991-.408,1.59,1.59,0,0,1,.2.012l29.154,3.9a.762.762,0,0,1,.6.327.284.284,0,0,1-.015.284l-3.191,5.559A1.135,1.135,0,0,1,221.882,93.2Zm4.224,2.365-.031.015a.284.284,0,0,1-.015.284l-2.477,4.314V94.761a2.658,2.658,0,0,0,1.02-.974l1.5-2.617Z" fill="#161616"/>
      </g>
      <g id="Group_174" data-name="Group 174" transform="matrix(0.951, 0.309, -0.309, 0.951, 1809.508, 833.662)" opacity="0.1">
        <path id="Path_386-10" data-name="Path 386" d="M221.344,91.265c.084-.011.158-.041.239-.058v6.478a.86.86,0,0,1-.5.228L192.022,101.8V95.181c.056,0,.112,0,.168-.012Z" transform="translate(-185.499 -80.704)" fill="#d3be00"/>
        <path id="Path_387-10" data-name="Path 387" d="M226.106,94.761v5.417l-2.477-4.314a.284.284,0,0,1-.015-.284l-.031-.015v-4.4l1.5,2.617A2.658,2.658,0,0,0,226.106,94.761Z" transform="translate(-221.583 -80.704)" fill="#d3be00"/>
        <path id="Path_388-10" data-name="Path 388" d="M191.919,86.949a.762.762,0,0,1,.6-.327l29.154-3.9a1.59,1.59,0,0,1,.2-.012,1.2,1.2,0,0,1,.991.408l3.19,5.557a.284.284,0,0,1,.015.284.764.764,0,0,1-.6.327l-29.154,3.9a1.519,1.519,0,0,1-.2.014,1.135,1.135,0,0,1-.987-.408l-3.191-5.559A.284.284,0,0,1,191.919,86.949Z" transform="translate(-189.888 -80.704)" fill="#ffed08"/>
        <path id="Path_389-10" data-name="Path 389" d="M190.134,86.065a2.684,2.684,0,0,1,2.136-1.425l29.162-3.906a3.179,3.179,0,0,1,3.18,1.383l3.191,5.558a2.253,2.253,0,0,1,.178,1.871v7.176a2.232,2.232,0,0,1,0,1.455v.032h-.012a2.139,2.139,0,0,1-.091.262,2.7,2.7,0,0,1-2.136,1.425l-29.154,3.9a3.639,3.639,0,0,1-.467.031,3.082,3.082,0,0,1-2.721-1.413l-3.191-5.558a2.29,2.29,0,0,1-.307-1.139H189.9V86.909h.021A2.27,2.27,0,0,1,190.134,86.065Zm6.286,15.74,29.059-3.892a.86.86,0,0,0,.5-.228V91.207c-.081.017-.155.047-.239.058l-29.154,3.9c-.056.008-.112.007-.168.012Zm-.3-8.6a1.519,1.519,0,0,0,.2-.014l29.154-3.9a.764.764,0,0,0,.6-.327.284.284,0,0,0-.015-.284l-3.19-5.557a1.2,1.2,0,0,0-.991-.408,1.59,1.59,0,0,0-.2.012l-29.154,3.9a.762.762,0,0,0-.6.327.284.284,0,0,0,.015.284l3.191,5.559A1.135,1.135,0,0,0,196.121,93.2ZM191.9,95.565l.031.015a.284.284,0,0,0,.015.284l2.477,4.314V94.761a2.658,2.658,0,0,1-1.02-.974l-1.5-2.617Z" transform="translate(-189.897 -80.704)" fill="#161616"/>
      </g>
      <g id="Group_175" data-name="Group 175" transform="translate(1413 964)" opacity="0.1">
        <path id="Path_386-11" data-name="Path 386" d="M221.344,91.265c.084-.011.158-.041.239-.058v6.478a.86.86,0,0,1-.5.228L192.022,101.8V95.181c.056,0,.112,0,.168-.012Z" transform="translate(-185.499 -80.704)" fill="#d3be00"/>
        <path id="Path_387-11" data-name="Path 387" d="M226.106,94.761v5.417l-2.477-4.314a.284.284,0,0,1-.015-.284l-.031-.015v-4.4l1.5,2.617A2.658,2.658,0,0,0,226.106,94.761Z" transform="translate(-221.583 -80.704)" fill="#d3be00"/>
        <path id="Path_388-11" data-name="Path 388" d="M191.919,86.949a.762.762,0,0,1,.6-.327l29.154-3.9a1.59,1.59,0,0,1,.2-.012,1.2,1.2,0,0,1,.991.408l3.19,5.557a.284.284,0,0,1,.015.284.764.764,0,0,1-.6.327l-29.154,3.9a1.519,1.519,0,0,1-.2.014,1.135,1.135,0,0,1-.987-.408l-3.191-5.559A.284.284,0,0,1,191.919,86.949Z" transform="translate(-189.888 -80.704)" fill="#ffed08"/>
        <path id="Path_389-11" data-name="Path 389" d="M190.134,86.065a2.684,2.684,0,0,1,2.136-1.425l29.162-3.906a3.179,3.179,0,0,1,3.18,1.383l3.191,5.558a2.253,2.253,0,0,1,.178,1.871v7.176a2.232,2.232,0,0,1,0,1.455v.032h-.012a2.139,2.139,0,0,1-.091.262,2.7,2.7,0,0,1-2.136,1.425l-29.154,3.9a3.639,3.639,0,0,1-.467.031,3.082,3.082,0,0,1-2.721-1.413l-3.191-5.558a2.29,2.29,0,0,1-.307-1.139H189.9V86.909h.021A2.27,2.27,0,0,1,190.134,86.065Zm6.286,15.74,29.059-3.892a.86.86,0,0,0,.5-.228V91.207c-.081.017-.155.047-.239.058l-29.154,3.9c-.056.008-.112.007-.168.012Zm-.3-8.6a1.519,1.519,0,0,0,.2-.014l29.154-3.9a.764.764,0,0,0,.6-.327.284.284,0,0,0-.015-.284l-3.19-5.557a1.2,1.2,0,0,0-.991-.408,1.59,1.59,0,0,0-.2.012l-29.154,3.9a.762.762,0,0,0-.6.327.284.284,0,0,0,.015.284l3.191,5.559A1.135,1.135,0,0,0,196.121,93.2ZM191.9,95.565l.031.015a.284.284,0,0,0,.015.284l2.477,4.314V94.761a2.658,2.658,0,0,1-1.02-.974l-1.5-2.617Z" transform="translate(-189.897 -80.704)" fill="#161616"/>
      </g>
      <g id="Group_176" data-name="Group 176" transform="translate(976 367)" opacity="0.1">
        <path id="Path_386-12" data-name="Path 386" d="M192.261,101.747c-.084.011-.158.041-.239.058V95.327a.86.86,0,0,1,.5-.228l29.059-3.892v6.624c-.056,0-.112,0-.168.012Z" transform="translate(-189.897 -89.181)" fill="#d3be00"/>
        <path id="Path_387-12" data-name="Path 387" d="M223.583,96.587V91.17l2.477,4.314a.284.284,0,0,1,.015.284l.031.015v4.4l-1.5-2.617A2.658,2.658,0,0,0,223.583,96.587Z" transform="translate(-189.897 -87.517)" fill="#d3be00"/>
        <path id="Path_388-12" data-name="Path 388" d="M226.075,88.957a.762.762,0,0,1-.6.327l-29.154,3.9a1.59,1.59,0,0,1-.2.012,1.2,1.2,0,0,1-.991-.408l-3.19-5.557a.284.284,0,0,1-.015-.284.764.764,0,0,1,.6-.327l29.154-3.9a1.519,1.519,0,0,1,.2-.014,1.135,1.135,0,0,1,.987.408l3.191,5.559A.284.284,0,0,1,226.075,88.957Z" transform="translate(-189.897 -72.075)" fill="#ffed08"/>
        <path id="Path_389-12" data-name="Path 389" d="M227.869,98.47a2.684,2.684,0,0,1-2.136,1.425L196.571,103.8a3.179,3.179,0,0,1-3.18-1.383L190.2,96.86a2.253,2.253,0,0,1-.178-1.871V87.813a2.232,2.232,0,0,1,0-1.455v-.032h.012a2.139,2.139,0,0,1,.091-.262,2.7,2.7,0,0,1,2.136-1.425l29.154-3.9a3.639,3.639,0,0,1,.467-.031,3.082,3.082,0,0,1,2.721,1.413l3.191,5.558a2.29,2.29,0,0,1,.307,1.139h.005v8.812h-.021A2.27,2.27,0,0,1,227.869,98.47Zm-6.286-15.74-29.059,3.892a.86.86,0,0,0-.5.228v6.478c.081-.017.155-.047.239-.058l29.154-3.9c.056-.008.112-.007.168-.012Zm.3,8.605a1.519,1.519,0,0,0-.2.014l-29.154,3.9a.764.764,0,0,0-.6.327.284.284,0,0,0,.015.284l3.19,5.557a1.2,1.2,0,0,0,.991.408,1.59,1.59,0,0,0,.2-.012l29.154-3.9a.762.762,0,0,0,.6-.327.284.284,0,0,0-.015-.284l-3.191-5.559A1.135,1.135,0,0,0,221.882,91.335Zm4.224-2.365-.031-.015a.284.284,0,0,0-.015-.284l-2.477-4.314v5.417a2.658,2.658,0,0,1,1.02.974l1.5,2.617Z" transform="translate(-189.897 -80.704)" fill="#161616"/>
      </g>
      <g id="Group_177" data-name="Group 177" transform="translate(537 921)" opacity="0.1">
        <path id="Path_386-13" data-name="Path 386" d="M221.344,91.265c.084-.011.158-.041.239-.058v6.478a.86.86,0,0,1-.5.228L192.022,101.8V95.181c.056,0,.112,0,.168-.012Z" transform="translate(-185.499 -80.704)" fill="#d3be00"/>
        <path id="Path_387-13" data-name="Path 387" d="M226.106,94.761v5.417l-2.477-4.314a.284.284,0,0,1-.015-.284l-.031-.015v-4.4l1.5,2.617A2.658,2.658,0,0,0,226.106,94.761Z" transform="translate(-221.583 -80.704)" fill="#d3be00"/>
        <path id="Path_388-13" data-name="Path 388" d="M191.919,86.949a.762.762,0,0,1,.6-.327l29.154-3.9a1.59,1.59,0,0,1,.2-.012,1.2,1.2,0,0,1,.991.408l3.19,5.557a.284.284,0,0,1,.015.284.764.764,0,0,1-.6.327l-29.154,3.9a1.519,1.519,0,0,1-.2.014,1.135,1.135,0,0,1-.987-.408l-3.191-5.559A.284.284,0,0,1,191.919,86.949Z" transform="translate(-189.888 -80.704)" fill="#ffed08"/>
        <path id="Path_389-13" data-name="Path 389" d="M190.134,86.065a2.684,2.684,0,0,1,2.136-1.425l29.162-3.906a3.179,3.179,0,0,1,3.18,1.383l3.191,5.558a2.253,2.253,0,0,1,.178,1.871v7.176a2.232,2.232,0,0,1,0,1.455v.032h-.012a2.139,2.139,0,0,1-.091.262,2.7,2.7,0,0,1-2.136,1.425l-29.154,3.9a3.639,3.639,0,0,1-.467.031,3.082,3.082,0,0,1-2.721-1.413l-3.191-5.558a2.29,2.29,0,0,1-.307-1.139H189.9V86.909h.021A2.27,2.27,0,0,1,190.134,86.065Zm6.286,15.74,29.059-3.892a.86.86,0,0,0,.5-.228V91.207c-.081.017-.155.047-.239.058l-29.154,3.9c-.056.008-.112.007-.168.012Zm-.3-8.6a1.519,1.519,0,0,0,.2-.014l29.154-3.9a.764.764,0,0,0,.6-.327.284.284,0,0,0-.015-.284l-3.19-5.557a1.2,1.2,0,0,0-.991-.408,1.59,1.59,0,0,0-.2.012l-29.154,3.9a.762.762,0,0,0-.6.327.284.284,0,0,0,.015.284l3.191,5.559A1.135,1.135,0,0,0,196.121,93.2ZM191.9,95.565l.031.015a.284.284,0,0,0,.015.284l2.477,4.314V94.761a2.658,2.658,0,0,1-1.02-.974l-1.5-2.617Z" transform="translate(-189.897 -80.704)" fill="#161616"/>
      </g>
      <g id="Group_1345" data-name="Group 1345" transform="translate(309 961)" opacity="0.1">
        <path id="Path_386-14" data-name="Path 386" d="M221.344,91.265c.084-.011.158-.041.239-.058v6.478a.86.86,0,0,1-.5.228L192.022,101.8V95.181c.056,0,.112,0,.168-.012Z" transform="translate(-185.499 -80.704)" fill="#d3be00"/>
        <path id="Path_387-14" data-name="Path 387" d="M226.106,94.761v5.417l-2.477-4.314a.284.284,0,0,1-.015-.284l-.031-.015v-4.4l1.5,2.617A2.658,2.658,0,0,0,226.106,94.761Z" transform="translate(-221.583 -80.704)" fill="#d3be00"/>
        <path id="Path_388-14" data-name="Path 388" d="M191.919,86.949a.762.762,0,0,1,.6-.327l29.154-3.9a1.59,1.59,0,0,1,.2-.012,1.2,1.2,0,0,1,.991.408l3.19,5.557a.284.284,0,0,1,.015.284.764.764,0,0,1-.6.327l-29.154,3.9a1.519,1.519,0,0,1-.2.014,1.135,1.135,0,0,1-.987-.408l-3.191-5.559A.284.284,0,0,1,191.919,86.949Z" transform="translate(-189.888 -80.704)" fill="#ffed08"/>
        <path id="Path_389-14" data-name="Path 389" d="M190.134,86.065a2.684,2.684,0,0,1,2.136-1.425l29.162-3.906a3.179,3.179,0,0,1,3.18,1.383l3.191,5.558a2.253,2.253,0,0,1,.178,1.871v7.176a2.232,2.232,0,0,1,0,1.455v.032h-.012a2.139,2.139,0,0,1-.091.262,2.7,2.7,0,0,1-2.136,1.425l-29.154,3.9a3.639,3.639,0,0,1-.467.031,3.082,3.082,0,0,1-2.721-1.413l-3.191-5.558a2.29,2.29,0,0,1-.307-1.139H189.9V86.909h.021A2.27,2.27,0,0,1,190.134,86.065Zm6.286,15.74,29.059-3.892a.86.86,0,0,0,.5-.228V91.207c-.081.017-.155.047-.239.058l-29.154,3.9c-.056.008-.112.007-.168.012Zm-.3-8.6a1.519,1.519,0,0,0,.2-.014l29.154-3.9a.764.764,0,0,0,.6-.327.284.284,0,0,0-.015-.284l-3.19-5.557a1.2,1.2,0,0,0-.991-.408,1.59,1.59,0,0,0-.2.012l-29.154,3.9a.762.762,0,0,0-.6.327.284.284,0,0,0,.015.284l3.191,5.559A1.135,1.135,0,0,0,196.121,93.2ZM191.9,95.565l.031.015a.284.284,0,0,0,.015.284l2.477,4.314V94.761a2.658,2.658,0,0,1-1.02-.974l-1.5-2.617Z" transform="translate(-189.897 -80.704)" fill="#161616"/>
      </g>
    </g>
  </g>
</svg>
