<svg id="FT_APP_STORE" xmlns="http://www.w3.org/2000/svg" width="160.059" height="51.067" viewBox="0 0 160.059 51.067">
  <rect id="Rectangle_324" data-name="Rectangle 324" width="160.059" height="51.067" rx="6.467" fill="#fff"/>
  <g id="Group_1352" data-name="Group 1352" transform="translate(16.147 7.294)">
    <g id="Group_1351" data-name="Group 1351">
      <g id="Group_1350" data-name="Group 1350">
        <path id="Path_2112" data-name="Path 2112" d="M236.767-143.781h2.889a.344.344,0,0,0,.343-.338.344.344,0,0,0-.343-.345h-2.889a.346.346,0,0,0-.341.345A.346.346,0,0,0,236.767-143.781Zm1.444,25.319a1.506,1.506,0,0,0-1.5,1.506,1.5,1.5,0,0,0,1.5,1.5,1.5,1.5,0,0,0,1.5-1.5A1.505,1.505,0,0,0,238.211-118.462Zm-7.371-1.288h14.744v-21.808H230.84Zm47.275-7.161a2.937,2.937,0,0,0-1.9.694,3.268,3.268,0,0,0-1.116,1.831,3.77,3.77,0,0,0-.129.867v2.124a3.392,3.392,0,0,0,.852,2.352,2.842,2.842,0,0,0,2.216.954,2.9,2.9,0,0,0,2.5-1.233,5.44,5.44,0,0,0,.89-3.258,5.242,5.242,0,0,0-.837-3.067A2.923,2.923,0,0,0,278.116-126.911Zm51.709-.175a2.833,2.833,0,0,0-2.592,1.517,5.716,5.716,0,0,0-.764,3.057,5.631,5.631,0,0,0,.764,3.011,2.849,2.849,0,0,0,2.571,1.515,2.819,2.819,0,0,0,2.54-1.547,5.628,5.628,0,0,0,.792-3.029,5.709,5.709,0,0,0-.759-3.007A2.817,2.817,0,0,0,329.824-127.087Zm-37.69.175a2.927,2.927,0,0,0-1.9.694,3.267,3.267,0,0,0-1.119,1.831,3.717,3.717,0,0,0-.128.867v2.124a3.4,3.4,0,0,0,.852,2.352,2.843,2.843,0,0,0,2.214.954,2.9,2.9,0,0,0,2.5-1.233,5.421,5.421,0,0,0,.9-3.258,5.257,5.257,0,0,0-.841-3.067A2.926,2.926,0,0,0,292.135-126.911Zm-29.293-4.563h-.051c-.177.752-.453,1.861-.843,3.333l-1.47,4.62h4.75l-1.488-4.62C263.578-128.615,263.276-129.727,262.842-131.474Zm88.483,4.248a2.719,2.719,0,0,0-2.257,1.16,4.2,4.2,0,0,0-.839,2.2h5.905a3.888,3.888,0,0,0-.548-2.177A2.494,2.494,0,0,0,351.324-127.226Zm-75.981-12.589a1.15,1.15,0,0,0,.039-.364v-.9c-1.174-.013-2.292.229-2.292,1.227a.871.871,0,0,0,.944.945A1.364,1.364,0,0,0,275.343-139.815Zm-15.469-4.128c-.175-.554-.324-1.175-.458-1.7h-.029c-.134.526-.282,1.16-.432,1.7l-.7,2.239h2.333Zm94.068-.648c2.132,0,2.834,1.754,2.834,3.2a4.086,4.086,0,0,1-.055.7h-4.4a1.78,1.78,0,0,0,2.024,1.7,5.256,5.256,0,0,0,1.82-.3l.244,1.134a5.906,5.906,0,0,1-2.294.418,3.108,3.108,0,0,1-3.387-3.319A3.255,3.255,0,0,1,353.942-144.591Zm-26.334.149.081.985h.041a2.41,2.41,0,0,1,2.1-1.133c1.149,0,2.336.742,2.336,2.82v3.9H330.51v-3.711c0-.944-.353-1.659-1.255-1.659a1.4,1.4,0,0,0-1.3.971,1.55,1.55,0,0,0-.081.526v3.872h-1.659v-4.614c0-.757-.028-1.39-.055-1.957Zm-17.428-.149c2.132,0,2.834,1.754,2.834,3.2a4.01,4.01,0,0,1-.054.7h-4.4a1.777,1.777,0,0,0,2.022,1.7,5.278,5.278,0,0,0,1.823-.3l.242,1.134a5.9,5.9,0,0,1-2.293.418,3.108,3.108,0,0,1-3.386-3.319A3.253,3.253,0,0,1,310.18-144.591Zm-6.8-2.86h1.658v9.579h-1.658Zm-13.161,4.033a3.488,3.488,0,0,0-1.768.486l-.324-1.08a4.736,4.736,0,0,1,2.375-.58,2.462,2.462,0,0,1,2.712,2.779v2.362a8.908,8.908,0,0,0,.106,1.578h-1.5l-.122-.728h-.039a2.406,2.406,0,0,1-1.945.876,1.95,1.95,0,0,1-2.064-1.956c0-1.647,1.47-2.5,3.9-2.483v-.108C291.554-142.7,291.378-143.418,290.219-143.418Zm-9.813-3.764a.887.887,0,0,1,.931.9.888.888,0,0,1-.946.89.878.878,0,0,1-.916-.89A.885.885,0,0,1,280.406-147.182Zm.823,2.739v6.571h-1.66v-6.571ZM258.4-146.966h2.118l2.956,9.094h-1.794l-.822-2.577h-2.875l-.783,2.577h-1.714Zm-11.05,30.155a2.909,2.909,0,0,1-2.908,2.9H231.982a2.909,2.909,0,0,1-2.91-2.9V-144.5a2.912,2.912,0,0,1,2.91-2.9h12.462a2.912,2.912,0,0,1,2.908,2.9Zm20.031.665-1.651-5.193h-5.75l-1.577,5.193h-2.936l5.689-17.691h3.521l5.726,17.691Zm.644-21.726h-1.633l-2.442-6.571h1.794l1.066,3.333c.189.58.324,1.106.446,1.646h.04c.12-.54.27-1.053.444-1.646l1.053-3.333h1.741Zm3.417-1.808c0-1.647,1.47-2.5,3.9-2.483v-.108c0-.431-.176-1.147-1.337-1.147a3.48,3.48,0,0,0-1.766.486l-.324-1.08a4.736,4.736,0,0,1,2.375-.58A2.462,2.462,0,0,1,277-141.812v2.362a8.914,8.914,0,0,0,.106,1.578h-1.5l-.12-.728h-.041a2.4,2.4,0,0,1-1.942.876A1.95,1.95,0,0,1,271.444-139.68Zm11.1,22.147a5.2,5.2,0,0,1-3.932,1.675,3.926,3.926,0,0,1-3.642-1.814v6.7h-2.833v-13.739q0-2.047-.108-4.193h2.493l.157,2.021h.049a4.739,4.739,0,0,1,4.31-2.278,4.737,4.737,0,0,1,3.77,1.783,7.047,7.047,0,0,1,1.508,4.7A7.221,7.221,0,0,1,282.543-117.533Zm2.95-20.339h-1.659v-9.579h1.659Zm11.065,20.339a5.2,5.2,0,0,1-3.933,1.675,3.926,3.926,0,0,1-3.639-1.814v6.7h-2.836v-13.739q0-2.047-.105-4.193h2.488l.165,2.021h.049a4.737,4.737,0,0,1,4.306-2.278,4.722,4.722,0,0,1,3.767,1.783,7.013,7.013,0,0,1,1.511,4.7A7.217,7.217,0,0,1,296.558-117.533Zm1.947-20.191a2.26,2.26,0,0,1-2.078-1.133H296.4l-.081.985H294.9c.026-.445.054-1.173.054-1.849v-7.73h1.658v3.912h.028a2.377,2.377,0,0,1,2.1-1.052c1.605,0,2.752,1.336,2.739,3.332C301.486-138.9,299.99-137.723,298.505-137.723Zm14.269,20.29a6.981,6.981,0,0,1-4.821,1.547,8.446,8.446,0,0,1-4.585-1.1l.657-2.362a7.916,7.916,0,0,0,4.091,1.1,3.894,3.894,0,0,0,2.5-.72,2.358,2.358,0,0,0,.89-1.937,2.479,2.479,0,0,0-.732-1.8,6.942,6.942,0,0,0-2.441-1.365q-4.642-1.728-4.645-5.062a4.465,4.465,0,0,1,1.637-3.573,6.506,6.506,0,0,1,4.345-1.39,8.655,8.655,0,0,1,4.018.838l-.716,2.31a7.014,7.014,0,0,0-3.394-.814,3.52,3.52,0,0,0-2.347.732,2.124,2.124,0,0,0-.708,1.606,2.19,2.19,0,0,0,.813,1.737,9.319,9.319,0,0,0,2.569,1.36,8.635,8.635,0,0,1,3.364,2.155,4.505,4.505,0,0,1,1.075,3.067A4.729,4.729,0,0,1,312.774-117.434Zm9.992-9.346h-3.127v6.2c0,1.573.554,2.354,1.657,2.354a5.168,5.168,0,0,0,1.259-.124l.081,2.147a6.4,6.4,0,0,1-2.2.315,3.377,3.377,0,0,1-2.623-1.023,4.972,4.972,0,0,1-.949-3.437v-6.435H315V-128.9h1.861v-2.335l2.78-.839v3.174h3.127Zm-1.6-10.944a3.177,3.177,0,0,1-3.292-3.386,3.244,3.244,0,0,1,3.4-3.482,3.153,3.153,0,0,1,3.266,3.374A3.255,3.255,0,0,1,321.169-137.723ZM334.4-117.8a6.015,6.015,0,0,1-4.671,1.938,5.71,5.71,0,0,1-4.482-1.863,6.787,6.787,0,0,1-1.663-4.7,6.936,6.936,0,0,1,1.717-4.855,5.934,5.934,0,0,1,4.63-1.885,5.808,5.808,0,0,1,4.52,1.863,6.716,6.716,0,0,1,1.625,4.668A7,7,0,0,1,334.4-117.8Zm2.93-26.647h.931v-1.228l1.633-.458v1.687h1.576v1.241h-1.576v2.9c0,.81.215,1.215.848,1.215a2.2,2.2,0,0,0,.648-.067l.029,1.254a3.662,3.662,0,0,1-1.2.176,1.9,1.9,0,0,1-1.432-.54,2.588,2.588,0,0,1-.525-1.848V-143.2h-.931Zm7.277,18.032a5.03,5.03,0,0,0-.894-.072,2.685,2.685,0,0,0-2.309,1.126,4.217,4.217,0,0,0-.708,2.517v6.693h-2.836v-8.745q0-2.194-.076-4.013h2.467l.1,2.442h.079a4.3,4.3,0,0,1,1.416-2.018,3.409,3.409,0,0,1,2.05-.681,4.465,4.465,0,0,1,.7.048Zm.429-15.4v3.94h-1.657v-9.579h1.657v3.9h.028a2.187,2.187,0,0,1,.823-.742,2.34,2.34,0,0,1,1.148-.3c1.12,0,2.295.742,2.295,2.847v3.872h-1.662v-3.7c0-.945-.35-1.673-1.268-1.673a1.383,1.383,0,0,0-1.295.931A1.5,1.5,0,0,0,345.033-141.812Zm11.7,19.975h-8.5a3.685,3.685,0,0,0,1.234,2.882,4.2,4.2,0,0,0,2.782.895,9.273,9.273,0,0,0,3.439-.609l.445,1.972a10.593,10.593,0,0,1-4.281.785,6.188,6.188,0,0,1-4.655-1.741,6.447,6.447,0,0,1-1.7-4.684,7.349,7.349,0,0,1,1.576-4.809,5.449,5.449,0,0,1,4.463-2.045,4.745,4.745,0,0,1,4.175,2.045,6.926,6.926,0,0,1,1.128,4.022A6.947,6.947,0,0,1,356.733-121.837ZM298.142-143.3a1.542,1.542,0,0,0-1.471,1.214,1.929,1.929,0,0,0-.056.432v1.065a1.849,1.849,0,0,0,.041.392,1.518,1.518,0,0,0,1.47,1.159c1.04,0,1.674-.823,1.674-2.158C299.8-142.351,299.246-143.3,298.142-143.3Zm11.946-.162a1.622,1.622,0,0,0-1.525,1.606h2.886A1.414,1.414,0,0,0,310.087-143.458Zm11.15.067c-1.175,0-1.647,1.147-1.647,2.24,0,1.269.633,2.227,1.633,2.227.944,0,1.605-.918,1.605-2.254C322.829-142.2,322.37-143.391,321.237-143.391ZM289.3-139.855a.871.871,0,0,0,.944.945,1.363,1.363,0,0,0,1.309-.9,1.149,1.149,0,0,0,.039-.364v-.9C290.421-141.1,289.3-140.853,289.3-139.855Zm64.545-3.6a1.624,1.624,0,0,0-1.524,1.606h2.887A1.413,1.413,0,0,0,353.846-143.458Z" transform="translate(-229.072 147.451)" fill="#232323"/>
      </g>
    </g>
  </g>
</svg>
