<svg xmlns="http://www.w3.org/2000/svg" width="41.403" height="41.403" viewBox="0 0 41.403 41.403">
  <g id="ft_facebook" transform="translate(-288 -3588)">
    <path id="Path_5047" data-name="Path 5047" d="M142.57,190.155V157.89l-2.07,2.07v32.265Z" transform="translate(149.57 3433.644)" fill="#4047db"/>
    <path id="Path_5048" data-name="Path 5048" d="M143.984,190.476l-2.07,2.07h32.265l2.07-2.07Z" transform="translate(149.62 3434.787)" fill="#4047db"/>
    <path id="Path_5049" data-name="Path 5049" d="M144.5,189.6h33.122V156.476H144.5Zm12.58-19.382A.215.215,0,0,1,157.3,170h1.539v-2.446a3.088,3.088,0,0,1,3.087-3.088h2.9a.216.216,0,0,1,.216.216v2.537a.216.216,0,0,1-.216.216h-1.718a.764.764,0,0,0-.765.765V170h2.446a.215.215,0,0,1,.215.235l-.214,2.537a.215.215,0,0,1-.215.2h-2.232v8.424a.216.216,0,0,1-.215.214H159.05a.215.215,0,0,1-.215-.214v-8.424H157.3a.214.214,0,0,1-.215-.214Z" transform="translate(149.71 3433.594)" fill="#d70086"/>
    <path id="Path_5050" data-name="Path 5050" d="M178.868,154.476H143.675a1.048,1.048,0,0,0-.733.3L138.8,158.92a1.031,1.031,0,0,0-.3.732v35.192a1.042,1.042,0,0,0,1.035,1.035h35.192a1.035,1.035,0,0,0,.732-.3l4.139-4.139a1.053,1.053,0,0,0,.3-.733V155.511A1.034,1.034,0,0,0,178.868,154.476Z" transform="translate(149.5 3433.524)" fill="#1d1d1b"/>
    <rect id="Rectangle_565" data-name="Rectangle 565" width="33" height="33" transform="translate(294 3590)" fill="#1778f2"/>
    <path id="Path_5051" data-name="Path 5051" d="M142.57,157.89v32.265l-2.07,2.07V159.96Z" transform="translate(149.57 3433.644)" fill="#1778f2"/>
    <path id="Path_5052" data-name="Path 5052" d="M174.179,192.546H141.914l2.07-2.07h32.265Z" transform="translate(149.62 3434.787)" fill="#1778f2"/>
    <path id="Path_5053" data-name="Path 5053" d="M156.869,172.7h1.539v8.424a.215.215,0,0,0,.215.214H161.7a.216.216,0,0,0,.215-.214V172.7h2.232a.215.215,0,0,0,.215-.2l.214-2.537a.215.215,0,0,0-.215-.235h-2.446v-1.8a.764.764,0,0,1,.765-.765H164.4a.216.216,0,0,0,.216-.216v-2.537a.216.216,0,0,0-.216-.216h-2.9a3.088,3.088,0,0,0-3.087,3.088v2.446h-1.539a.215.215,0,0,0-.215.216v2.537A.214.214,0,0,0,156.869,172.7Z" transform="translate(150.137 3433.865)" fill="#fff"/>
  </g>
</svg>
