<svg id="ft_instagram" xmlns="http://www.w3.org/2000/svg" width="41.403" height="41.403" viewBox="0 0 41.403 41.403">
  <path id="Path_2069" data-name="Path 2069" d="M86.5,189.6h33.122V156.476H86.5Zm7.621-20.116a5.386,5.386,0,0,1,5.385-5.385h7.109A5.386,5.386,0,0,1,112,169.483v7.108a5.386,5.386,0,0,1-5.385,5.385H99.507a5.386,5.386,0,0,1-5.385-5.385Z" transform="translate(-80.29 -154.406)" fill="#d70086"/>
  <path id="Path_2070" data-name="Path 2070" d="M84.57,190.155V157.89l-2.07,2.07v32.265Z" transform="translate(-80.43 -154.356)" fill="#d70086"/>
  <path id="Path_2071" data-name="Path 2071" d="M99.191,179.975H106.3a3.7,3.7,0,0,0,3.7-3.7v-7.108a3.7,3.7,0,0,0-3.7-3.7H99.191a3.7,3.7,0,0,0-3.7,3.7v7.108A3.7,3.7,0,0,0,99.191,179.975Zm8.257-12.9a1.051,1.051,0,1,1-1.052,1.052A1.05,1.05,0,0,1,107.448,167.074Zm-4.672,1.347a4.416,4.416,0,1,1-4.415,4.416A4.421,4.421,0,0,1,102.776,168.421Z" transform="translate(-79.974 -154.09)" fill="#d70086"/>
  <path id="Path_2072" data-name="Path 2072" d="M102.625,175.511a2.828,2.828,0,1,0-2.828-2.828A2.83,2.83,0,0,0,102.625,175.511Z" transform="translate(-79.823 -153.937)" fill="#d70086"/>
  <path id="Path_2073" data-name="Path 2073" d="M85.984,190.476l-2.07,2.07h32.265l2.07-2.07Z" transform="translate(-80.38 -153.213)" fill="#d70086"/>
  <path id="Path_2077" data-name="Path 2077" d="M120.868,154.476H85.675a1.048,1.048,0,0,0-.733.3L80.8,158.92a1.031,1.031,0,0,0-.3.732v35.193a1.042,1.042,0,0,0,1.035,1.035h35.193a1.035,1.035,0,0,0,.732-.3l4.139-4.139a1.053,1.053,0,0,0,.3-.733V155.511A1.034,1.034,0,0,0,120.868,154.476Zm-1.035,35.193H86.71V156.546h33.122ZM84.64,158.01v32.264l-2.07,2.07V160.08Zm31.659,35.8H84.034l2.07-2.07h32.265Z" transform="translate(-80.5 -154.476)" fill="#1d1d1b"/>
  <path id="Path_2082" data-name="Path 2082" d="M99.248,181.718h7.109a5.386,5.386,0,0,0,5.385-5.385v-7.108a5.386,5.386,0,0,0-5.385-5.385H99.248a5.386,5.386,0,0,0-5.385,5.385v7.108A5.386,5.386,0,0,0,99.248,181.718Zm-3.7-12.493a3.7,3.7,0,0,1,3.7-3.7h7.109a3.7,3.7,0,0,1,3.7,3.7v7.108a3.7,3.7,0,0,1-3.7,3.7H99.248a3.7,3.7,0,0,1-3.7-3.7Z" transform="translate(-80.031 -154.148)" fill="#fff"/>
  <path id="Path_2083" data-name="Path 2083" d="M102.679,177.152a4.416,4.416,0,1,0-4.415-4.416A4.421,4.421,0,0,0,102.679,177.152Zm0-7.244a2.828,2.828,0,1,1-2.828,2.829A2.832,2.832,0,0,1,102.679,169.908Z" transform="translate(-79.877 -153.99)" fill="#fff"/>
  <path id="Path_2084" data-name="Path 2084" d="M107.079,169.121a1.051,1.051,0,1,0-1.052-1.05A1.051,1.051,0,0,0,107.079,169.121Z" transform="translate(-79.605 -154.036)" fill="#fff"/>
</svg>
