<svg xmlns="http://www.w3.org/2000/svg" width="160.059" height="51.067" viewBox="0 0 160.059 51.067">
  <g id="FT_PLAY_STORE" transform="translate(-212.233 93.924)">
    <rect id="Rectangle_325" data-name="Rectangle 325" width="160.059" height="51.067" rx="6.467" transform="translate(212.233 -93.924)" fill="#fff"/>
    <g id="Group_1354" data-name="Group 1354" transform="translate(260.466 -84.348)">
      <path id="Path_2113" data-name="Path 2113" d="M266.843-76.786h-1.087a7.239,7.239,0,0,0-.31-1.273h-1.573a6.624,6.624,0,0,0-.318,1.273H262.53q0-.134.794-2.177a16.894,16.894,0,0,0,.794-2.253H265.4a18.778,18.778,0,0,0,.719,2.22A19.428,19.428,0,0,1,266.843-76.786Zm-1.571-1.923a19.177,19.177,0,0,1-.583-1.9h-.054q0,.132-.6,1.9Z" transform="translate(-262.53 81.317)" fill="#232323"/>
      <path id="Path_2114" data-name="Path 2114" d="M271.446-76.786h-.84a8.3,8.3,0,0,0-.935-1.473,8.157,8.157,0,0,1-1.116-1.922H268.5a12.023,12.023,0,0,1,.086,1.347c0,.559.015,1.243.047,2.047H267.8q.05-1.054.051-2.317,0-1.241-.051-2.113h1.012a6.36,6.36,0,0,0,.839,1.439,8.51,8.51,0,0,1,1.028,1.813h.051a12.824,12.824,0,0,1-.082-1.362q0-.921-.047-1.891h.85q-.047.844-.046,2.113T271.446-76.786Z" transform="translate(-262.746 81.317)" fill="#232323"/>
      <path id="Path_2115" data-name="Path 2115" d="M276.585-79.154a2.514,2.514,0,0,1-.62,1.687,2.161,2.161,0,0,1-1.735.721c-.336,0-.8-.013-1.388-.04q.042-1.027.043-2.317,0-1.238-.043-2.113h.6c.1,0,.242,0,.434-.011s.318-.01.378-.01a2.29,2.29,0,0,1,1.78.612A2.117,2.117,0,0,1,276.585-79.154Zm-.929.146a1.632,1.632,0,0,0-.382-1.1,1.441,1.441,0,0,0-1.163-.447,3.6,3.6,0,0,0-.4.03q.033.682.034,1.422,0,.814.034,1.612a2.253,2.253,0,0,0,.442.045A1.287,1.287,0,0,0,275.3-77.9,1.755,1.755,0,0,0,275.656-79.008Z" transform="translate(-262.953 81.318)" fill="#232323"/>
      <path id="Path_2116" data-name="Path 2116" d="M281.332-76.786h-1.007a6.693,6.693,0,0,0-.605-1.486.8.8,0,0,0-.68-.283c-.131,0-.259,0-.379,0q0,.875.032,1.765h-.946q.042-1.027.043-2.317,0-1.238-.043-2.113h.588c.068,0,.21,0,.428-.011s.415-.01.6-.01q1.562,0,1.562,1.068a1.2,1.2,0,0,1-.892,1.18v.051a1.067,1.067,0,0,1,.6.536A11.774,11.774,0,0,1,281.332-76.786Zm-1.275-3.13q0-.676-.871-.676a3.013,3.013,0,0,0-.566.047c.027.352.037.809.037,1.374.126,0,.23.007.316.007Q280.055-79.165,280.056-79.916Z" transform="translate(-263.155 81.318)" fill="#232323"/>
      <path id="Path_2117" data-name="Path 2117" d="M286.386-79.087a2.439,2.439,0,0,1-.641,1.732,2.073,2.073,0,0,1-1.58.688,2,2,0,0,1-1.5-.632,2.221,2.221,0,0,1-.606-1.6,2.439,2.439,0,0,1,.641-1.732,2.072,2.072,0,0,1,1.58-.687,2,2,0,0,1,1.5.629A2.219,2.219,0,0,1,286.386-79.087Zm-.94.1a1.749,1.749,0,0,0-.363-1.153,1.123,1.123,0,0,0-.9-.442,1.043,1.043,0,0,0-.843.445,1.773,1.773,0,0,0-.346,1.126,1.751,1.751,0,0,0,.365,1.152,1.12,1.12,0,0,0,.9.444,1.034,1.034,0,0,0,.842-.447A1.771,1.771,0,0,0,285.446-78.988Z" transform="translate(-263.331 81.321)" fill="#232323"/>
      <path id="Path_2118" data-name="Path 2118" d="M288.536-76.786h-.963q.042-1.054.043-2.317,0-1.241-.043-2.113h.963q-.045.857-.045,2.113Q288.491-77.819,288.536-76.786Z" transform="translate(-263.558 81.317)" fill="#232323"/>
      <path id="Path_2119" data-name="Path 2119" d="M293.558-79.154a2.509,2.509,0,0,1-.618,1.687,2.165,2.165,0,0,1-1.736.721q-.5,0-1.389-.04.046-1.027.045-2.317,0-1.238-.045-2.113h.6c.1,0,.244,0,.437-.011s.318-.01.376-.01a2.3,2.3,0,0,1,1.782.612A2.12,2.12,0,0,1,293.558-79.154Zm-.929.146a1.641,1.641,0,0,0-.381-1.1,1.443,1.443,0,0,0-1.162-.447,3.613,3.613,0,0,0-.4.03c.022.455.035.928.035,1.422q0,.814.034,1.612a2.216,2.216,0,0,0,.442.045,1.283,1.283,0,0,0,1.083-.455A1.743,1.743,0,0,0,292.629-79.008Z" transform="translate(-263.65 81.318)" fill="#232323"/>
      <path id="Path_2120" data-name="Path 2120" d="M300.355-76.786h-1.09a7.2,7.2,0,0,0-.309-1.273h-1.572a6.622,6.622,0,0,0-.32,1.273h-1.022q0-.134.794-2.177a17.234,17.234,0,0,0,.794-2.253h1.285a18.785,18.785,0,0,0,.719,2.22A19.24,19.24,0,0,1,300.355-76.786Zm-1.572-1.923a18.681,18.681,0,0,1-.582-1.9h-.055a19.767,19.767,0,0,1-.6,1.9Z" transform="translate(-263.906 81.317)" fill="#232323"/>
      <path id="Path_2121" data-name="Path 2121" d="M304.539-80.056a1.326,1.326,0,0,1-.6,1.2,2.686,2.686,0,0,1-1.482.387c-.106,0-.182,0-.228-.006q0,.639.037,1.687h-.955c.03-.655.042-1.427.042-2.317,0-.816-.012-1.521-.042-2.113h.592c.084,0,.246,0,.483-.011s.444-.01.618-.01a1.95,1.95,0,0,1,1.092.292A.99.99,0,0,1,304.539-80.056Zm-.876.187q0-.728-.967-.728a2.787,2.787,0,0,0-.511.051c.026.429.037.914.037,1.456.058,0,.124.007.2.007Q303.662-79.083,303.662-79.869Z" transform="translate(-264.122 81.318)" fill="#232323"/>
      <path id="Path_2122" data-name="Path 2122" d="M308.795-80.056a1.327,1.327,0,0,1-.605,1.2,2.682,2.682,0,0,1-1.482.387c-.107,0-.182,0-.227-.006,0,.426.012.989.038,1.687h-.958q.046-.982.045-2.317,0-1.224-.045-2.113h.593c.084,0,.246,0,.483-.011s.443-.01.619-.01a1.954,1.954,0,0,1,1.092.292A.994.994,0,0,1,308.795-80.056Zm-.878.187q0-.728-.967-.728a2.768,2.768,0,0,0-.51.051q.037.643.038,1.456c.056,0,.122.007.2.007Q307.916-79.083,307.916-79.869Z" transform="translate(-264.296 81.318)" fill="#232323"/>
      <path id="Path_2123" data-name="Path 2123" d="M315.7-79.087a2.442,2.442,0,0,1-.639,1.732,2.077,2.077,0,0,1-1.583.688,2,2,0,0,1-1.5-.632,2.224,2.224,0,0,1-.605-1.6,2.443,2.443,0,0,1,.641-1.732,2.069,2.069,0,0,1,1.58-.687,2,2,0,0,1,1.5.629A2.218,2.218,0,0,1,315.7-79.087Zm-.939.1a1.759,1.759,0,0,0-.363-1.153,1.121,1.121,0,0,0-.9-.442,1.035,1.035,0,0,0-.843.445,1.774,1.774,0,0,0-.348,1.126,1.751,1.751,0,0,0,.366,1.152,1.118,1.118,0,0,0,.9.444,1.038,1.038,0,0,0,.845-.447A1.787,1.787,0,0,0,314.764-78.988Z" transform="translate(-264.535 81.321)" fill="#232323"/>
      <path id="Path_2124" data-name="Path 2124" d="M320.54-76.786H319.7a8.345,8.345,0,0,0-.936-1.473,8.121,8.121,0,0,1-1.116-1.922h-.055a11.576,11.576,0,0,1,.086,1.347c0,.559.014,1.243.047,2.047h-.837q.053-1.054.052-2.317,0-1.241-.052-2.113H317.9a6.36,6.36,0,0,0,.839,1.439,8.441,8.441,0,0,1,1.029,1.813h.05a13.037,13.037,0,0,1-.081-1.362q0-.921-.048-1.891h.85q-.048.844-.047,2.113T320.54-76.786Z" transform="translate(-264.761 81.317)" fill="#232323"/>
    </g>
    <g id="Group_1355" data-name="Group 1355" transform="translate(260.198 -74.485)">
      <path id="Path_2125" data-name="Path 2125" d="M278.166-62.177a7.1,7.1,0,0,1-1.955,5.254,7.629,7.629,0,0,1-5.782,2.33,7.92,7.92,0,0,1-5.793-2.364,7.916,7.916,0,0,1-2.384-5.858,7.917,7.917,0,0,1,2.384-5.858,7.923,7.923,0,0,1,5.793-2.363,8.109,8.109,0,0,1,3.231.659,6.488,6.488,0,0,1,2.464,1.759l-1.387,1.386a5.309,5.309,0,0,0-4.308-1.87,5.983,5.983,0,0,0-4.3,1.749,6.024,6.024,0,0,0-1.813,4.539,6.023,6.023,0,0,0,1.813,4.54,5.986,5.986,0,0,0,4.3,1.748,5.965,5.965,0,0,0,4.4-1.759,4.935,4.935,0,0,0,1.319-3.189h-5.714v-1.89h7.628A6.711,6.711,0,0,1,278.166-62.177Z" transform="translate(-262.251 71.036)" fill="#232323"/>
      <path id="Path_2126" data-name="Path 2126" d="M281.28-64.218a5.253,5.253,0,0,1,3.978-1.637,5.259,5.259,0,0,1,3.98,1.637,5.714,5.714,0,0,1,1.56,4.1,5.71,5.71,0,0,1-1.56,4.1,5.256,5.256,0,0,1-3.98,1.638,5.25,5.25,0,0,1-3.978-1.638,5.7,5.7,0,0,1-1.562-4.1A5.707,5.707,0,0,1,281.28-64.218Zm1.506,6.925a3.339,3.339,0,0,0,2.472,1.066,3.345,3.345,0,0,0,2.474-1.066,3.864,3.864,0,0,0,1.043-2.824,3.868,3.868,0,0,0-1.043-2.825,3.345,3.345,0,0,0-2.474-1.066,3.339,3.339,0,0,0-2.472,1.066,3.861,3.861,0,0,0-1.045,2.825A3.857,3.857,0,0,0,282.786-57.293Z" transform="translate(-262.968 70.823)" fill="#232323"/>
      <path id="Path_2127" data-name="Path 2127" d="M293.543-64.218a5.262,5.262,0,0,1,3.981-1.637,5.26,5.26,0,0,1,3.978,1.637,5.706,5.706,0,0,1,1.56,4.1,5.7,5.7,0,0,1-1.56,4.1,5.258,5.258,0,0,1-3.978,1.638,5.26,5.26,0,0,1-3.981-1.638,5.71,5.71,0,0,1-1.56-4.1A5.714,5.714,0,0,1,293.543-64.218Zm1.507,6.925a3.345,3.345,0,0,0,2.474,1.066A3.345,3.345,0,0,0,300-57.293a3.861,3.861,0,0,0,1.045-2.824A3.865,3.865,0,0,0,300-62.943a3.345,3.345,0,0,0-2.472-1.066,3.345,3.345,0,0,0-2.474,1.066,3.86,3.86,0,0,0-1.043,2.825A3.856,3.856,0,0,0,295.05-57.293Z" transform="translate(-263.471 70.823)" fill="#232323"/>
      <path id="Path_2128" data-name="Path 2128" d="M309.545-49.632a4.879,4.879,0,0,1-3.121-.956,5.624,5.624,0,0,1-1.737-2.187l1.847-.769a3.032,3.032,0,0,0,1.133,1.473,3.13,3.13,0,0,0,1.879.594,3.466,3.466,0,0,0,2.628-1,3.769,3.769,0,0,0,.955-2.715v-1.034h-.088a4.121,4.121,0,0,1-1.495,1.319,4.456,4.456,0,0,1-2.176.528,4.742,4.742,0,0,1-3.606-1.648,5.812,5.812,0,0,1-1.517-4.089,5.814,5.814,0,0,1,1.517-4.09,4.744,4.744,0,0,1,3.606-1.647,4.476,4.476,0,0,1,2.176.526,4.131,4.131,0,0,1,1.495,1.32h.088v-1.5h1.934v10.222a5.363,5.363,0,0,1-1.605,4.21A5.649,5.649,0,0,1,309.545-49.632Zm.154-6.595a3.224,3.224,0,0,0,2.429-1.055,3.954,3.954,0,0,0,1-2.836,3.953,3.953,0,0,0-1-2.836,3.218,3.218,0,0,0-2.429-1.056,3.214,3.214,0,0,0-2.418,1.066,3.937,3.937,0,0,0-1.012,2.825,3.933,3.933,0,0,0,1.012,2.824A3.214,3.214,0,0,0,309.7-56.227Z" transform="translate(-263.975 70.823)" fill="#232323"/>
      <path id="Path_2129" data-name="Path 2129" d="M319.543-54.93H317.52V-70.67h2.023Z" transform="translate(-264.52 71.021)" fill="#232323"/>
      <path id="Path_2130" data-name="Path 2130" d="M326.364-54.38a5.192,5.192,0,0,1-3.969-1.627,5.761,5.761,0,0,1-1.529-4.11,5.928,5.928,0,0,1,1.485-4.046,4.818,4.818,0,0,1,3.791-1.692,4.963,4.963,0,0,1,3.836,1.561,5.912,5.912,0,0,1,1.44,4.176l-.02.374h-8.509a3.651,3.651,0,0,0,1.087,2.571,3.3,3.3,0,0,0,2.342.946,2.9,2.9,0,0,0,2.946-1.846l1.8.747a4.82,4.82,0,0,1-1.737,2.1A5.05,5.05,0,0,1,326.364-54.38Zm2.9-7.035a2.866,2.866,0,0,0-.847-1.759,3.023,3.023,0,0,0-2.319-.835,2.905,2.905,0,0,0-1.946.7,3.592,3.592,0,0,0-1.132,1.89Z" transform="translate(-264.657 70.823)" fill="#232323"/>
      <path id="Path_2131" data-name="Path 2131" d="M340.082-54.93H338.06V-70.67h5.363a4.982,4.982,0,0,1,3.464,1.33,4.345,4.345,0,0,1,1.46,3.353,4.341,4.341,0,0,1-1.46,3.353,4.978,4.978,0,0,1-3.464,1.33h-3.341Zm0-8.309h3.386a2.616,2.616,0,0,0,2.044-.857,2.769,2.769,0,0,0,.77-1.891,2.769,2.769,0,0,0-.77-1.89,2.61,2.61,0,0,0-2.044-.857h-3.386Z" transform="translate(-265.363 71.021)" fill="#232323"/>
      <path id="Path_2132" data-name="Path 2132" d="M352.186-54.93h-2.021V-70.67h2.021Z" transform="translate(-265.86 71.021)" fill="#232323"/>
      <path id="Path_2133" data-name="Path 2133" d="M357.534-54.38a4.253,4.253,0,0,1-2.869-.99,3.272,3.272,0,0,1-1.154-2.615,3.227,3.227,0,0,1,1.364-2.759,5.519,5.519,0,0,1,3.361-1,5.783,5.783,0,0,1,2.924.659v-.308a2.4,2.4,0,0,0-.812-1.9,2.92,2.92,0,0,0-2-.714,3.1,3.1,0,0,0-1.594.418,2.152,2.152,0,0,0-.978,1.142l-1.847-.791a4.2,4.2,0,0,1,1.472-1.791,4.722,4.722,0,0,1,2.9-.824,4.984,4.984,0,0,1,3.429,1.208,4.32,4.32,0,0,1,1.362,3.408v6.507H361.16v-1.5h-.086A3.966,3.966,0,0,1,357.534-54.38Zm.33-1.847a3.3,3.3,0,0,0,2.276-.934,2.9,2.9,0,0,0,1.02-2.209,3.982,3.982,0,0,0-2.571-.7,3.345,3.345,0,0,0-2.22.637,1.918,1.918,0,0,0-.747,1.5,1.438,1.438,0,0,0,.682,1.252A2.716,2.716,0,0,0,357.864-56.227Z" transform="translate(-265.997 70.823)" fill="#232323"/>
      <path id="Path_2134" data-name="Path 2134" d="M367.919-49.969H365.83l2.506-5.43L363.9-65.489h2.2L369.3-57.75h.043l3.122-7.739h2.2Z" transform="translate(-266.423 70.808)" fill="#232323"/>
    </g>
    <g id="Group_1356" data-name="Group 1356" transform="translate(222.465 -83.834)">
      <path id="Path_2135" data-name="Path 2135" d="M222.913-63.464q0-7.542,0-15.082a2.266,2.266,0,0,1,.556-1.647c.171-.181.292-.23.5-.017q5.073,5.177,10.162,10.34,3.3,3.346,6.595,6.684c.214.215.232.329.006.554q-8.085,8.041-16.151,16.107a.555.555,0,0,1-.875.052,2.054,2.054,0,0,1-.8-1.742q0-4.466-.006-8.933v-6.316Z" transform="translate(-222.903 80.767)" fill="#232323"/>
      <path id="Path_2136" data-name="Path 2136" d="M224.927-80.785a1.85,1.85,0,0,1,.981.272q10.328,5.788,20.661,11.568c.316.177.309.276.065.517-1.541,1.515-3.068,3.043-4.6,4.571-.162.165-.264.26-.484.035Q233.336-72.2,225.1-80.568C225.057-80.614,225.02-80.67,224.927-80.785Z" transform="translate(-222.986 80.785)" fill="#232323"/>
      <path id="Path_2137" data-name="Path 2137" d="M226.534-45.868q7.5-7.578,14.986-15.164c.309-.314.454-.272.731.017,1.266,1.319,2.553,2.62,3.843,3.914.226.228.245.321-.062.49q-9.625,5.268-19.239,10.553A2.968,2.968,0,0,0,226.534-45.868Z" transform="translate(-223.052 79.983)" fill="#232323"/>
      <path id="Path_2138" data-name="Path 2138" d="M255.776-62.8a1.578,1.578,0,0,1-.693,1.263,8.578,8.578,0,0,1-.957.583c-1.939,1.072-3.885,2.135-5.819,3.214a.436.436,0,0,1-.634-.084q-2.067-2.135-4.165-4.239c-.2-.2-.21-.316,0-.522q2.444-2.407,4.862-4.839a.388.388,0,0,1,.562-.078c1.916,1.086,3.842,2.157,5.763,3.233A1.764,1.764,0,0,1,255.776-62.8Z" transform="translate(-223.742 80.243)" fill="#232323"/>
    </g>
  </g>
</svg>
