<svg id="ft_twitter" xmlns="http://www.w3.org/2000/svg" width="41.403" height="41.403" viewBox="0 0 41.403 41.403">
  <path id="Path_2107" data-name="Path 2107" d="M204.25,189.6h33.122V156.476H204.25Z" transform="translate(-198.04 -154.406)" fill="#3cf"/>
  <path id="Path_2108" data-name="Path 2108" d="M202.32,190.155V157.89l-2.07,2.07v32.265Z" transform="translate(-198.18 -154.356)" fill="#3cf"/>
  <path id="Path_2109" data-name="Path 2109" d="M203.734,190.476l-2.07,2.07h32.265l2.07-2.07Z" transform="translate(-198.13 -153.213)" fill="#3cf"/>
  <path id="Path_2110" data-name="Path 2110" d="M238.618,154.476H203.425a1.047,1.047,0,0,0-.733.3l-4.139,4.139a1.031,1.031,0,0,0-.3.732v35.192a1.042,1.042,0,0,0,1.035,1.035h35.192a1.035,1.035,0,0,0,.732-.3l4.139-4.139a1.052,1.052,0,0,0,.3-.733V155.511A1.034,1.034,0,0,0,238.618,154.476Zm-1.035,35.192H204.46V156.546h33.122ZM202.39,158.01v32.264l-2.07,2.07V160.08Zm31.659,35.8H201.784l2.07-2.07h32.265Z" transform="translate(-198.25 -154.476)" fill="#1d1d1b"/>
  <path id="Path_2111" data-name="Path 2111" d="M231.711,166.37a8.409,8.409,0,0,1-2.063.588c.333-.056.822-.657,1.02-.9a3.832,3.832,0,0,0,.686-1.251c.017-.035.03-.081-.005-.107a.12.12,0,0,0-.11.008,10.528,10.528,0,0,1-2.449.938.164.164,0,0,1-.169-.045,1.787,1.787,0,0,0-.214-.218,4.315,4.315,0,0,0-1.186-.729,4.157,4.157,0,0,0-1.82-.293,4.361,4.361,0,0,0-1.727.488,4.447,4.447,0,0,0-1.392,1.139,4.253,4.253,0,0,0-.832,1.665,4.53,4.53,0,0,0-.045,1.759c.015.1.005.112-.085.1a13.082,13.082,0,0,1-8.415-4.283c-.1-.113-.152-.113-.232.008a4.264,4.264,0,0,0,.728,5.042c.165.156.334.313.516.455a4.3,4.3,0,0,1-1.623-.455c-.1-.061-.148-.026-.157.085a2.678,2.678,0,0,0,.027.483,4.312,4.312,0,0,0,2.661,3.438,2.366,2.366,0,0,0,.538.166,4.79,4.79,0,0,1-1.593.05c-.116-.023-.16.035-.116.147a4.483,4.483,0,0,0,3.345,2.8c.152.026.3.026.456.061-.009.014-.018.014-.027.028a5.319,5.319,0,0,1-2.284,1.212,8.2,8.2,0,0,1-3.472.443c-.187-.028-.227-.026-.276,0s-.006.077.053.124c.238.156.478.3.724.43a11.5,11.5,0,0,0,2.321.927,12.357,12.357,0,0,0,12-2.805c2.458-2.443,3.321-5.812,3.321-9.185,0-.131.155-.2.248-.274a8.036,8.036,0,0,0,1.625-1.7.486.486,0,0,0,.1-.325v-.017C231.788,166.315,231.795,166.332,231.711,166.37Z" transform="translate(-197.79 -154.13)" fill="#fff"/>
</svg>
