<svg xmlns="http://www.w3.org/2000/svg" width="323.803" height="251.205" viewBox="0 0 323.803 251.205">
  <g id="Group_2708" data-name="Group 2708" transform="translate(-5201.449 9064.52)">
    <path id="Path_5537" data-name="Path 5537" d="M2791.311,4350.025l15.882,13.121" transform="translate(2670.216 -13412.617)" fill="none" stroke="#00ffc2" stroke-width="5"/>
    <path id="Path_5538" data-name="Path 5538" d="M0,0,14.459,15.825" transform="matrix(0.469, -0.883, 0.883, 0.469, 5230.767, -8823.165)" fill="none" stroke="#d90088" stroke-width="5"/>
    <path id="Path_5539" data-name="Path 5539" d="M0,0,10.438,11.557" transform="translate(5280.091 -8994.797) rotate(-37)" fill="none" stroke="#fff" stroke-width="5"/>
    <path id="Path_5540" data-name="Path 5540" d="M2438.5,4382.153s13.97-3.088,20.655-16.457" transform="translate(2763.489 -13370.556)" fill="none" stroke="#9842f4" stroke-width="5"/>
    <path id="Path_5541" data-name="Path 5541" d="M0,18.5S15.7,15.027,23.219,0" transform="translate(5487.841 -8818.794) rotate(-120)" fill="none" stroke="#00f9ff" stroke-width="5"/>
    <path id="Path_5542" data-name="Path 5542" d="M0,11.348S9.633,9.218,14.243,0" transform="translate(5513.041 -8965.113) rotate(-120)" fill="none" stroke="#ffbe06" stroke-width="5"/>
    <path id="Path_5543" data-name="Path 5543" d="M2626.5,4426.143s10.027,7.658,20.722-16.405" transform="translate(2842.682 -13360.118)" fill="none" stroke="#d90088" stroke-width="5"/>
    <path id="Path_5544" data-name="Path 5544" d="M2451,4443.5a50.211,50.211,0,0,1,12.145,12.5" transform="translate(2801.088 -13352.116)" fill="none" stroke="#00ffc2" stroke-width="5"/>
  </g>
</svg>
