<svg xmlns="http://www.w3.org/2000/svg" width="18.396" height="18.405" viewBox="0 0 18.396 18.405">
  <g id="Group_1585" data-name="Group 1585" transform="translate(0 0)">
    <g id="Group_1394" data-name="Group 1394" transform="translate(0 0)">
      <g id="Group_1393" data-name="Group 1393">
        <g id="Group_1392" data-name="Group 1392">
          <rect id="Rectangle_341" data-name="Rectangle 341" width="3.798" height="12.269" transform="translate(0.364 6.135)" fill="#0e76a8"/>
          <path id="Path_2163" data-name="Path 2163" d="M163.093,357.8a2.264,2.264,0,1,0-2.245-2.265A2.254,2.254,0,0,0,163.093,357.8Z" transform="translate(-160.848 -353.273)" fill="#0e76a8"/>
        </g>
        <path id="Path_2164" data-name="Path 2164" d="M173.007,366.92c0-1.724.794-2.752,2.314-2.752,1.4,0,2.068.986,2.068,2.752v6.441h3.78v-7.768c0-3.287-1.863-4.876-4.464-4.876a4.276,4.276,0,0,0-3.7,2.028v-1.653h-3.644v12.27h3.644Z" transform="translate(-162.773 -354.956)" fill="#0e76a8"/>
      </g>
    </g>
  </g>
</svg>