<svg xmlns="http://www.w3.org/2000/svg" width="40" height="40" viewBox="0 0 40 40">
  <g id="link_facebook" transform="translate(-1090 -527)">
    <path id="Path_2656" data-name="Path 2656" d="M142.5,189.061V157.89l-2,2v31.172Z" transform="translate(951.5 372.524)" fill="#4047db"/>
    <path id="Path_2657" data-name="Path 2657" d="M143.914,190.476l-2,2h31.172l2-2Z" transform="translate(951.5 372.524)" fill="#4047db"/>
    <path id="Path_2658" data-name="Path 2658" d="M144.5,188.476h32v-32h-32Zm12.154-18.725a.208.208,0,0,1,.208-.209h1.487v-2.363a2.983,2.983,0,0,1,2.982-2.983h2.806a.209.209,0,0,1,.209.209v2.451a.208.208,0,0,1-.209.209h-1.66a.738.738,0,0,0-.739.739v1.738H164.1a.208.208,0,0,1,.208.227l-.207,2.451a.208.208,0,0,1-.208.189h-2.156v8.139a.208.208,0,0,1-.208.207h-2.973a.208.208,0,0,1-.208-.207v-8.139h-1.487a.206.206,0,0,1-.208-.207Z" transform="translate(951.5 372.524)" fill="#d70086"/>
    <path id="Path_2659" data-name="Path 2659" d="M177.5,154.476h-34a1.012,1.012,0,0,0-.708.294l-4,4a1,1,0,0,0-.293.707v34a1.007,1.007,0,0,0,1,1h34a1,1,0,0,0,.707-.293l4-4a1.017,1.017,0,0,0,.294-.708v-34A1,1,0,0,0,177.5,154.476Z" transform="translate(951.5 372.524)" fill="#1d1d1b"/>
    <rect id="Rectangle_362" data-name="Rectangle 362" width="32" height="32" transform="translate(1096 529)" fill="#1778f2"/>
    <path id="Path_2660" data-name="Path 2660" d="M142.5,157.89v31.172l-2,2V159.89Z" transform="translate(951.5 372.524)" fill="#1778f2"/>
    <path id="Path_2661" data-name="Path 2661" d="M173.086,192.476H141.914l2-2h31.172Z" transform="translate(951.5 372.524)" fill="#1778f2"/>
    <path id="Path_2662" data-name="Path 2662" d="M156.862,172.409h1.487v8.139a.208.208,0,0,0,.208.207h2.973a.208.208,0,0,0,.208-.207v-8.139h2.156a.208.208,0,0,0,.208-.189l.207-2.451a.208.208,0,0,0-.208-.227h-2.363V167.8a.738.738,0,0,1,.739-.739h1.66a.208.208,0,0,0,.209-.209V164.4a.209.209,0,0,0-.209-.209h-2.806a2.983,2.983,0,0,0-2.982,2.983v2.363h-1.487a.208.208,0,0,0-.208.209V172.2A.206.206,0,0,0,156.862,172.409Z" transform="translate(951.5 372.524)" fill="#fff"/>
  </g>
</svg>
