<svg xmlns="http://www.w3.org/2000/svg" width="40" height="40" viewBox="0 0 40 40">
  <g id="link_dribbble" transform="translate(-434.92 -154.476)">
    <path id="Path_2157" data-name="Path 2157" d="M440.92,188.476h32v-32h-32Z" fill="#ea4c89"/>
    <path id="Path_2158" data-name="Path 2158" d="M438.92,189.061V157.89l-2,2v31.172Z" fill="#ea4c89"/>
    <path id="Path_2159" data-name="Path 2159" d="M440.334,190.476l-2,2h31.172l2-2Z" fill="#ea4c89"/>
    <path id="Path_2160" data-name="Path 2160" d="M473.92,154.476h-34a1.012,1.012,0,0,0-.708.294l-4,4a1,1,0,0,0-.293.707v34a1.007,1.007,0,0,0,1,1h34a1,1,0,0,0,.707-.293l4-4a1.017,1.017,0,0,0,.294-.708v-34A1,1,0,0,0,473.92,154.476Zm-1,34h-32v-32h32Zm-34-30.586v31.171l-2,2V159.89Zm30.586,34.586H438.334l2-2h31.172Z" fill="#1d1d1b"/>
    <g id="Group_1380" data-name="Group 1380">
      <path id="Path_2161" data-name="Path 2161" d="M456.921,162.439a10.036,10.036,0,1,0,10.035,10.038A10.038,10.038,0,0,0,456.921,162.439Zm0,1.747a8.244,8.244,0,0,1,5.053,1.732,10.144,10.144,0,0,1-4.171,3.076,38.906,38.906,0,0,0-2.916-4.547A8.3,8.3,0,0,1,456.921,164.186Zm-3.741.9a37.2,37.2,0,0,1,2.957,4.5,26.618,26.618,0,0,1-7.263.926A8.321,8.321,0,0,1,453.18,165.086Zm-4.55,7.389c0-.071.009-.141.011-.213a27.973,27.973,0,0,0,8.32-1.106c.2.4.383.795.561,1.2a12.926,12.926,0,0,0-6.973,5.418A8.255,8.255,0,0,1,448.63,172.475Zm8.291,8.293a8.268,8.268,0,0,1-5.09-1.76,11.264,11.264,0,0,1,6.357-5.041,33.038,33.038,0,0,1,1.707,6.238A8.22,8.22,0,0,1,456.921,180.768Zm4.6-1.4a34.733,34.733,0,0,0-1.6-5.767,16.645,16.645,0,0,1,5.183.164A8.308,8.308,0,0,1,461.522,179.367Zm-2.275-7.42c-.2-.47-.416-.941-.642-1.406a11.839,11.839,0,0,0,4.64-3.412,8.256,8.256,0,0,1,1.943,4.879A17.906,17.906,0,0,0,459.247,171.947Z" fill="#fff"/>
    </g>
  </g>
</svg>
