<svg xmlns="http://www.w3.org/2000/svg" width="40" height="40" viewBox="0 0 40 40">
  <g id="link_whatsapp" transform="translate(-249.5 -209.092)">
    <path id="Path_5010" data-name="Path 5010" d="M255.5,243.092h32v-32h-32Z" fill="#25d366"/>
    <path id="Path_5011" data-name="Path 5011" d="M253.5,243.678V212.506l-2,2v31.172Z" fill="#25d366"/>
    <path id="Path_5012" data-name="Path 5012" d="M254.914,245.092l-2,2h31.172l2-2Z" fill="#25d366"/>
    <path id="Path_5013" data-name="Path 5013" d="M288.5,209.092h-34a1.012,1.012,0,0,0-.708.294l-4,4a1,1,0,0,0-.293.707v34a1,1,0,0,0,.618.923,1.01,1.01,0,0,0,.382.077h34a1,1,0,0,0,.707-.293l4-4a1.012,1.012,0,0,0,.294-.708v-34A1,1,0,0,0,288.5,209.092Zm-1,34h-32v-32h32Zm-34-30.586v31.172l-2,2V214.506Zm30.586,34.586H252.914l2-2h31.172Z" fill="#1d1d1b"/>
    <g id="Group_1930" data-name="Group 1930">
      <g id="Group_1929" data-name="Group 1929">
        <path id="Path_5014" data-name="Path 5014" d="M280.664,226.627a9,9,0,0,0-17.989-.162c0,.131-.01.262-.01.389a8.866,8.866,0,0,0,1.291,4.616l-1.623,4.791,4.985-1.585a9.008,9.008,0,0,0,13.349-7.822C280.667,226.777,280.667,226.7,280.664,226.627Zm-9,7.738a7.527,7.527,0,0,1-4.162-1.244l-2.906.926.941-2.788a7.448,7.448,0,0,1-1.44-4.4c0-.241.014-.488.038-.729a7.571,7.571,0,0,1,15.072.143,5.761,5.761,0,0,1,.027.586A7.55,7.55,0,0,1,271.666,234.365Z" fill="#fff" fill-rule="evenodd"/>
        <path id="Path_5015" data-name="Path 5015" d="M275.793,228.66c-.225-.111-1.3-.642-1.51-.715s-.35-.108-.495.11-.575.715-.7.857-.256.164-.48.055a5.975,5.975,0,0,1-1.775-1.087,6.525,6.525,0,0,1-1.227-1.514c-.126-.219-.012-.338.1-.446s.219-.256.333-.383c.031-.037.055-.073.081-.106a2.078,2.078,0,0,0,.137-.261.381.381,0,0,0-.017-.383c-.052-.111-.5-1.188-.68-1.627s-.366-.361-.5-.361-.274-.024-.422-.024a.814.814,0,0,0-.589.276,2.441,2.441,0,0,0-.772,1.826,2.847,2.847,0,0,0,.114.749,5,5,0,0,0,.788,1.516,9.092,9.092,0,0,0,3.766,3.31c2.246.87,2.246.579,2.651.541a2.2,2.2,0,0,0,1.487-1.04,1.772,1.772,0,0,0,.131-1.041C276.16,228.824,276.011,228.77,275.793,228.66Z" fill="#fff" fill-rule="evenodd"/>
      </g>
    </g>
  </g>
</svg>
