<svg xmlns="http://www.w3.org/2000/svg" width="40" height="40" viewBox="0 0 40 40">
  <g id="link_behance" transform="translate(-257.5 -154.476)">
    <path id="Path_2151" data-name="Path 2151" d="M263.5,188.476h32v-32h-32Z" fill="#1769ff"/>
    <path id="Path_2152" data-name="Path 2152" d="M261.5,189.061V157.89l-2,2v31.172Z" fill="#1769ff"/>
    <path id="Path_2153" data-name="Path 2153" d="M262.914,190.476l-2,2h31.172l2-2Z" fill="#1769ff"/>
    <path id="Path_2154" data-name="Path 2154" d="M296.5,154.476h-34a1.012,1.012,0,0,0-.708.294l-4,4a1,1,0,0,0-.293.707v34a1.007,1.007,0,0,0,1,1h34a1,1,0,0,0,.707-.293l4-4a1.017,1.017,0,0,0,.294-.708v-34A1,1,0,0,0,296.5,154.476Zm-1,34h-32v-32h32Zm-34-30.586v31.171l-2,2V159.89Zm30.586,34.586H260.914l2-2h31.172Z" fill="#1d1d1b"/>
    <g id="Group_1378" data-name="Group 1378">
      <g id="Group_1377" data-name="Group 1377">
        <path id="Path_2155" data-name="Path 2155" d="M277.148,177.7a2.992,2.992,0,0,0,1.249-.553,3.051,3.051,0,0,0,.779-.868,3.214,3.214,0,0,0,.49-1.757,2.933,2.933,0,0,0-.428-1.615,2.471,2.471,0,0,0-1.273-.972,2.714,2.714,0,0,0,.842-.628,2.471,2.471,0,0,0,.509-1.623,2.8,2.8,0,0,0-.507-1.684,3.386,3.386,0,0,0-2.858-1.174h-5.326V177.85h4.967A7.593,7.593,0,0,0,277.148,177.7Zm-4.326-8.958h2.4a4.136,4.136,0,0,1,1.3.172.984.984,0,0,1,.592,1.016,1.04,1.04,0,0,1-.447.968,2.231,2.231,0,0,1-1.168.274h-2.68Zm0,7.2V173h2.715a2.778,2.778,0,0,1,1.1.187,1.182,1.182,0,0,1,.7,1.182,1.386,1.386,0,0,1-.725,1.375,2.571,2.571,0,0,1-1.115.2Z" fill="#fff"/>
        <g id="Group_1376" data-name="Group 1376">
          <path id="Path_2156" data-name="Path 2156" d="M281.533,177.123a4.444,4.444,0,0,0,2.871,1,3.959,3.959,0,0,0,3.067-1.19,2.658,2.658,0,0,0,.791-1.472h-2.176a1.79,1.79,0,0,1-.439.56,1.811,1.811,0,0,1-1.186.374,2.139,2.139,0,0,1-1.172-.307,1.953,1.953,0,0,1-.854-1.72h5.938a10.162,10.162,0,0,0-.07-1.617,4.051,4.051,0,0,0-.649-1.686,3.317,3.317,0,0,0-1.41-1.206,4.629,4.629,0,0,0-1.916-.382,3.926,3.926,0,0,0-2.916,1.132,4.408,4.408,0,0,0-1.123,3.247A3.958,3.958,0,0,0,281.533,177.123Zm1.524-5.42a1.692,1.692,0,0,1,1.271-.465,1.875,1.875,0,0,1,1.266.44,1.8,1.8,0,0,1,.568,1.288h-3.674A2.212,2.212,0,0,1,283.057,171.7Z" fill="#fff"/>
          <rect id="Rectangle_335" data-name="Rectangle 335" width="4.791" height="1.111" transform="translate(281.793 167.46)" fill="#fff"/>
        </g>
      </g>
    </g>
  </g>
</svg>
