<svg xmlns="http://www.w3.org/2000/svg" width="40" height="40" viewBox="0 0 40 40">
  <g id="link_instagram" transform="translate(-1032 -527)">
    <path id="Path_2663" data-name="Path 2663" d="M86.5,188.476h32v-32h-32Zm7.363-19.434a5.2,5.2,0,0,1,5.2-5.2h6.868a5.2,5.2,0,0,1,5.2,5.2v6.867a5.2,5.2,0,0,1-5.2,5.2H99.066a5.2,5.2,0,0,1-5.2-5.2Z" transform="translate(951.5 372.524)" fill="#e1306c"/>
    <path id="Path_2664" data-name="Path 2664" d="M84.5,189.061V157.89l-2,2v31.172Z" transform="translate(951.5 372.524)" fill="#e1306c"/>
    <path id="Path_2665" data-name="Path 2665" d="M99.066,179.483h6.868a3.573,3.573,0,0,0,3.574-3.574v-6.867a3.573,3.573,0,0,0-3.574-3.572H99.066a3.572,3.572,0,0,0-3.572,3.572v6.867A3.573,3.573,0,0,0,99.066,179.483Zm7.977-12.463a1.015,1.015,0,1,1-1.016,1.016A1.015,1.015,0,0,1,107.043,167.02Zm-4.514,1.3a4.266,4.266,0,1,1-4.265,4.266A4.271,4.271,0,0,1,102.529,168.321Z" transform="translate(951.5 372.524)" fill="#e1306c"/>
    <path id="Path_2666" data-name="Path 2666" d="M102.529,175.319a2.732,2.732,0,1,0-2.732-2.732A2.734,2.734,0,0,0,102.529,175.319Z" transform="translate(951.5 372.524)" fill="#e1306c"/>
    <path id="Path_2667" data-name="Path 2667" d="M85.914,190.476l-2,2h31.172l2-2Z" transform="translate(951.5 372.524)" fill="#e1306c"/>
    <path id="Path_2668" data-name="Path 2668" d="M119.5,154.476h-34a1.012,1.012,0,0,0-.708.294l-4,4a1,1,0,0,0-.293.707v34a1.007,1.007,0,0,0,1,1h34a1,1,0,0,0,.707-.293l4-4a1.017,1.017,0,0,0,.294-.708v-34A1,1,0,0,0,119.5,154.476Zm-1,34h-32v-32h32Zm-34-30.586v31.171l-2,2V159.89Zm30.586,34.586H83.914l2-2h31.172Z" transform="translate(951.5 372.524)" fill="#1d1d1b"/>
    <path id="Path_2669" data-name="Path 2669" d="M99.066,181.112h6.868a5.2,5.2,0,0,0,5.2-5.2v-6.867a5.2,5.2,0,0,0-5.2-5.2H99.066a5.2,5.2,0,0,0-5.2,5.2v6.867A5.2,5.2,0,0,0,99.066,181.112Zm-3.572-12.07a3.572,3.572,0,0,1,3.572-3.572h6.868a3.573,3.573,0,0,1,3.574,3.572v6.867a3.573,3.573,0,0,1-3.574,3.574H99.066a3.573,3.573,0,0,1-3.572-3.574Z" transform="translate(951.5 372.524)" fill="#fff"/>
    <path id="Path_2670" data-name="Path 2670" d="M102.529,176.853a4.266,4.266,0,1,0-4.265-4.266A4.271,4.271,0,0,0,102.529,176.853Zm0-7a2.732,2.732,0,1,1-2.732,2.733A2.736,2.736,0,0,1,102.529,169.854Z" transform="translate(951.5 372.524)" fill="#fff"/>
    <path id="Path_2671" data-name="Path 2671" d="M107.043,169.05a1.015,1.015,0,1,0-1.016-1.014A1.015,1.015,0,0,0,107.043,169.05Z" transform="translate(951.5 372.524)" fill="#fff"/>
  </g>
</svg>
