<svg id="location_pin" xmlns="http://www.w3.org/2000/svg" width="89.281" height="89.28" viewBox="0 0 89.281 89.28">
  <path id="Path_2440" data-name="Path 2440" d="M523.532,317.934a1.1,1.1,0,0,1-1.926,0l-1.706-3.115-26.525,14.919a42.748,42.748,0,0,0,6.009,4.335l64.139-36.066c0-.112.016-.222.016-.335a43.061,43.061,0,0,0-.6-7.055L527.6,310.492Z" transform="translate(-476.456 -253.032)" fill="#ffe508"/>
  <path id="Path_2441" data-name="Path 2441" d="M544.784,293.166l4.415-2.481a42.1,42.1,0,0,0-2.526-7.745L537,288.379Z" transform="translate(-463.151 -255.374)" fill="#00ffba"/>
  <path id="Path_2442" data-name="Path 2442" d="M541.75,325.094a42.3,42.3,0,0,0,12.076-26.825L524.732,314.63Z" transform="translate(-466.893 -250.699)" fill="#00ffba"/>
  <path id="Path_2443" data-name="Path 2443" d="M546.423,269.569A42.4,42.4,0,0,0,488.6,328.419l28.8-16.2L502.64,285.226a1.1,1.1,0,0,1,.509-1.529l5.1-2.324a44.881,44.881,0,0,1,17.869-3.7,44.285,44.285,0,0,1,18.55,4.079l4.193,1.982a1.1,1.1,0,0,1,.495,1.522l-7.1,13,20.232-11.381A42.348,42.348,0,0,0,546.423,269.569Z" transform="translate(-479.896 -261.302)" fill="#00f1ff"/>
  <path id="Path_2444" data-name="Path 2444" d="M544.309,292.841l-7.784-4.788-5.156,2.9,7.781,4.789Z" transform="translate(-464.868 -253.814)" fill="#adadad"/>
  <path id="Path_2445" data-name="Path 2445" d="M528.358,293.437l-7.231,13.228,18.958-10.659L532.3,291.22Z" transform="translate(-467.992 -252.848)" fill="#00ffba"/>
  <path id="Path_2446" data-name="Path 2446" d="M514.608,311.336l-7.782-4.788-18.82,10.585a42.582,42.582,0,0,0,5.357,6.25l-.04-.076Z" transform="translate(-478.093 -248.174)" fill="#00ffba"/>
  <path id="Path_2447" data-name="Path 2447" d="M504.106,306.407l7.784,4.787,3.685-2.072-2.345-4.288-3.023-1.859Z" transform="translate(-473.183 -249.264)" fill="#adadad"/>
  <ellipse id="Ellipse_40" data-name="Ellipse 40" cx="6.78" cy="6.78" rx="6.78" ry="6.78" transform="translate(38.333 26.372) rotate(-9.102)" fill="#00f1ff"/>
  <path id="Path_2448" data-name="Path 2448" d="M538.346,279.916a42.031,42.031,0,0,0-17.615-3.871,42.667,42.667,0,0,0-16.978,3.512l-4,1.826,20.874,38.177L541.481,281.4ZM520.611,298.45a8.978,8.978,0,1,1,8.98-8.98A8.989,8.989,0,0,1,520.611,298.45Z" transform="translate(-474.512 -257.476)" fill="#e63557"/>
  <path id="Path_2449" data-name="Path 2449" d="M499.691,327.8a42.092,42.092,0,0,0,40.807-1.03l-18.617-11.447Z" transform="translate(-474.53 -245.497)" fill="#00ffba"/>
  <path id="Path_2450" data-name="Path 2450" d="M518.375,315.183l18.532,11.4a42.72,42.72,0,0,0,5.115-4.039l-17.543-10.79Z" transform="translate(-468.831 -246.587)" fill="#adadad"/>
  <path id="Path_2451" data-name="Path 2451" d="M548.068,268.2a44.626,44.626,0,1,0-44.823,77.166l.026.046.025-.016a44.626,44.626,0,0,0,44.773-77.2Zm-57.745,62.571,18.82-10.585,7.782,4.788-21.285,11.971.04.076A42.576,42.576,0,0,1,490.323,330.775Zm62.18-25.8-18.957,10.659,7.231-13.229,3.942-2.217Zm-5.592-6.021,5.156-2.9,7.784,4.788-5.159,2.9ZM526.523,323.9l-20.874-38.177,4-1.826a42.666,42.666,0,0,1,16.978-3.512,42.031,42.031,0,0,1,17.615,3.871l3.135,1.481Zm-3.722-2.225-3.685,2.071-7.784-4.787,6.1-3.432,3.024,1.858ZM525.05,348.9a42.124,42.124,0,0,1-19.478-4.776l22.19-12.477,18.617,11.447A42.125,42.125,0,0,1,525.05,348.9Zm23.436-7.089-18.532-11.4,6.1-3.432L553.6,337.77A42.725,42.725,0,0,1,548.486,341.809Zm6.782-5.6-17.018-10.465,29.095-16.361A42.3,42.3,0,0,1,555.268,336.212Zm12.225-29.756c0,.113-.016.223-.016.335l-64.138,36.066a42.748,42.748,0,0,1-6.009-4.335L523.854,323.6l1.706,3.115a1.1,1.1,0,0,0,1.926,0l4.069-7.442L566.894,299.4A43.054,43.054,0,0,1,567.493,306.456Zm-1.035-9.328-4.415,2.481-7.784-4.787,9.672-5.439A42.1,42.1,0,0,1,566.458,297.128Zm-23.692,1.636,7.1-12.995a1.1,1.1,0,0,0-.495-1.522l-4.193-1.982a44.284,44.284,0,0,0-18.55-4.079,44.88,44.88,0,0,0-17.869,3.7l-5.1,2.324a1.1,1.1,0,0,0-.509,1.529l14.762,26.995-28.8,16.2A42.428,42.428,0,1,1,563,287.383Z" transform="translate(-480.41 -261.816)"/>
  <path id="Path_2452" data-name="Path 2452" d="M517.834,279.454a8.978,8.978,0,1,0,8.98,8.977A8.987,8.987,0,0,0,517.834,279.454Zm0,15.756a6.779,6.779,0,1,1,6.781-6.779A6.788,6.788,0,0,1,517.834,295.21Z" transform="translate(-471.734 -256.437)"/>
</svg>
