<svg xmlns="http://www.w3.org/2000/svg" width="128.086" height="50" viewBox="0 0 128.086 50">
  <g id="Group_1937" data-name="Group 1937" transform="translate(-410.914 -298.144)">
    <path id="Path_5027" data-name="Path 5027" d="M414.914,342.729V301.558l-2,2v41.172Z" fill="#24292e"/>
    <rect id="Rectangle_554" data-name="Rectangle 554" width="120.086" height="42" transform="translate(416.914 300.144)" fill="#24292e"/>
    <path id="Path_5028" data-name="Path 5028" d="M416.328,344.144l-2,2H533.586l2-2Z" fill="#24292e"/>
    <path id="Path_5029" data-name="Path 5029" d="M538,298.144H415.914a.994.994,0,0,0-.708.294l-4,4a1,1,0,0,0-.293.708v44a1,1,0,0,0,1,1H534a1,1,0,0,0,.707-.293l4-4a.994.994,0,0,0,.294-.708v-44A1,1,0,0,0,538,298.144Zm-121.086,2H537v42H416.914Zm-2,1.414v41.171l-2,2V303.558Zm118.672,44.586H414.328l2-2H535.586Z" fill="#1d1d1b"/>
    <g id="Group_1936" data-name="Group 1936">
      <path id="Path_5030" data-name="Path 5030" d="M454.822,319.742h-6.05a.282.282,0,0,0-.282.283v2.957a.282.282,0,0,0,.282.284h2.361v3.675a7.16,7.16,0,0,1-1.994.18c-1.731,0-4.145-.631-4.145-5.941s2.514-6.01,4.875-6.01a9.571,9.571,0,0,1,3.485.533.283.283,0,0,0,.337-.277l.676-2.858a.267.267,0,0,0-.107-.222c-.229-.162-1.615-.94-5.121-.94-4.041,0-8.184,1.721-8.184,9.983s4.744,9.492,8.74,9.492a9.846,9.846,0,0,0,5.319-1.414.241.241,0,0,0,.091-.215v-9.227A.283.283,0,0,0,454.822,319.742Z" fill="#fff"/>
      <path id="Path_5031" data-name="Path 5031" d="M486.006,312.4a.282.282,0,0,0-.281-.283h-3.407a.283.283,0,0,0-.283.283l0,6.584h-5.31V312.4a.283.283,0,0,0-.282-.283h-3.406a.282.282,0,0,0-.281.283v17.829a.282.282,0,0,0,.281.285h3.406a.284.284,0,0,0,.282-.285V322.6h5.31l-.01,7.625a.284.284,0,0,0,.283.285h3.415a.282.282,0,0,0,.281-.285Z" fill="#fff"/>
      <g id="Group_1935" data-name="Group 1935">
        <g id="Group_1934" data-name="Group 1934">
          <path id="Path_5032" data-name="Path 5032" d="M461.252,314.736a2.2,2.2,0,1,0-2.2,2.221A2.206,2.206,0,0,0,461.252,314.736Z" fill="#fff"/>
          <path id="Path_5033" data-name="Path 5033" d="M461.008,326.465v-8.229a.282.282,0,0,0-.281-.285h-3.4a.324.324,0,0,0-.295.317v11.789c0,.347.215.451.5.451h3.059c.336,0,.418-.164.418-.455Z" fill="#fff"/>
        </g>
      </g>
      <path id="Path_5034" data-name="Path 5034" d="M498.953,317.977h-3.381a.285.285,0,0,0-.281.287V327a3.818,3.818,0,0,1-2.078.629c-1.219,0-1.543-.553-1.543-1.748v-7.621a.283.283,0,0,0-.279-.287h-3.432a.285.285,0,0,0-.281.287v8.2c0,3.545,1.974,4.412,4.693,4.412a7.921,7.921,0,0,0,4.027-1.23,7.011,7.011,0,0,0,.125.724.3.3,0,0,0,.249.154l2.183-.007a.285.285,0,0,0,.281-.286V318.264A.285.285,0,0,0,498.953,317.977Z" fill="#fff"/>
      <path id="Path_5035" data-name="Path 5035" d="M508.193,317.578a6.36,6.36,0,0,0-3.226.856V312.4a.281.281,0,0,0-.279-.283H501.27a.283.283,0,0,0-.282.283v17.829a.284.284,0,0,0,.282.285h2.371a.285.285,0,0,0,.248-.151,5.621,5.621,0,0,0,.142-.822,6.12,6.12,0,0,0,4.043,1.324c3.106,0,4.885-1.576,4.885-7.07S510.115,317.578,508.193,317.578Zm-1.332,10.043a4.053,4.053,0,0,1-1.968-.566v-5.647a4.517,4.517,0,0,1,1.748-.566c1.216-.11,2.39.258,2.39,3.162C509.031,327.066,508.5,327.672,506.861,327.621Z" fill="#fff"/>
      <path id="Path_5036" data-name="Path 5036" d="M470.8,317.949h-2.557l0-3.377c0-.127-.066-.191-.213-.191h-3.482c-.137,0-.209.06-.209.189v3.491s-1.744.419-1.863.455a.282.282,0,0,0-.2.271v2.193a.284.284,0,0,0,.281.286h1.785v5.273c0,3.918,2.748,4.3,4.6,4.3a7.759,7.759,0,0,0,2.027-.334.265.265,0,0,0,.16-.256l0-2.412a.289.289,0,0,0-.281-.285c-.151,0-.532.06-.922.06-1.256,0-1.682-.582-1.682-1.338v-5.011H470.8a.285.285,0,0,0,.281-.286v-2.746A.283.283,0,0,0,470.8,317.949Z" fill="#fff"/>
    </g>
  </g>
</svg>
