<svg xmlns="http://www.w3.org/2000/svg" width="128.086" height="50" viewBox="0 0 128.086 50">
  <g id="Group_1933" data-name="Group 1933" transform="translate(-74.914 -298.144)">
    <path id="Path_5016" data-name="Path 5016" d="M78.914,342.729V301.558l-2,2v41.172Z" fill="#4169db"/>
    <rect id="Rectangle_553" data-name="Rectangle 553" width="120.086" height="42" transform="translate(80.914 300.144)" fill="#4169db"/>
    <path id="Path_5017" data-name="Path 5017" d="M80.328,344.144l-2,2H197.586l2-2Z" fill="#4169db"/>
    <path id="Path_5018" data-name="Path 5018" d="M202,298.144H79.914a.994.994,0,0,0-.708.294l-4,4a1,1,0,0,0-.293.708v44a1,1,0,0,0,1,1H198a1,1,0,0,0,.707-.293l4-4a.994.994,0,0,0,.294-.708v-44A1,1,0,0,0,202,298.144Zm-121.086,2H201v42H80.914Zm-2,1.414v41.171l-2,2V303.558Zm118.672,44.586H78.328l2-2H199.586Z" fill="#1d1d1b"/>
    <g id="Group_1932" data-name="Group 1932">
      <path id="Path_5019" data-name="Path 5019" d="M138.085,312.193l4.121-.687v6.369c.559-.117,1.088-.267,1.628-.335a8.783,8.783,0,0,1,3.939.253,3,3,0,0,1,2.11,2.532,13.836,13.836,0,0,1,.173,2.082c.012,1.378.01,2.758-.054,4.133a4.289,4.289,0,0,1-1.548,3.406,5.366,5.366,0,0,1-2.493,1,18.788,18.788,0,0,1-5.41.017c-.741-.09-1.478-.21-2.218-.3-.2-.025-.276-.108-.267-.3.006-.128,0-.256,0-.384q0-8.688,0-17.375C138.066,312.477,138.078,312.351,138.085,312.193Zm4.127,15.469a7.466,7.466,0,0,0,2.351-.017,1.4,1.4,0,0,0,1.281-1.462c.056-1.278.072-2.559.041-3.836a1.274,1.274,0,0,0-1.262-1.4,3.7,3.7,0,0,0-2.269.461.359.359,0,0,0-.135.28c-.01,1.152-.007,2.3-.007,3.456Z" fill="#fff" fill-rule="evenodd"/>
      <path id="Path_5020" data-name="Path 5020" d="M189.627,330.958h-.758c-1.133,0-2.265-.009-3.4.006a.516.516,0,0,1-.512-.29q-1.665-2.805-3.352-5.6l-.135-.216v6.079c-.134.006-.238.016-.341.016-1.162,0-2.324-.009-3.486.009-.275,0-.354-.075-.352-.346.012-1.308.006-2.62.006-3.929v-14.1c0-.408,0-.4.415-.468,1.133-.186,2.265-.38,3.4-.568.1-.017.2-.019.328-.031v11.816l.068.021c.1-.157.209-.313.309-.472q1.57-2.484,3.135-4.968a.55.55,0,0,1,.536-.308c1.222.02,2.443.007,3.664.007h.477c-.072.137-.114.229-.168.314q-1.861,2.943-3.731,5.883a.483.483,0,0,0-.017.6c1.272,2.094,2.527,4.2,3.785,6.3C189.533,330.775,189.563,330.836,189.627,330.958Z" fill="#fff" fill-rule="evenodd"/>
      <path id="Path_5021" data-name="Path 5021" d="M136.4,327.264c.006.1.017.188.017.274,0,.936,0,1.872.005,2.807,0,.2-.043.281-.262.331a21.685,21.685,0,0,1-5.658.444,6.72,6.72,0,0,1-2.593-.617,4.52,4.52,0,0,1-2.627-3.51,11.345,11.345,0,0,1-.127-1.76c-.018-1.023-.037-2.049.006-3.072a4.828,4.828,0,0,1,1.136-3.094,4.479,4.479,0,0,1,2.508-1.394,9.214,9.214,0,0,1,4.946.185,4,4,0,0,1,2.883,3.508c.162,1.359.132,2.739.188,4.152h-.432c-2.256,0-4.512,0-6.766-.007-.266,0-.356.08-.329.332.022.206.008.416.046.617a1.246,1.246,0,0,0,1.239,1.141,19.223,19.223,0,0,0,2.562.029c1.027-.069,2.047-.24,3.07-.366A1.67,1.67,0,0,1,136.4,327.264Zm-5.431-4.552h.826c.9,0,.9,0,.8-.894a1.192,1.192,0,0,0-1-1.156,3.966,3.966,0,0,0-1.254-.014,1.092,1.092,0,0,0-.965.91,9.04,9.04,0,0,0-.084.9c-.019.194.066.258.256.254C130.025,322.706,130.5,322.712,130.97,322.712Z" fill="#fff" fill-rule="evenodd"/>
      <path id="Path_5022" data-name="Path 5022" d="M176.252,324.266c-.055.927-.048,1.828-.173,2.711a4.352,4.352,0,0,1-3.561,3.875,9.239,9.239,0,0,1-5.036-.131,4.316,4.316,0,0,1-3.126-3.672,13.433,13.433,0,0,1-.121-2.057c-.007-1-.028-2.013.059-3.009a4.488,4.488,0,0,1,3.868-4.328,9.23,9.23,0,0,1,4.837.2,4.272,4.272,0,0,1,3.066,3.622C176.211,322.4,176.2,323.353,176.252,324.266Zm-4.213.03h-.006c0-.651.012-1.3,0-1.949a1.389,1.389,0,0,0-1-1.317,2.712,2.712,0,0,0-1.484-.04,1.372,1.372,0,0,0-1.137,1.3q-.032,1.992,0,3.988a1.305,1.305,0,0,0,1.031,1.283,3.7,3.7,0,0,0,1.135.1,1.469,1.469,0,0,0,1.468-1.589C172.043,325.478,172.039,324.887,172.039,324.3Z" fill="#fff" fill-rule="evenodd"/>
      <path id="Path_5023" data-name="Path 5023" d="M163.2,324.412c-.068.857-.072,1.857-.242,2.829a4.323,4.323,0,0,1-3.6,3.639,9.385,9.385,0,0,1-4.753-.1,4.374,4.374,0,0,1-3.316-3.671,8.593,8.593,0,0,1-.123-1.406c-.016-1.1-.037-2.207.008-3.308a4.85,4.85,0,0,1,1.578-3.654,5.142,5.142,0,0,1,2.613-1.143,9.255,9.255,0,0,1,4.713.306A4.266,4.266,0,0,1,163,321.542C163.136,322.442,163.13,323.362,163.2,324.412Zm-7.867-.134h-.019v1.774a1.955,1.955,0,0,0,.021.264,1.3,1.3,0,0,0,.981,1.23,3.808,3.808,0,0,0,1.221.107,1.454,1.454,0,0,0,1.433-1.474q.012-1.891,0-3.783a1.4,1.4,0,0,0-1.049-1.374,2.71,2.71,0,0,0-1.543,0,1.341,1.341,0,0,0-1.037,1.281C155.309,322.958,155.328,323.618,155.328,324.278Z" fill="#fff" fill-rule="evenodd"/>
      <path id="Path_5024" data-name="Path 5024" d="M108.828,330.255c-.782.248-1.527.53-2.3.714a5.511,5.511,0,0,1-2.774.005,3.406,3.406,0,0,1-2.54-2.848,5.332,5.332,0,0,1,.019-2.139,2.9,2.9,0,0,1,2.4-2.377,10.781,10.781,0,0,1,1.841-.19c.826-.031,1.656-.018,2.483,0,.254.005.332-.079.306-.319a5.348,5.348,0,0,1-.017-.621c.019-1.063-.5-1.29-1.341-1.327-1.337-.056-2.677-.046-4.016-.064-.117,0-.233,0-.4,0,.025-.324.044-.623.073-.921.076-.782.153-1.565.246-2.346a.3.3,0,0,1,.22-.185c1.723.01,3.446.009,5.168.068a6.964,6.964,0,0,1,1.645.312,3.272,3.272,0,0,1,2.435,2.947,13.627,13.627,0,0,1,.124,1.851c.014,2.61,0,5.221.011,7.832,0,.278-.065.373-.358.367q-1.388-.028-2.777,0c-.275.005-.365-.108-.392-.348C108.882,330.511,108.847,330.357,108.828,330.255Zm-1.792-4.037v0c-.305,0-.609-.008-.915,0-.6.019-.855.3-.842.891a.932.932,0,0,0,1.01,1.043,3.411,3.411,0,0,0,1.83-.468.384.384,0,0,0,.145-.28c.018-.314,0-.63.009-.944.008-.2-.078-.257-.263-.25C107.685,326.226,107.361,326.218,107.036,326.218Z" fill="#fff" fill-rule="evenodd"/>
      <path id="Path_5025" data-name="Path 5025" d="M101.538,311.138v2.3c0,.316-.01.63,0,.946.006.192-.058.26-.254.257-.54-.01-1.083-.008-1.625,0a2.474,2.474,0,0,0-.554.072.7.7,0,0,0-.583.688c-.021.726-.006,1.452-.006,2.214h3.039c-.052.555-.1,1.07-.151,1.584s-.12,1.035-.162,1.555c-.018.236-.084.342-.351.336-.8-.02-1.592-.006-2.416-.006v9.846H94.35c-.011-.134-.03-.276-.03-.417q0-4.537.006-9.073c0-.276-.056-.379-.353-.364-.549.027-1.1.008-1.686.008v-.351c0-.886-.005-1.773,0-2.66,0-.495-.058-.447.436-.451.443,0,.887-.013,1.33,0,.216.008.267-.076.268-.273,0-.817-.008-1.635.04-2.451a3.856,3.856,0,0,1,1.117-2.714,3.332,3.332,0,0,1,2.065-.919C98.855,311.175,100.174,311.178,101.538,311.138Z" fill="#fff" fill-rule="evenodd"/>
      <path id="Path_5026" data-name="Path 5026" d="M124,321.349c-.66-.1-1.27-.207-1.88-.291a9,9,0,0,0-3.139-.034,1.21,1.21,0,0,0-1.061,1.235q-.041,2.047,0,4.1a1.122,1.122,0,0,0,1,1.178,11.727,11.727,0,0,0,2.285.091c.86-.057,1.711-.235,2.567-.36a1.608,1.608,0,0,1,.2,0,1.809,1.809,0,0,1,.029.224c0,.955,0,1.91,0,2.865,0,.186-.04.271-.244.318a16.384,16.384,0,0,1-4.652.449,6.012,6.012,0,0,1-3.777-1.379,4.412,4.412,0,0,1-1.507-3.047,35.716,35.716,0,0,1-.053-4.389,4.655,4.655,0,0,1,2.245-3.966,6.346,6.346,0,0,1,2.676-.837,15.425,15.425,0,0,1,5.06.423c.1.021.237.139.237.215C124,319.193,124,320.245,124,321.349Z" fill="#fff" fill-rule="evenodd"/>
    </g>
  </g>
</svg>
