<svg xmlns="http://www.w3.org/2000/svg" width="128.086" height="50" viewBox="0 0 128.086 50">
  <g id="Group_1940" data-name="Group 1940" transform="translate(-242.914 -298.144)">
    <path id="Path_5037" data-name="Path 5037" d="M246.914,342.729V301.558l-2,2v41.172Z" fill="#0e76a8"/>
    <rect id="Rectangle_555" data-name="Rectangle 555" width="120.086" height="42" transform="translate(248.914 300.144)" fill="#0e76a8"/>
    <path id="Path_5038" data-name="Path 5038" d="M248.328,344.144l-2,2H365.586l2-2Z" fill="#0e76a8"/>
    <path id="Path_5039" data-name="Path 5039" d="M370,298.144H247.914a.994.994,0,0,0-.708.294l-4,4a1,1,0,0,0-.293.708v44a1,1,0,0,0,1,1H366a1,1,0,0,0,.707-.293l4-4a.994.994,0,0,0,.294-.708v-44A1,1,0,0,0,370,298.144Zm-121.086,2H369v42H248.914Zm-2,1.414v41.171l-2,2V303.558Zm118.672,44.586H246.328l2-2H367.586Z" fill="#1d1d1b"/>
    <g id="Group_1939" data-name="Group 1939">
      <g id="Group_1938" data-name="Group 1938">
        <path id="Path_5040" data-name="Path 5040" d="M263.41,313.416h3.444v12.369h6.072v2.9H263.41Z" fill="#fff"/>
        <path id="Path_5041" data-name="Path 5041" d="M277.707,314.525a1.717,1.717,0,0,1-1.859,1.723,1.725,1.725,0,1,1,1.859-1.723Zm-3.558,14.163V317.607h3.443v11.081Z" fill="#fff"/>
        <path id="Path_5042" data-name="Path 5042" d="M279.653,321.141c0-1.381-.046-2.538-.089-3.534h2.991l.158,1.539h.068a3.981,3.981,0,0,1,3.42-1.789c2.267,0,3.966,1.52,3.966,4.782v6.549h-3.444v-6.141c0-1.428-.5-2.4-1.744-2.4a1.9,1.9,0,0,0-1.77,1.291,2.548,2.548,0,0,0-.11.861v6.391h-3.446Z" fill="#fff"/>
        <path id="Path_5043" data-name="Path 5043" d="M295.673,322.275h.044a14.793,14.793,0,0,1,.793-1.337l2.244-3.331H302.9l-3.964,4.487,4.531,6.594h-4.237l-2.7-4.555-.86,1.088v3.467h-3.445V312.6h3.445Z" fill="#fff"/>
        <path id="Path_5044" data-name="Path 5044" d="M306.139,324.246c.091,1.428,1.517,2.106,3.127,2.106a9.11,9.11,0,0,0,3.059-.475l.452,2.334a10.442,10.442,0,0,1-4.01.7c-3.76,0-5.913-2.176-5.913-5.643,0-2.808,1.744-5.914,5.6-5.914,3.58,0,4.94,2.788,4.94,5.53a7.974,7.974,0,0,1-.114,1.359Zm4.055-2.357a2,2,0,0,0-1.948-2.243,2.275,2.275,0,0,0-2.129,2.243Z" fill="#fff"/>
        <path id="Path_5045" data-name="Path 5045" d="M325.488,312.6v12.779c0,1.246.044,2.559.091,3.309H322.52l-.137-1.61h-.067a3.872,3.872,0,0,1-3.467,1.86c-2.628,0-4.736-2.245-4.736-5.688-.021-3.74,2.312-5.914,4.963-5.914A3.4,3.4,0,0,1,322,318.58h.046V312.6Zm-3.445,9.7a3.062,3.062,0,0,0-.046-.635,2.067,2.067,0,0,0-2.015-1.676c-1.587,0-2.379,1.4-2.379,3.151,0,1.879.929,3.058,2.356,3.058a2.038,2.038,0,0,0,2.016-1.654,4.512,4.512,0,0,0,.068-.793Z" fill="#fff"/>
      </g>
      <path id="Path_5046" data-name="Path 5046" d="M351.924,308.193H331.488a2.585,2.585,0,0,0-2.581,2.59V331.5a2.586,2.586,0,0,0,2.581,2.59h20.436a2.585,2.585,0,0,0,2.58-2.59V310.783A2.584,2.584,0,0,0,351.924,308.193Zm-14.8,20.495h-3.442V317.607h3.442Zm-1.743-12.44a1.725,1.725,0,1,1,1.856-1.723A1.716,1.716,0,0,1,335.377,316.248Zm14.316,12.44h-3.442v-6.141c0-1.428-.5-2.4-1.745-2.4a1.9,1.9,0,0,0-1.768,1.291,2.5,2.5,0,0,0-.113.861v6.391h-3.442v-7.547c0-1.381-.046-2.538-.092-3.534h2.991l.158,1.539h.069a3.983,3.983,0,0,1,3.421-1.789c2.266,0,3.963,1.52,3.963,4.782Z" fill="#fff"/>
    </g>
  </g>
</svg>
