<svg xmlns="http://www.w3.org/2000/svg" width="85.592" height="63.688" viewBox="0 0 85.592 63.688">
  <g id="Group_147" data-name="Group 147" transform="translate(-654.435 -232.329)">
    <path id="Path_371" data-name="Path 371" d="M665.879,247.773v13.346h-2.388v-5.372h-6.669v5.372h-2.388V247.773h2.388v5.856h6.669v-5.856Z" transform="translate(0 9.683)" fill="#fff"/>
    <path id="Path_372" data-name="Path 372" d="M666.694,261.128h-2.555l6.4-13.346h2.437l7.263,13.33H677.65l-5.907-10.85Z" transform="translate(6.084 9.689)" fill="#fff"/>
    <path id="Path_373" data-name="Path 373" d="M710.9,261.118h-2.248v-3.032h-7.773l1.1-2.1,4.53-8.217h2.56l-4.509,8.217H710.9Z" transform="translate(29.123 9.683)" fill="#fff"/>
    <path id="Path_374" data-name="Path 374" d="M686.572,251.353a4.388,4.388,0,0,0-3.374-1.523,4.69,4.69,0,0,0,0,9.376,4.34,4.34,0,0,0,3.405-1.58,2.937,2.937,0,0,0,.472-.719h2.592a7.8,7.8,0,0,1-.76,1.383,8.345,8.345,0,0,1-2.185,2.073,7.223,7.223,0,0,1-3.653,1.018,6.864,6.864,0,0,1,.021-13.727,7.15,7.15,0,0,1,5.34,2.478,6.723,6.723,0,0,1,1.22,1.9l-2.613.008a2,2,0,0,0-.465-.687" transform="translate(13.68 9.609)" fill="#fff"/>
    <path id="Path_375" data-name="Path 375" d="M690.382,261.107l-2.56.011V247.773h2.243v9.222l5.04-9.222h2.565l-3.818,6.994,4.713,6.351h-2.8l-3.1-4.177Z" transform="translate(20.934 9.683)" fill="#fff"/>
    <path id="Path_376" data-name="Path 376" d="M698.755,257.005l-12.868,23.54-12.881-23.54h2.582l10.3,18.838,10.288-18.838Z" transform="translate(11.644 15.472)" fill="#fff"/>
    <path id="Path_377" data-name="Path 377" d="M723.262,240.116l-1.274,2.336L714.7,255.774h-2.571l7.824-14.329c-18.885-9.116-35.54-9.064-54.542-.049l7.852,14.378H670.7L663.4,242.413l-1.263-2.314,2.062-.942,3.54-1.62a62.63,62.63,0,0,1,51.252.555l2.227,1.056Z" transform="translate(4.828 0)" fill="#fff"/>
  </g>
</svg>
