<svg xmlns="http://www.w3.org/2000/svg" width="439" height="439" viewBox="0 0 439 439">
  <g id="step3" transform="translate(-1231 -1387.5)">
    <rect id="Rectangle_78" data-name="Rectangle 78" width="439" height="439" transform="translate(1231 1387.5)" fill="#9842f4"/>
    <g id="Group_449" data-name="Group 449" transform="translate(955.495 1243.999)">
      <g id="Group_426" data-name="Group 426" transform="translate(-3 -11)">
        <path id="Path_1792" data-name="Path 1792" d="M640.863,223.745a9.506,9.506,0,1,0,9.078,6.939.806.806,0,0,1,.309-.871L664.293,219.8a.8.8,0,0,1,.976.031,9.287,9.287,0,0,0,5.919,2.108,9.472,9.472,0,0,0,6.688-16.137l-.05-.049a9.372,9.372,0,0,0-11.055-1.643.8.8,0,0,1-.849-.054l-15.673-11.178a.806.806,0,0,1-.309-.871,9.422,9.422,0,0,0-2.355-9.165l-.124-.124a9.473,9.473,0,1,0-1.5,14.712.806.806,0,0,1,.906.019l15.189,10.83a.8.8,0,0,1,.289.933,9.071,9.071,0,0,0-.454,4.773.8.8,0,0,1-.328.783l-14.692,10.477a.81.81,0,0,1-.907.02A9.338,9.338,0,0,0,640.863,223.745Z" transform="translate(-0.389 -0.389)" fill="#00ffc0"/>
        <path id="Path_1793" data-name="Path 1793" d="M656.49,193.533l6.327,4.513a9.516,9.516,0,0,0-3-6.176l.554-.6-.578.578-3.36-3.365a11.106,11.106,0,0,1,.328,2.635A10.952,10.952,0,0,1,656.49,193.533Z" transform="translate(-5.247 -2.037)" fill="#02a679"/>
        <path id="Path_1794" data-name="Path 1794" d="M666.034,215.123l-6.821-4.863.811.812,5.957,4.246C666,215.253,666.014,215.188,666.034,215.123Z" transform="translate(-5.787 -6.269)" fill="#02a679"/>
        <path id="Path_1795" data-name="Path 1795" d="M642.512,205.167a10.944,10.944,0,0,1-2.59-.321l3.814,3.815a9.338,9.338,0,0,0,10.7,1.582l-6.513-6.513A10.937,10.937,0,0,1,642.512,205.167Z" transform="translate(-2.038 -5)" fill="#02a679"/>
        <path id="Path_1796" data-name="Path 1796" d="M653.533,245.483c.006.153.026.307.026.459a11.074,11.074,0,0,1-11.042,11.081,10.923,10.923,0,0,1-2.572-.317c1.9,1.893,2.8,2.8,3.188,3.294l.058-.052a9.417,9.417,0,0,0,16.462-6.3,9.552,9.552,0,0,0-.326-2.407Z" transform="translate(-2.043 -13.113)" fill="#02a679"/>
        <path id="Path_1797" data-name="Path 1797" d="M656.913,240.593l6.574,6.531,12.614-9-6.544-6.553Z" transform="translate(-5.34 -10.411)" fill="#02a679"/>
        <path id="Path_1798" data-name="Path 1798" d="M680.139,230.743a10.961,10.961,0,0,1-2.64-.328l4.17,4.177a.79.79,0,0,1,.255.135,9.287,9.287,0,0,0,5.919,2.108,9.472,9.472,0,0,0,6.883-15.934c-.015-.014-.03-.027-.044-.041l-3.831-3.836a11.044,11.044,0,0,1-10.712,13.718Z" transform="translate(-9.34 -7.583)" fill="#02a679"/>
        <path id="Path_1799" data-name="Path 1799" d="M640.474,221.745A11.075,11.075,0,0,0,633,240.958l-.008.007s6.885,6.873,6.955,6.943a11.037,11.037,0,0,0,19-9.787l13.111-9.35a11.06,11.06,0,0,0,14.443-16.62.81.81,0,0,0-.077-.071l-7.811-7.821-.022-.023-.027-.027v0a10.98,10.98,0,0,0-12.49-2.14l-6.867-4.9c0-.129.016-.257.016-.387a11.135,11.135,0,0,0-3.553-8.137l0,0-7.345-7.356-.09-.09-.462-.462-.021.022A10.963,10.963,0,0,0,640.474,178a11.079,11.079,0,0,0-7.643,19.062l0,0,7.678,7.68.073.07a10.968,10.968,0,0,0,13.105,1.568l6.161,4.393a10.809,10.809,0,0,0-.086,1.3,10.191,10.191,0,0,0,.083,1.273l-13.859,9.882A10.935,10.935,0,0,0,640.474,221.745ZM648.18,250a9.425,9.425,0,0,1-7.031-3.168l-.058.052c-.388-.495-1.292-1.4-3.188-3.294a10.922,10.922,0,0,0,2.572.317,11.074,11.074,0,0,0,11.042-11.081c0-.152-.019-.306-.026-.459l5.794,5.757A9.42,9.42,0,0,1,648.18,250Zm9.967-13.291-6.573-6.531,12.644-9.018,6.544,6.553Zm27.2-23.436c.014.014.029.027.044.041a9.472,9.472,0,0,1-6.883,15.934,9.287,9.287,0,0,1-5.919-2.108.79.79,0,0,0-.255-.135l-4.17-4.177a10.961,10.961,0,0,0,2.64.328,11.044,11.044,0,0,0,10.712-13.718Zm-30.795-23.465.578-.578-.554.6a9.517,9.517,0,0,1,3,6.176l-6.327-4.513a10.952,10.952,0,0,0,.273-2.411,11.109,11.109,0,0,0-.328-2.635ZM648.18,206.26a9.349,9.349,0,0,1-6.482-2.6l-3.814-3.815a10.81,10.81,0,0,0,8-1.116l6.513,6.513A9.312,9.312,0,0,1,648.18,206.26Zm6.058-1.457-.811-.812,6.821,4.863c-.02.064-.034.13-.052.195Zm-7.755,20.052,14.692-10.477a.8.8,0,0,0,.328-.783,9.072,9.072,0,0,1,.454-4.773.8.8,0,0,0-.289-.933l-15.189-10.83a.806.806,0,0,0-.906-.019,9.349,9.349,0,0,1-5.1,1.516,9.472,9.472,0,1,1,6.6-16.228l.124.124a9.422,9.422,0,0,1,2.355,9.165.805.805,0,0,0,.309.871l15.673,11.178a.8.8,0,0,0,.849.054,9.371,9.371,0,0,1,11.055,1.643l.05.049a9.472,9.472,0,0,1-6.688,16.137,9.287,9.287,0,0,1-5.919-2.108.8.8,0,0,0-.976-.031L649.86,229.424a.806.806,0,0,0-.309.871,9.42,9.42,0,1,1-9.078-6.939,9.338,9.338,0,0,1,5.1,1.52A.81.81,0,0,0,646.483,224.855Z" fill="#1d1d1b"/>
      </g>
      <g id="Group_427" data-name="Group 427">
        <path id="Path_1800" data-name="Path 1800" d="M391.288,465.678,405.2,496.111l5.491-5.49-13.908-30.434Z" fill="#a82749"/>
        <path id="Path_1801" data-name="Path 1801" d="M421.528,409.331a10.99,10.99,0,0,0-8.839,4.448,1,1,0,0,1-.8.408h0a1,1,0,0,1-.8-.4,11.175,11.175,0,0,0-1.143-1.3,11.042,11.042,0,0,0-15.45,15.78l17.4,17.4,17.51-17.505a10.921,10.921,0,0,0,3.2-7.764A11.2,11.2,0,0,0,421.528,409.331Z" fill="#ec3557"/>
        <path id="Path_1802" data-name="Path 1802" d="M426.626,457.581h31.259v-61.5h-92v61.5h31.259a1,1,0,0,1,.909.584l13.832,30.266c3.2-7,13.753-30.1,13.83-30.263A1,1,0,0,1,426.626,457.581Zm-14.741-9.5a1,1,0,0,1-.707-.293l-18.1-18.1a13.042,13.042,0,0,1,18.256-18.63q.285.279.541.56a13,13,0,0,1,9.624-4.28,13.216,13.216,0,0,1,13.089,13.046,12.941,12.941,0,0,1-3.784,9.2l-18.216,18.21A1,1,0,0,1,411.885,448.077Z" fill="#ec3557"/>
        <path id="Path_1803" data-name="Path 1803" d="M365.3,459.581l-5,5h29.258l5-5Z" fill="#a82749"/>
        <path id="Path_1804" data-name="Path 1804" d="M363.885,397.5l-5,5v60.672l5-5Z" fill="#a82749"/>
        <path id="Path_1805" data-name="Path 1805" d="M425.232,464.037l-.249.544h26.488l5-5H427.232C426.894,460.4,426.28,461.744,425.232,464.037Z" fill="#a82749"/>
        <path id="Path_1806" data-name="Path 1806" d="M424.069,466.581h27.816a1,1,0,0,0,.707-.293l7-7a1,1,0,0,0,.294-.708v-63.5a1,1,0,0,0-1-1h-94a.994.994,0,0,0-.708.294l-7,7a1,1,0,0,0-.293.707v63.5a1,1,0,0,0,1,1H389.5l14.474,31.672a1,1,0,0,0,.733.568.964.964,0,0,0,.177.016,1,1,0,0,0,.707-.293l7-7-.005-.005a1.006,1.006,0,0,0,.208-.286Zm27.4-2H424.983l.249-.544c1.048-2.293,1.662-3.637,2-4.456h29.239Zm-92.586-62.086,5-5v60.672l-5,5Zm1.414,62.086,5-5h29.258l-5,5Zm44.9,31.53-13.908-30.433,5.49-5.49,13.909,30.433Zm6.689-7.68-13.832-30.266a1,1,0,0,0-.909-.584H365.885v-61.5h92v61.5H426.626a1,1,0,0,0-.911.587C425.638,458.336,415.086,481.428,411.885,488.431Z" fill="#1d1d1b"/>
        <path id="Path_1807" data-name="Path 1807" d="M434.592,420.377A13.216,13.216,0,0,0,421.5,407.331a13,13,0,0,0-9.624,4.28q-.256-.28-.541-.56a13.042,13.042,0,0,0-18.256,18.63l18.1,18.1a1,1,0,0,0,1.414,0l18.216-18.21A12.941,12.941,0,0,0,434.592,420.377Zm-22.707,25.286-17.4-17.4a11.042,11.042,0,0,1,15.45-15.78,11.175,11.175,0,0,1,1.143,1.3,1,1,0,0,0,.8.4h0a1,1,0,0,0,.8-.408,10.99,10.99,0,0,1,8.839-4.448,11.2,11.2,0,0,1,11.064,11.063,10.921,10.921,0,0,1-3.2,7.764Z" fill="#1d1d1b"/>
      </g>
      <g id="Group_428" data-name="Group 428">
        <path id="Path_1808" data-name="Path 1808" d="M474.468,248.814l16.912,19.5V249.469a1,1,0,0,1,1-1H509.8V202.328H442.484v46.141h31.228A1,1,0,0,1,474.468,248.814Zm25.9-13.545h-21.5v-2h21.5Zm-45.5-22.926h45.5v2h-45.5ZM465.5,222.806h34.871v2H465.5Z" fill="#ffbc06"/>
        <path id="Path_1809" data-name="Path 1809" d="M440.484,203.742l-7.119,7.12v45.313l7.119-7.12Z" fill="#c48700"/>
        <path id="Path_1810" data-name="Path 1810" d="M464.178,257.589l7.12-7.12H441.9l-7.119,7.12Z" fill="#c48700"/>
        <path id="Path_1811" data-name="Path 1811" d="M465.958,258.637l17.355,20.009,7.7-7.7L473.66,250.936Z" fill="#c48700"/>
        <path id="Path_1812" data-name="Path 1812" d="M493.38,257.589h7.891l7.12-7.12H493.38Z" fill="#c48700"/>
        <path id="Path_1813" data-name="Path 1813" d="M432.365,259.589h31.771l18.369,21.178a1,1,0,0,0,.72.343h.036a1,1,0,0,0,.707-.293l9.119-9.119-.007-.008a.989.989,0,0,0,.3-.7v-11.4H502.1l9.412-9.412a.994.994,0,0,0,.294-.708V201.328a1,1,0,0,0-1-1H441.484a1,1,0,0,0-.708.294l-9.118,9.119a1,1,0,0,0-.293.707v48.141A1,1,0,0,0,432.365,259.589Zm50.948,19.057-17.355-20.009,7.7-7.7,17.355,20.007Zm17.958-21.057H493.38v-7.12h15.011Zm-58.787-55.261H509.8v46.141H492.38a1,1,0,0,0-1,1v18.845l-16.912-19.5a1,1,0,0,0-.756-.345H442.484Zm-.586,48.141h29.4l-7.12,7.12h-29.4Zm-8.533-39.607,7.119-7.12v45.313l-7.119,7.12Z" fill="#1d1d1b"/>
        <rect id="Rectangle_120" data-name="Rectangle 120" width="45.5" height="2" transform="translate(454.872 212.343)" fill="#1d1d1b"/>
        <rect id="Rectangle_121" data-name="Rectangle 121" width="34.871" height="2" transform="translate(465.501 222.806)" fill="#1d1d1b"/>
        <rect id="Rectangle_122" data-name="Rectangle 122" width="21.5" height="2" transform="translate(478.872 233.268)" fill="#1d1d1b"/>
      </g>
      <g id="Group_429" data-name="Group 429" transform="translate(12 -1)">
        <path id="Path_1814" data-name="Path 1814" d="M449.227,544.926l-13.821-4.65a.778.778,0,0,1-.006-1.472l13.827-4.778V527.71l-21.637,8.81v5.933l21.637,8.811Z" transform="translate(-1.54 -3.192)" fill="#00f7ff"/>
        <path id="Path_1815" data-name="Path 1815" d="M461.679,556.209l12.03-38.27-1.455,1.455-12.03,38.269Z" transform="translate(-8.794 -1.021)" fill="#00ada4"/>
        <path id="Path_1816" data-name="Path 1816" d="M425.424,546.6a.778.778,0,0,1-.485-.72v-5.1l-2.277,2.279v6.134l22.229,9.052,2.64-2.64Z" transform="translate(-0.445 -6.097)" fill="#00ada4"/>
        <path id="Path_1817" data-name="Path 1817" d="M441.058,542.018l1.264.425,6.42-2.218,1.318-1.318Z" transform="translate(-4.534 -5.682)" fill="#00ada4"/>
        <path id="Path_1818" data-name="Path 1818" d="M476.888,515.348l-12.55,39.923h4.64l12.575-39.923Z" transform="translate(-9.708 -0.444)" fill="#00f7ff"/>
        <path id="Path_1819" data-name="Path 1819" d="M491.081,558.221a.778.778,0,0,1-.778-.778v-6.151l-2.278,2.278v6.547l21.843-8.946.986-.985-19.479,7.977A.778.778,0,0,1,491.081,558.221Z" transform="translate(-14.973 -8.188)" fill="#00ada4"/>
        <path id="Path_1820" data-name="Path 1820" d="M492.954,534.058l13.744,4.675a.777.777,0,0,1,0,1.471l-13.748,4.777V551.3l21.5-8.807v-5.936l-21.5-8.807Z" transform="translate(-16.069 -3.2)" fill="#00f7ff"/>
        <path id="Path_1821" data-name="Path 1821" d="M460.461,570.958h4.07l2.278-2.278h-4.07Z" transform="translate(-8.847 -12.299)" fill="#00ada4"/>
        <path id="Path_1822" data-name="Path 1822" d="M502.96,539.683l-12.129-4.126a.776.776,0,0,1-.527-.736v-6.146l-2.278,2.274V538.1l9.852,3.352Z" transform="translate(-14.973 -3.407)" fill="#00ada4"/>
        <path id="Path_1823" data-name="Path 1823" d="M481.735,514.359a.778.778,0,0,0-.742-1.011h-6.3a.768.768,0,0,0-.543.234l-.007-.006-3.833,3.833a.791.791,0,0,0-.193.317L457.083,559.2a.778.778,0,0,0,.742,1.01h6.27a.777.777,0,0,0,.55-.228l3.833-3.833-.007-.007a.758.758,0,0,0,.2-.31Zm-10.187,4.015L473,516.919l-12.031,38.27-1.455,1.455Zm-7.776,40.284H459.7l2.278-2.277h4.071Zm3.584-3.833h-4.64l12.55-39.923h4.666Z" transform="translate(-8.088)" fill="#1d1d1b"/>
        <path id="Path_1824" data-name="Path 1824" d="M513.991,534.758l-23.06-9.445a.78.78,0,0,0-.728.075.722.722,0,0,0-.114.1l0,0c-.012.012-.026.023-.037.037l-3.8,3.791a.776.776,0,0,0-.228.551v8.027a.777.777,0,0,0,.527.736l8.492,2.889-4.663,1.621a.78.78,0,0,0-.289.191l-.005-.006-3.833,3.833a.776.776,0,0,0-.228.55v8.028a.779.779,0,0,0,1.072.72l23.06-9.444a.777.777,0,0,0,.255-.17l3.833-3.833-.005-.005a.767.767,0,0,0,.233-.544v-6.98A.778.778,0,0,0,513.991,534.758Zm-26.411,2.579V530.19l2.278-2.274v6.146a.776.776,0,0,0,.527.736l12.129,4.126-5.082,1.766Zm21.843,8.293-21.843,8.946v-6.547l2.278-2.278V551.9a.777.777,0,0,0,1.072.719l19.479-7.977Zm3.495-3.694-21.5,8.807v-6.316l13.749-4.777a.777.777,0,0,0,0-1.471L491.414,533.5v-6.312l21.5,8.807Z" transform="translate(-14.529 -2.647)" fill="#1d1d1b"/>
        <path id="Path_1825" data-name="Path 1825" d="M449.011,552.416a.778.778,0,0,0,.231-.548v-8.053a.778.778,0,0,0-.53-.737l-8.511-2.864,4.683-1.618a.784.784,0,0,0,.3-.185l3.833-3.833-.006-.006a.77.77,0,0,0,.234-.544V526a.777.777,0,0,0-1.071-.72l-23.192,9.443a.763.763,0,0,0-.251.176l-.005-.005-3.833,3.834a.774.774,0,0,0-.228.55v6.979a.776.776,0,0,0,.485.719l23.192,9.445a.777.777,0,0,0,.843-.17l3.833-3.833Zm-4.8-15.232-6.42,2.217-1.264-.425,9-3.11Zm-18.158-1.217,21.637-8.81v6.316l-13.827,4.778a.778.778,0,0,0,.006,1.472l13.821,4.65v6.338L426.05,541.9Zm18.4,18.818-22.229-9.052V539.6l2.277-2.279v5.1a.778.778,0,0,0,.485.72l22.107,9Z" transform="translate(0 -2.639)" fill="#1d1d1b"/>
      </g>
      <g id="Group_431" data-name="Group 431">
        <path id="Path_1826" data-name="Path 1826" d="M393.179,311.2h52.3l2.865-2.865h-52.3Z" fill="#4242bc"/>
        <g id="Group_430" data-name="Group 430">
          <path id="Path_1827" data-name="Path 1827" d="M394.63,254.621l-2.865,2.865v52.3l2.865-2.865Z" fill="#4242bc"/>
          <path id="Path_1828" data-name="Path 1828" d="M401.6,306.333h43.183a21.615,21.615,0,0,0-43.183,0Z" fill="#d70086"/>
          <path id="Path_1829" data-name="Path 1829" d="M396.63,306.333H399.6a23.655,23.655,0,0,1,18.044-21.951,12.31,12.31,0,1,1,11.093,0,23.655,23.655,0,0,1,18.046,21.951h2.971V253.207H396.63Z" fill="#5858f2"/>
          <path id="Path_1830" data-name="Path 1830" d="M433.5,273.406a10.309,10.309,0,1,0-10.31,10.312A10.321,10.321,0,0,0,433.5,273.406Z" fill="#d70086"/>
          <path id="Path_1831" data-name="Path 1831" d="M450.756,251.207H395.63a1,1,0,0,0-.708.294l-4.864,4.864a1,1,0,0,0-.293.707V312.2a1,1,0,0,0,1,1h55.126a1,1,0,0,0,.707-.293l4.864-4.864a1,1,0,0,0,.294-.708V252.207A1,1,0,0,0,450.756,251.207Zm-58.991,6.279,2.865-2.865v52.3l-2.865,2.865ZM445.477,311.2h-52.3l2.866-2.865h52.3Zm-.692-4.865H401.6a21.615,21.615,0,0,1,43.183,0Zm-31.9-32.927a10.309,10.309,0,1,1,10.307,10.312A10.319,10.319,0,0,1,412.885,273.406Zm36.871,32.927h-2.971a23.655,23.655,0,0,0-18.046-21.951,12.307,12.307,0,1,0-11.093,0A23.655,23.655,0,0,0,399.6,306.333H396.63V253.207h53.126Z" fill="#1d1d1b"/>
        </g>
      </g>
      <g id="Group_432" data-name="Group 432">
        <path id="Path_1832" data-name="Path 1832" d="M379.337,356.321h29.834l5.953-5.953H384.5Z" fill="#02a679"/>
        <path id="Path_1833" data-name="Path 1833" d="M357.691,377.273l5.953-5.952V351.782l-5.953,5.953Z" fill="#02a679"/>
        <path id="Path_1834" data-name="Path 1834" d="M345.911,350.368l-5.953,5.953h16.319l5.953-5.953Z" fill="#02a679"/>
        <path id="Path_1835" data-name="Path 1835" d="M344.5,301.751l-5.953,5.953v47.2l5.953-5.953Z" fill="#02a679"/>
        <path id="Path_1836" data-name="Path 1836" d="M346.5,348.368h18.148a1,1,0,0,1,1,1v19.689l14.613-16.849c3.33-3.84,3.33-3.84,3.787-3.84h32.493V300.337H346.5Zm11.271-35.429h22.75v2h-22.75Zm0,10.463h41.771v2H357.768Zm0,10.463h30.1v2h-30.1Z" fill="#00ffc0"/>
        <path id="Path_1837" data-name="Path 1837" d="M417.538,298.337H345.5a.99.99,0,0,0-.707.294l-7.953,7.952a1,1,0,0,0-.292.707v50.031a1,1,0,0,0,1,1h18.146v21.367a1,1,0,0,0,.618.923.987.987,0,0,0,.382.077,1,1,0,0,0,.708-.293l7.953-7.953-.01-.008c.018-.018.042-.025.058-.043l12.2-14.07h31.983a1,1,0,0,0,.707-.293l7.951-7.952a.994.994,0,0,0,.294-.708V299.337A1,1,0,0,0,417.538,298.337ZM338.545,307.7l5.952-5.953v47.2l-5.952,5.953Zm17.732,48.617H339.959l5.952-5.953h16.32Zm7.368,15-5.954,5.952V357.735l5.954-5.953Zm45.526-15H379.337l5.164-5.953h30.623Zm7.367-7.953H384.045c-.457,0-.457,0-3.787,3.84l-14.613,16.849V349.368a1,1,0,0,0-1-1H346.5V300.337h70.041Z" fill="#1d1d1b"/>
        <rect id="Rectangle_123" data-name="Rectangle 123" width="22.75" height="2" transform="translate(357.768 312.939)" fill="#1d1d1b"/>
        <rect id="Rectangle_124" data-name="Rectangle 124" width="41.771" height="2" transform="translate(357.768 323.402)" fill="#1d1d1b"/>
        <rect id="Rectangle_125" data-name="Rectangle 125" width="30.104" height="2" transform="translate(357.768 333.865)" fill="#1d1d1b"/>
      </g>
      <g id="Group_435" data-name="Group 435" transform="translate(3)">
        <path id="Path_1838" data-name="Path 1838" d="M619.542,378.34a21.359,21.359,0,0,1,3-3.408V279.681a10.1,10.1,0,0,0-2.147-6.26L619.3,272.3a12.155,12.155,0,0,1,.237,2.376Z" fill="#00ada4"/>
        <path id="Path_1839" data-name="Path 1839" d="M552.2,275.684h26.666a2.167,2.167,0,0,0,0-4.334H552.2a2.167,2.167,0,0,0,0,4.334Z" fill="#00ada4"/>
        <path id="Path_1840" data-name="Path 1840" d="M544.569,313.069a4.1,4.1,0,1,0-4.1,4.1A4.105,4.105,0,0,0,544.569,313.069Z" fill="#d70086"/>
        <path id="Path_1841" data-name="Path 1841" d="M503.089,413.77a12.593,12.593,0,0,0,5.457,1.249,10.9,10.9,0,0,0,10.042-6.05l2.2-4.627c2.608-5.477-.1-12.233-6.039-15.062l-14.468-6.889a12.593,12.593,0,0,0-5.457-1.249,10.9,10.9,0,0,0-10.042,6.049l-2.2,4.627a10.52,10.52,0,0,0-.2,8.491,12,12,0,0,0,.833,1.667l.317.515a12.574,12.574,0,0,0,5.092,4.389Zm-3.274-17.661c.088-.188,2.716-5.62,8.806-5.62,3.1,0,6.51,1.449,10.134,4.3a1,1,0,0,1,.368.945c-.085.525-2.185,12.893-10.71,16.631a1,1,0,0,1-.4.084,1.055,1.055,0,0,1-.249-.031c-.272-.07-6.7-1.773-8.91-6.786C497.62,402.846,497.944,399.641,499.815,396.109Z" fill="#ffe2d9"/>
        <path id="Path_1842" data-name="Path 1842" d="M610.7,435.369V284.684H520.032V390.7a13.047,13.047,0,0,1,2.566,14.5l-2.2,4.627c-.113.236-.236.467-.362.694v39.494H598.9A32.4,32.4,0,0,1,610.7,435.369ZM527.037,303.508a1,1,0,0,1,1-1H552.9a1,1,0,0,1,1,1v24.863a1,1,0,0,1-1,1H528.037a1,1,0,0,1-1-1Zm0,131.6V362.173a1,1,0,0,1,1-1h72.935a1,1,0,0,1,1,1v72.934a1,1,0,0,1-1,1H528.037A1,1,0,0,1,527.037,435.107Z" fill="#fff"/>
        <path id="Path_1843" data-name="Path 1843" d="M512.774,428.826c-2.788-2.1-5.349-3.161-7.62-3.161-4.345,0-6.276,3.925-6.356,4.092-1.446,2.73-1.723,5.1-.843,7.1,1.415,3.2,5.393,4.669,6.563,5.04C510.213,439.133,512.3,431.057,512.774,428.826Z" fill="#fff3f0"/>
        <path id="Path_1844" data-name="Path 1844" d="M492.514,413.266a13.467,13.467,0,0,1,5.826,1.33l12.849,6.121v-3.948a14.27,14.27,0,0,1-2.643.25,14.578,14.578,0,0,1-6.317-1.444l-14.468-6.889c-.219-.105-.426-.227-.639-.341l3.143,5.12A13.119,13.119,0,0,1,492.514,413.266Z" fill="#ffe2d9"/>
        <rect id="Rectangle_126" data-name="Rectangle 126" width="70.935" height="70.935" transform="translate(529.037 363.173)" fill="#e8e8e8"/>
        <path id="Path_1845" data-name="Path 1845" d="M502.374,378.876c3.939,0,7.735-2.626,9.672-6.69l2.2-4.627a11.945,11.945,0,0,0,.847-8.273,8.653,8.653,0,0,0-4.571-5.685l-11.6-5.526a8.119,8.119,0,0,0-3.514-.786c-3.939,0-7.735,2.626-9.671,6.691l-2.2,4.626c-2.608,5.477-.938,11.738,3.724,13.959l11.6,5.524A8.1,8.1,0,0,0,502.374,378.876Zm-7.568-9.9a15.01,15.01,0,0,1,3.6-11.078,8.164,8.164,0,0,1,9.231-2.519,15.787,15.787,0,0,1,3.8,2.051l.106.077a4.867,4.867,0,0,1,1.522,1.551c.358.714-1.69,12.464-9.553,16.824a1.665,1.665,0,0,1-.822.187,13.111,13.111,0,0,1-4.483-1.451A7.686,7.686,0,0,1,494.806,368.976Z" fill="#ffe2d9"/>
        <path id="Path_1846" data-name="Path 1846" d="M494.828,379.142a14.5,14.5,0,0,1,1.867.131l-7.834-3.73,2.9,3.936A14.1,14.1,0,0,1,494.828,379.142Z" fill="#ffe2d9"/>
        <path id="Path_1847" data-name="Path 1847" d="M511.141,359.768a4.535,4.535,0,0,0-.756-.633l-.14-.1a13.789,13.789,0,0,0-3.317-1.783,6.164,6.164,0,0,0-2.183-.417,6.513,6.513,0,0,0-4.85,2.4,13.042,13.042,0,0,0-3.106,9.482,5.669,5.669,0,0,0,2.515,4.228,13.007,13.007,0,0,0,3.354,1.125C509.016,370.452,510.823,361.644,511.141,359.768Z" fill="#fff3f0"/>
        <path id="Path_1848" data-name="Path 1848" d="M507.934,410.389c6.312-3.034,8.6-12.03,9.1-14.4-3.076-2.324-5.906-3.5-8.416-3.5-4.8,0-6.931,4.333-7.019,4.518-1.59,3-1.893,5.62-.92,7.821C502.254,408.388,506.691,410,507.934,410.389Z" fill="#fff3f0"/>
        <path id="Path_1849" data-name="Path 1849" d="M499.786,346.271l11.4,5.429V323.561q-4.2-3.863-8.4-7.719-2.259-2.072-4.533-4.132c-3.739-3.4-7.6-6.912-11.309-10.473-2.014-1.935-4.409-3.975-7.353-3.7-6.135.585-12.483,6.895-13.062,12.984-.28,2.945,1.762,5.339,3.7,7.353,3.564,3.708,7.081,7.577,10.482,11.319q2.058,2.265,4.122,4.523l1.219,1.33c3.235,3.527,6.081,6.631,9.4,10.242A10.092,10.092,0,0,1,499.786,346.271Z" fill="#ffe2d9"/>
        <path id="Path_1850" data-name="Path 1850" d="M501.677,380.838l9.512,4.53v-8.46a12.346,12.346,0,0,1-8.815,3.968C502.139,380.876,501.909,380.854,501.677,380.838Z" fill="#ffe2d9"/>
        <path id="Path_1851" data-name="Path 1851" d="M517.024,358.757a13.93,13.93,0,0,1-.969,9.661l-2.2,4.627c-.2.424-.427.828-.663,1.224V386.32l2.424,1.156a14.916,14.916,0,0,1,2.419,1.445V283.684a1,1,0,0,1,1-1H611.7a1,1,0,0,1,1,1v150.45a33.732,33.732,0,0,1,3.546-1.786q0-2.555-.007-5.112-.006-3.829-.005-7.659c0-2.659-.016-5.321-.035-7.984-.036-5.124-.074-10.422.058-15.63.026-1.053.016-2.12.006-3.192-.034-3.641-.069-7.382,1.28-10.846V274.681a10.208,10.208,0,0,0-10.2-10.2H523.384a10.207,10.207,0,0,0-10.195,10.2v78.225A10.9,10.9,0,0,1,517.024,358.757ZM552.2,269.35h26.666a4.167,4.167,0,0,1,0,8.334H552.2a4.167,4.167,0,0,1,0-8.334Zm-19.214,0a4.167,4.167,0,1,1-4.167,4.167A4.171,4.171,0,0,1,532.985,269.35Z" fill="#00f7ff"/>
        <path id="Path_1852" data-name="Path 1852" d="M637.428,476.572a.906.906,0,0,1,.17-.174c.029-.021.056-.037.084-.058,3.613-3.917,4.014-12.9,4.018-12.988V415.266h-8.125v-2H641.7V395.391h-8.75a1,1,0,0,1-1-1v-11a.97.97,0,0,1,.007-.121c.008-.069.925-6.485,9.724-6.958-.189-3.949-2.781-4.687-3.32-4.8a24.883,24.883,0,0,0-9.448,1.673,17.9,17.9,0,0,0-8.5,7.442c-2.23,3.587-2.189,7.926-2.15,12.121.01,1.1.02,2.187-.007,3.262-.131,5.175-.093,10.457-.057,15.564.019,2.669.038,5.337.035,8q0,3.826.005,7.653.006,2.892.007,5.784a1,1,0,0,1-.625.926c-27.335,11.048-19.526,48.981-19.444,49.364l-1.955.421a58.59,58.59,0,0,1-.867-6.513h-66.97a12.107,12.107,0,0,1-8.706-3.656l-4.253-4.32a12.319,12.319,0,0,1-1.46-1.483l0,0h0a12.144,12.144,0,0,1-2.773-7.733V446.586a12.735,12.735,0,0,1-6.1,1.557,13.474,13.474,0,0,1-5.825-1.33l-8.182-3.9c6.944,6.366,16.1,15.186,18.428,19.454,3.712,6.8,15.46,29.331,15.579,29.559.2.369,20.638,37.89,40.79,30.56Zm-3.854-60.056h4.562v2h-4.562Z" fill="#ffe2d9"/>
        <path id="Path_1853" data-name="Path 1853" d="M633.949,383.467v9.924h7.75V378.3C635.013,378.694,634.045,382.914,633.949,383.467Z" fill="#fff3f0"/>
        <circle id="Ellipse_11" data-name="Ellipse 11" cx="2.167" cy="2.167" r="2.167" transform="translate(530.818 271.35)" fill="#00ada4"/>
        <path id="Path_1854" data-name="Path 1854" d="M519.032,452.016a1,1,0,0,1-1-1V437.277l-2.013,4.229a11.37,11.37,0,0,1-2.83,3.681v14.832a10.144,10.144,0,0,0,2.284,6.419l1.37,1.39a10.15,10.15,0,0,0,6.541,2.386H595.1a56.059,56.059,0,0,1,3.014-18.2Z" fill="#00f7ff"/>
        <path id="Path_1855" data-name="Path 1855" d="M505.086,446.143a10.581,10.581,0,0,0,6.126-1.918,9.268,9.268,0,0,0,3-3.578l2.019-4.241a9.55,9.55,0,0,0,.184-7.713,11.242,11.242,0,0,0-5.679-5.976L497.48,416.4a11.479,11.479,0,0,0-4.966-1.135,9.906,9.906,0,0,0-9.126,5.5L481.369,425a9.551,9.551,0,0,0-.184,7.713A10.894,10.894,0,0,0,482.9,435.6c.256.22,1.254,1.089,2.732,2.4a11.837,11.837,0,0,0,1.234.691l13.258,6.315A11.478,11.478,0,0,0,505.086,446.143Zm-8.96-8.481c-1.141-2.582-.843-5.543.885-8.8.079-.17,2.511-5.194,8.143-5.194,2.861,0,6,1.332,9.338,3.961a1,1,0,0,1,.369.945c-.079.483-2.01,11.861-9.864,15.3a1,1,0,0,1-.4.084,1.055,1.055,0,0,1-.249-.031C504.1,443.863,498.171,442.293,496.126,437.662Z" fill="#ffe2d9"/>
        <path id="Path_1856" data-name="Path 1856" d="M540.468,319.171a9.211,9.211,0,0,0-9.143,8.2h18.288A9.213,9.213,0,0,0,540.468,319.171Z" fill="#d70086"/>
        <path id="Path_1857" data-name="Path 1857" d="M520.913,471.961l.195.2a10.124,10.124,0,0,0,7.276,3.054h66.833c-.054-.948-.095-1.945-.113-3h-71.72A12.2,12.2,0,0,1,520.913,471.961Z" fill="#00ada4"/>
        <path id="Path_1858" data-name="Path 1858" d="M536.681,317.844a6.1,6.1,0,1,1,7.574,0,11.215,11.215,0,0,1,7.364,9.527h.281V304.508H529.037v22.863h.282A11.213,11.213,0,0,1,536.681,317.844Z" fill="#25215a"/>
        <path id="Path_1859" data-name="Path 1859" d="M513.189,416.237v5.58a13.122,13.122,0,0,1,4.843,5.6V413.18A12.75,12.75,0,0,1,513.189,416.237Z" fill="#00f7ff"/>
        <path id="Path_1860" data-name="Path 1860" d="M552.2,277.684h26.666a4.167,4.167,0,0,0,0-8.334H552.2a4.167,4.167,0,0,0,0,8.334Zm0-6.334h26.666a2.167,2.167,0,0,1,0,4.334H552.2a2.167,2.167,0,0,1,0-4.334Z" fill="#1d1d1b"/>
        <path id="Path_1861" data-name="Path 1861" d="M532.985,277.684a4.167,4.167,0,1,0-4.167-4.167A4.172,4.172,0,0,0,532.985,277.684Zm0-6.334a2.167,2.167,0,1,1-2.167,2.167A2.169,2.169,0,0,1,532.985,271.35Z" fill="#1d1d1b"/>
        <path id="Path_1862" data-name="Path 1862" d="M528.037,329.371H552.9a1,1,0,0,0,1-1V303.508a1,1,0,0,0-1-1H528.037a1,1,0,0,0-1,1v24.863A1,1,0,0,0,528.037,329.371Zm3.288-2a9.2,9.2,0,0,1,18.288,0Zm5.043-14.3a4.1,4.1,0,1,1,4.1,4.1A4.106,4.106,0,0,1,536.368,313.069Zm-7.331-8.561H551.9v22.863h-.281a11.215,11.215,0,0,0-7.364-9.527,6.1,6.1,0,1,0-7.574,0,11.213,11.213,0,0,0-7.362,9.527h-.282Z" fill="#1d1d1b"/>
        <path id="Path_1863" data-name="Path 1863" d="M601.972,435.107V362.173a1,1,0,0,0-1-1H528.037a1,1,0,0,0-1,1v72.934a1,1,0,0,0,1,1h72.935A1,1,0,0,0,601.972,435.107Zm-2-1H529.037V363.173h70.935Z" fill="#1d1d1b"/>
        <rect id="Rectangle_127" data-name="Rectangle 127" width="4.563" height="2" transform="translate(633.574 416.516)" fill="#1d1d1b"/>
        <path id="Path_1864" data-name="Path 1864" d="M503.515,375.882c7.863-4.36,9.911-16.11,9.553-16.824a4.867,4.867,0,0,0-1.522-1.551l-.106-.077a15.787,15.787,0,0,0-3.8-2.051,8.164,8.164,0,0,0-9.231,2.519,15.01,15.01,0,0,0-3.6,11.078,7.686,7.686,0,0,0,3.4,5.642,13.111,13.111,0,0,0,4.483,1.451A1.665,1.665,0,0,0,503.515,375.882Zm-4.211-2.938a5.669,5.669,0,0,1-2.515-4.228,13.042,13.042,0,0,1,3.106-9.482,6.513,6.513,0,0,1,4.85-2.4,6.164,6.164,0,0,1,2.183.417,13.789,13.789,0,0,1,3.317,1.783l.14.1a4.535,4.535,0,0,1,.756.633c-.318,1.876-2.125,10.684-8.483,14.3A13.007,13.007,0,0,1,499.3,372.944Z" fill="#1d1d1b"/>
        <path id="Path_1865" data-name="Path 1865" d="M507.762,412.422a1.055,1.055,0,0,0,.249.031,1,1,0,0,0,.4-.084c8.525-3.738,10.625-16.106,10.71-16.631a1,1,0,0,0-.368-.945c-3.624-2.855-7.034-4.3-10.134-4.3-6.09,0-8.718,5.432-8.806,5.62-1.871,3.532-2.2,6.737-.963,9.527C501.066,410.649,507.49,412.352,507.762,412.422Zm-6.16-15.415c.088-.185,2.217-4.518,7.019-4.518,2.51,0,5.34,1.179,8.416,3.5-.5,2.367-2.791,11.363-9.1,14.4-1.243-.39-5.68-2-7.252-5.561C499.709,402.627,500.012,400.009,501.6,397.007Z" fill="#1d1d1b"/>
        <path id="Path_1866" data-name="Path 1866" d="M504.6,443.959a1,1,0,0,0,.4-.084c7.854-3.443,9.785-14.821,9.864-15.3a1,1,0,0,0-.369-.945c-3.335-2.629-6.477-3.961-9.338-3.961-5.632,0-8.064,5.024-8.143,5.194-1.728,3.26-2.026,6.221-.885,8.8,2.045,4.631,7.969,6.2,8.22,6.266A1.055,1.055,0,0,0,504.6,443.959Zm-6.64-7.105c-.88-1.993-.6-4.367.843-7.1.08-.167,2.011-4.092,6.356-4.092,2.271,0,4.832,1.063,7.62,3.161-.476,2.231-2.561,10.307-8.256,13.068C503.348,441.523,499.37,440.057,497.955,436.854Z" fill="#1d1d1b"/>
        <g id="Group_433" data-name="Group 433">
          <path id="Path_1867" data-name="Path 1867" d="M564.777,309.546v3.524h-1.233l-2.4-2.643v2.643h-.907v-3.524h1.229l2.407,2.648v-2.648Z"/>
          <path id="Path_1868" data-name="Path 1868" d="M565.123,311.59c0-1.093.826-1.536,2.055-1.536s2.054.443,2.054,1.536-.831,1.531-2.054,1.531S565.123,312.678,565.123,311.59Zm3.243,0c0-.619-.393-.816-1.188-.816s-1.194.2-1.194.816.393.81,1.194.81S568.366,312.2,568.366,311.59Z"/>
          <path id="Path_1869" data-name="Path 1869" d="M575.979,311.408l-.01,1.662h-.862v-1.314c0-.629-.1-.956-.72-.956a1.82,1.82,0,0,0-1.157.453c0,.05,0,.1,0,.155l-.01,1.662h-.861v-1.314c0-.629-.106-.956-.72-.956a1.785,1.785,0,0,0-1.228.523v1.747h-.862v-2.965h.862v.483a2.37,2.37,0,0,1,1.541-.534,1.155,1.155,0,0,1,1.1.544,2.661,2.661,0,0,1,1.647-.544C575.364,310.054,575.969,310.336,575.979,311.408Z"/>
          <path id="Path_1870" data-name="Path 1870" d="M579.449,312.008h.856c-.2.755-.932,1.113-2.03,1.113-1.127,0-2-.443-2-1.531s.851-1.536,2.055-1.536c1.128,0,2.029.387,2.029,1.737h-3.2c.1.474.549.63,1.123.63C578.87,312.421,579.232,312.31,579.449,312.008Zm-2.266-.766h2.251c-.146-.418-.57-.533-1.113-.533C577.731,310.709,577.318,310.824,577.183,311.242Z"/>
          <path id="Path_1871" data-name="Path 1871" d="M562.4,315.529c1.405,0,2.11.535,2.2,1.551h-.921c-.086-.568-.524-.79-1.279-.79-.921,0-1.309.327-1.309,1.047s.392,1.058,1.309,1.058c.75,0,1.193-.227,1.279-.8h.921c-.09,1.022-.795,1.561-2.2,1.561-1.551,0-2.216-.644-2.216-1.818S560.85,315.529,562.4,315.529Z"/>
          <path id="Path_1872" data-name="Path 1872" d="M564.9,317.624c0-1.093.826-1.536,2.055-1.536s2.054.443,2.054,1.536-.831,1.531-2.054,1.531S564.9,318.712,564.9,317.624Zm3.243,0c0-.619-.393-.815-1.188-.815s-1.194.2-1.194.815.393.811,1.194.811S568.14,318.238,568.14,317.624Z"/>
          <path id="Path_1873" data-name="Path 1873" d="M573.385,316.139v2.492c0,1.209-.81,1.732-1.933,1.732a7.6,7.6,0,0,1-1.858-.236v-.7a8.968,8.968,0,0,0,1.666.212c.892,0,1.224-.343,1.26-1.1a1.953,1.953,0,0,1-1.5.528c-1.017,0-1.743-.443-1.743-1.49s.726-1.491,1.743-1.491a1.938,1.938,0,0,1,1.5.529v-.478Zm-.865,1.44c0-.544-.378-.77-1.189-.77s-1.193.226-1.193.77.382.771,1.193.771S572.52,318.123,572.52,317.579Z"/>
          <path id="Path_1874" data-name="Path 1874" d="M577.941,317.463l-.01,1.642h-.866V317.79c0-.629-.211-.956-.921-.956a2.141,2.141,0,0,0-1.471.608v1.663h-.861v-2.966h.861v.518a2.762,2.762,0,0,1,1.727-.569C577.191,316.088,577.931,316.37,577.941,317.463Z"/>
          <path id="Path_1875" data-name="Path 1875" d="M578.232,317.624c0-1.093.827-1.536,2.055-1.536s2.054.443,2.054,1.536-.83,1.531-2.054,1.531S578.232,318.712,578.232,317.624Zm3.244,0c0-.619-.393-.815-1.189-.815s-1.193.2-1.193.815.392.811,1.193.811S581.476,318.238,581.476,317.624Z"/>
          <path id="Path_1876" data-name="Path 1876" d="M589.088,317.442l-.01,1.663h-.861V317.79c0-.629-.106-.956-.72-.956a1.825,1.825,0,0,0-1.158.453c.005.05.005.1.005.155l-.01,1.663h-.861V317.79c0-.629-.106-.956-.72-.956a1.783,1.783,0,0,0-1.229.523v1.748h-.861v-2.966h.861v.483a2.372,2.372,0,0,1,1.541-.534,1.157,1.157,0,0,1,1.1.544,2.658,2.658,0,0,1,1.646-.544C588.474,316.088,589.078,316.37,589.088,317.442Z"/>
          <path id="Path_1877" data-name="Path 1877" d="M592.558,318.042h.856c-.2.755-.932,1.113-2.029,1.113-1.128,0-2.005-.443-2.005-1.531s.851-1.536,2.055-1.536c1.128,0,2.029.388,2.029,1.737h-3.2c.095.474.549.63,1.123.63C591.979,318.455,592.341,318.344,592.558,318.042Zm-2.266-.766h2.251c-.146-.418-.569-.533-1.113-.533C590.841,316.743,590.428,316.858,590.292,317.276Z"/>
        </g>
        <g id="Group_434" data-name="Group 434">
          <path id="Path_1878" data-name="Path 1878" d="M531.795,353.187a1.079,1.079,0,0,1-1.169,1.117h-1.615v.816h-.785v-3.055h2.4A1.083,1.083,0,0,1,531.795,353.187Zm-.785,0c0-.462-.366-.462-.6-.462h-1.4v.921h1.4C530.644,353.646,531.01,353.646,531.01,353.187Z"/>
          <path id="Path_1879" data-name="Path 1879" d="M532.863,352.689v.62h2.444v.567h-2.444v.62h2.444v.624h-3.229v-3.055h3.229v.624Z"/>
          <path id="Path_1880" data-name="Path 1880" d="M538.5,354.212l.563.908h-.926l-.493-.816h-1.265v.816h-.786v-3.055h2.4a1.083,1.083,0,0,1,1.17,1.122A1.04,1.04,0,0,1,538.5,354.212Zm-2.121-.566h1.4c.236,0,.6,0,.6-.459s-.366-.462-.6-.462h-1.4Z"/>
          <path id="Path_1881" data-name="Path 1881" d="M540.2,352.725v.776h2.182v.663H540.2v.956h-.786v-3.055h3.23v.66Z"/>
          <path id="Path_1882" data-name="Path 1882" d="M542.762,353.588c0-1.012.576-1.566,1.92-1.566s1.921.558,1.921,1.566-.581,1.576-1.921,1.576S542.762,354.605,542.762,353.588Zm3.055,0c0-.619-.314-.907-1.135-.907s-1.134.283-1.134.907.318.917,1.134.917S545.817,354.212,545.817,353.588Z"/>
          <path id="Path_1883" data-name="Path 1883" d="M549.792,354.212l.563.908h-.926l-.493-.816H547.67v.816h-.785v-3.055h2.4a1.083,1.083,0,0,1,1.17,1.122A1.04,1.04,0,0,1,549.792,354.212Zm-2.122-.566h1.4c.236,0,.6,0,.6-.459s-.366-.462-.6-.462h-1.4Z"/>
          <path id="Path_1884" data-name="Path 1884" d="M555.389,355.12H554.6v-2.1l-1.27,2.1h-.567l-1.27-2.1v2.1h-.786v-3.055h1.061l1.278,2.156,1.279-2.156h1.06Z"/>
          <path id="Path_1885" data-name="Path 1885" d="M558.6,354.47h-1.829l-.327.65h-.864l1.575-3.055h1.06l1.581,3.055h-.869Zm-.293-.585-.619-1.239-.624,1.239Z"/>
          <path id="Path_1886" data-name="Path 1886" d="M563.914,352.065v3.055h-1.069l-2.082-2.291v2.291h-.785v-3.055h1.065l2.085,2.295v-2.295Z"/>
          <path id="Path_1887" data-name="Path 1887" d="M566.094,352.022c1.218,0,1.829.462,1.908,1.344h-.8c-.074-.493-.454-.685-1.109-.685-.8,0-1.134.283-1.134.907s.34.917,1.134.917c.651,0,1.035-.2,1.109-.694h.8c-.079.886-.69,1.353-1.908,1.353-1.343,0-1.92-.559-1.92-1.576S564.751,352.022,566.094,352.022Z"/>
          <path id="Path_1888" data-name="Path 1888" d="M569.07,352.689v.62h2.444v.567H569.07v.62h2.444v.624h-3.23v-3.055h3.23v.624Z"/>
        </g>
        <path id="Path_1889" data-name="Path 1889" d="M558.41,395.41l-3.181-1.836v10.133l3.181-1.837Z" fill="#d70086"/>
        <path id="Path_1890" data-name="Path 1890" d="M564.254,404.955v-5.881l-5.094,2.94Z" fill="#d70086"/>
        <path id="Path_1891" data-name="Path 1891" d="M558.91,395.7v5.883L564,398.641Z" fill="#d70086"/>
        <path id="Path_1892" data-name="Path 1892" d="M554.729,393.285l-3.376-1.949v14.608L554.729,404Z" fill="#d70086"/>
        <path id="Path_1893" data-name="Path 1893" d="M555.479,404.141l8.775,5.065v-3.673L558.66,402.3Z" fill="#d70086"/>
        <path id="Path_1894" data-name="Path 1894" d="M564.254,398.207v-5.883l-5.094,2.941Z" fill="#d70086"/>
        <path id="Path_1895" data-name="Path 1895" d="M547.818,388.717l3.285,1.9,13.151-7.593v-3.067l-3.526,1.311Z" fill="#d70086"/>
        <path id="Path_1896" data-name="Path 1896" d="M554.978,392.852l9.276-5.355v-3.9L551.6,390.9Z" fill="#d70086"/>
        <path id="Path_1897" data-name="Path 1897" d="M558.66,394.977l5.595-3.23v-3.672l-8.775,5.066Z" fill="#d70086"/>
        <path id="Path_1898" data-name="Path 1898" d="M551.6,406.378l9.907,5.72,2.745.887v-3.2l-9.276-5.355Z" fill="#d70086"/>
        <path id="Path_1899" data-name="Path 1899" d="M545.017,387.1l2.3,1.328,10.6-6.121Z" fill="#d70086"/>
        <path id="Path_1900" data-name="Path 1900" d="M547.567,404.053l.629,3.714,2.657-1.534V391.047l-3.286-1.9Z" fill="#d70086"/>
        <path id="Path_1901" data-name="Path 1901" d="M540.3,412.9l23.954,13.83v-3.8l-20.667-11.931Z" fill="#fff"/>
        <path id="Path_1902" data-name="Path 1902" d="M559.238,411.364l-8.135-4.7-2.3,1.327Z" fill="#d70086"/>
        <path id="Path_1903" data-name="Path 1903" d="M543.338,391.072l-.735-4.342a.971.971,0,0,1,.031-.427l-2.583-1.492V412.47l3.287-1.9Z" fill="#fff"/>
        <path id="Path_1904" data-name="Path 1904" d="M547.009,409.515a.99.99,0,0,1-.4-.254l-2.522,1.456,20.166,11.641v-3.727l-13.942-8.049Z" fill="#fff"/>
        <path id="Path_1905" data-name="Path 1905" d="M543.838,410.283l2.523-1.457a.759.759,0,0,1-.03-.1l-2.493-14.708Z" fill="#fff"/>
        <path id="Path_1906" data-name="Path 1906" d="M552.585,411.316l11.669,6.737v-2.977c-.019,0-.039,0-.057-.009Z" fill="#fff"/>
        <path id="Path_1907" data-name="Path 1907" d="M547.067,401.1V388.861l-2.3-1.328Z" fill="#d70086"/>
        <path id="Path_1908" data-name="Path 1908" d="M564.156,377.856c.032-.011.066-.013.1-.022v-2.912l-14.08,8.129Z" fill="#fff"/>
        <path id="Path_1909" data-name="Path 1909" d="M588.708,384.377l-23.954-13.829v3.8l20.667,11.932Z" fill="#fff"/>
        <path id="Path_1910" data-name="Path 1910" d="M570.349,402.3l-5.595,3.229v3.673l8.776-5.065Z" fill="#d70086"/>
        <path id="Path_1911" data-name="Path 1911" d="M577.406,406.378l-3.375-1.949-9.276,5.355v3.2l2.745-.887Z" fill="#d70086"/>
        <path id="Path_1912" data-name="Path 1912" d="M564.754,399.073v5.882l5.095-2.941Z" fill="#d70086"/>
        <path id="Path_1913" data-name="Path 1913" d="M564.754,392.324v5.883l5.095-2.941Z" fill="#d70086"/>
        <path id="Path_1914" data-name="Path 1914" d="M570.1,401.581V395.7l-5.094,2.941Z" fill="#d70086"/>
        <path id="Path_1915" data-name="Path 1915" d="M564.812,415.067c-.018.006-.038,0-.058.009v2.977l11.67-6.737Z" fill="#fff"/>
        <path id="Path_1916" data-name="Path 1916" d="M570.6,401.87l3.181,1.836V393.574L570.6,395.41Z" fill="#d70086"/>
        <path id="Path_1917" data-name="Path 1917" d="M585.67,410.571l3.288,1.9V384.81l-3.288,1.9Z" fill="#fff"/>
        <path id="Path_1918" data-name="Path 1918" d="M564.754,422.936v3.8l23.954-13.83-3.287-1.9Z" fill="#fff"/>
        <path id="Path_1919" data-name="Path 1919" d="M582.394,409.258a.993.993,0,0,1-.395.257l-3.3,1.067-13.943,8.049v3.727l20.167-11.641Z" fill="#fff"/>
        <path id="Path_1920" data-name="Path 1920" d="M542.884,385.869a.974.974,0,0,1,.356-.243l4.127-1.533,16.887-9.749v-3.8L540.3,384.377Z" fill="#fff"/>
        <path id="Path_1921" data-name="Path 1921" d="M580.2,407.993l-2.3-1.327-8.134,4.7Z" fill="#d70086"/>
        <path id="Path_1922" data-name="Path 1922" d="M574.28,404l3.376,1.948V394.507l-.605-2.821-2.771,1.6Z" fill="#d70086"/>
        <path id="Path_1923" data-name="Path 1923" d="M578.613,390.2l2.578-1.488-11.667-6.737,9.052,8.18C578.591,390.174,578.6,390.191,578.613,390.2Z" fill="#fff"/>
        <path id="Path_1924" data-name="Path 1924" d="M567.752,380.38l13.939,8.049,3.23-1.865-20.167-11.642v2.91a.977.977,0,0,1,.421.22Z" fill="#fff"/>
        <path id="Path_1925" data-name="Path 1925" d="M585.17,410.283V387l-3.228,1.863v16.1l.728,3.395a.979.979,0,0,1-.026.47Z" fill="#fff"/>
        <path id="Path_1926" data-name="Path 1926" d="M573.53,393.141l-8.776-5.066v3.672l5.595,3.23Z" fill="#d70086"/>
        <path id="Path_1927" data-name="Path 1927" d="M564.754,380.367v2.653l8.134,4.7Z" fill="#d70086"/>
        <path id="Path_1928" data-name="Path 1928" d="M576.8,391.252l-2.142-1.934-9.905-5.719v3.9l9.276,5.355Z" fill="#d70086"/>
        <path id="Path_1929" data-name="Path 1929" d="M581.442,389.15l-2.579,1.489c.006.019.016.035.021.053l2.558,11.935Z" fill="#fff"/>
        <path id="Path_1930" data-name="Path 1930" d="M578.156,396.839v9.394l2.3,1.327Z" fill="#d70086"/>
        <path id="Path_1931" data-name="Path 1931" d="M590.459,383.078,565,368.383a1,1,0,0,0-1,0l-25.257,14.582-.2.113a1,1,0,0,0-.5.866v29.392a1,1,0,0,0,.5.866l.2.113L564,428.9a1,1,0,0,0,1,0l25.455-14.7a1,1,0,0,0,.5-.866V383.944A1,1,0,0,0,590.459,383.078Zm-50.408,1.733,2.583,1.492a.971.971,0,0,0-.031.427l.735,4.342v19.5l-3.287,1.9Zm24.2,41.922L540.3,412.9l3.287-1.9,20.666,11.931Zm-13.4-20.5-2.657,1.535-.629-3.714v-14.9l3.286,1.9Zm.25.435,8.135,4.7-10.434-3.37Zm-3.785-18.239-2.3-1.328,12.9-4.793Zm-.251.433V401.1l-2.3-13.571Zm-.736,19.869a.759.759,0,0,0,.03.1l-2.523,1.457V394.022Zm17.923,13.628-20.166-11.641,2.522-1.456a.99.99,0,0,0,.4.254l3.3,1.067,13.942,8.049Zm0-4.3-11.669-6.737,11.612,3.751c.018.006.038,0,.057.009Zm0-5.069-2.744-.886-9.907-5.72,3.375-1.948,9.276,5.354Zm-12.9-7.04V391.336l3.376,1.949v10.71Zm12.9,3.262-8.775-5.065,3.181-1.837,5.594,3.229Zm-9.025-5.5V393.574l3.181,1.836v6.46Zm9.025,1.248-5.094-2.94,5.094-2.941Zm-5.344-3.373V395.7L564,398.641Zm5.344-3.375-5.094-2.941,5.094-2.942Zm0-6.461-5.594,3.231-3.181-1.836,8.775-5.067Zm0-4.25-9.276,5.356L551.6,390.9l12.651-7.3Zm0-4.475L551.1,390.613l-3.285-1.9,12.91-7.453,3.526-1.311Zm0-5.187c-.032.009-.066.011-.1.022l-13.982,5.2,14.08-8.129Zm0-3.49-16.887,9.749-4.127,1.533a.974.974,0,0,0-.356.243l-2.583-1.492,23.953-13.829Zm.5-3.8,23.955,13.829-3.288,1.9-20.667-11.931Zm17.916,37.806-.728-3.395v-16.1L585.17,387v23.285l-2.526-1.459A.979.979,0,0,0,582.67,408.354Zm-17.916-33.432,20.167,11.642-3.23,1.865-13.939-8.049-2.577-2.328a.977.977,0,0,0-.421-.22Zm12.9,19.585v11.436l-3.376-1.948v-10.71l2.771-1.6Zm-8.132-12.527,11.667,6.737-2.578,1.488c-.014-.014-.022-.031-.037-.045Zm8.382,24.686,2.3,1.327-10.432,3.37Zm.25-.434v-9.393l2.3,10.721Zm.728-15.54c0-.018-.015-.034-.021-.053l2.579-1.489v13.477Zm-14.13-10.325,8.134,7.35-8.134-4.7Zm0,3.232,9.906,5.718,2.141,1.935-2.77,1.6-9.277-5.356Zm0,4.475,8.776,5.067-3.181,1.836-5.595-3.231Zm9.026,5.5v10.132L570.6,401.87v-6.46Zm-9.026-1.25,5.095,2.942-5.095,2.941ZM570.1,395.7v5.882l-5.094-2.94Zm-5.345,3.374,5.095,2.942-5.095,2.94Zm0,6.46,5.595-3.229,3.181,1.837-8.776,5.065Zm0,4.251,9.277-5.355,3.375,1.949L567.5,412.1l-2.745.886Zm0,5.292c.02,0,.04,0,.058-.009l11.612-3.751-11.67,6.737Zm0,3.555,13.943-8.049,3.3-1.067a.993.993,0,0,0,.395-.257l2.527,1.459-20.167,11.641Zm0,8.1v-3.8l20.667-11.931,3.288,1.9Zm24.2-14.263-3.289-1.9V386.709l3.289-1.9Z" fill="#1d1d1b"/>
        <path id="Path_1932" data-name="Path 1932" d="M591.3,582.275l-28-46.773c-.02-.034-.043-.066-.067-.1a6.918,6.918,0,0,1-1.162-4.938c.37-2.264,1.983-4.362,4.794-6.237l71.867-46.121a.858.858,0,0,0,.151-.15l.016.016c.046-.046.085-.1.13-.149,2.6-1.894,5.034-2.669,7.219-2.285a7.02,7.02,0,0,1,4.3,2.741,1,1,0,0,0,.094.124l60.857,68.042v-3L652.184,477.12a8.971,8.971,0,0,0-5.551-3.546,9.519,9.519,0,0,0-5.292.664,33.663,33.663,0,0,0,2.358-10.847V376.766c0-5.133-3.339-6.98-5.1-7.24a1.162,1.162,0,0,0-.145-.01,26.92,26.92,0,0,0-10.3,1.826,18.927,18.927,0,0,0-3.606,1.987V279.681a12.07,12.07,0,0,0-2.608-7.537l-5.767-5.915-.026.025a12.153,12.153,0,0,0-8.795-3.769H523.384a12.209,12.209,0,0,0-12.195,12.2v46.164q-3.525-3.24-7.053-6.478-2.262-2.074-4.539-4.137c-3.728-3.389-7.584-6.893-11.268-10.434-2.505-2.409-5.32-4.6-8.928-4.246-7.108.677-14.193,7.724-14.864,14.785-.344,3.607,1.838,6.423,4.247,8.929,3.544,3.686,7.051,7.546,10.443,11.278q2.061,2.268,4.128,4.528l1.219,1.33c2.906,3.168,5.511,6.008,8.413,9.166a13.567,13.567,0,0,0-9.051,7.554l-2.2,4.627c-2.831,5.942-1.286,12.708,3.366,15.861l-.1.072,4.734,6.418a12.46,12.46,0,0,0-6.755,6.234l-2.2,4.627a12.5,12.5,0,0,0-.257,10.088,13.827,13.827,0,0,0,.832,1.7l-.008.005.183.3c.1.173.2.346.315.514l6.395,10.417a11.541,11.541,0,0,0-6.655,5.918l-2.018,4.241a11.525,11.525,0,0,0-.238,9.31,13.1,13.1,0,0,0,5.053,6.117c6.181,5.5,20.534,18.553,23.373,23.757,3.7,6.788,15.442,29.3,15.566,29.536.813,1.517,18.992,34.869,39.188,32.473a9.55,9.55,0,0,0-2.4,4.807,8.959,8.959,0,0,0,1.512,6.429l27.358,45.7ZM620.4,273.421a10.1,10.1,0,0,1,2.147,6.26v95.251a21.359,21.359,0,0,0-3,3.408V274.681a12.155,12.155,0,0,0-.237-2.376Zm-107.206,1.26a10.207,10.207,0,0,1,10.195-10.2h83.962a10.208,10.208,0,0,1,10.2,10.2V381.925c-1.349,3.464-1.314,7.205-1.28,10.846.01,1.072.02,2.139-.006,3.192-.132,5.208-.094,10.506-.058,15.63.019,2.663.038,5.325.035,7.984q0,3.83.005,7.659,0,2.556.007,5.112a33.732,33.732,0,0,0-3.546,1.786V283.684a1,1,0,0,0-1-1H519.032a1,1,0,0,0-1,1V388.921a14.916,14.916,0,0,0-2.419-1.445l-2.424-1.156V374.269c.236-.4.461-.8.663-1.224l2.2-4.627a13.93,13.93,0,0,0,.969-9.661,10.9,10.9,0,0,0-3.835-5.851ZM595.1,470.214H523.384a10.15,10.15,0,0,1-6.541-2.386l-1.37-1.39a10.144,10.144,0,0,1-2.284-6.419V445.187a11.37,11.37,0,0,0,2.83-3.681l2.013-4.229v13.739a1,1,0,0,0,1,1h79.082A56.059,56.059,0,0,0,595.1,470.214Zm.117,5H528.384a10.124,10.124,0,0,1-7.276-3.054l-.195-.2a12.2,12.2,0,0,0,2.471.253H595.1C595.122,473.269,595.163,474.266,595.217,475.214Zm-82.028-53.4v-5.58a12.75,12.75,0,0,0,4.843-3.057v14.24A13.122,13.122,0,0,0,513.189,421.817Zm6.843,28.2V410.522c.126-.227.249-.458.362-.694l2.2-4.627a13.047,13.047,0,0,0-2.566-14.5V284.684H610.7V435.369a32.4,32.4,0,0,0-11.8,14.647ZM486.048,335.049l-1.219-1.33q-2.067-2.254-4.122-4.523c-3.4-3.742-6.918-7.611-10.482-11.319-1.935-2.014-3.977-4.408-3.7-7.353.579-6.089,6.927-12.4,13.062-12.984,2.944-.278,5.339,1.762,7.353,3.7,3.705,3.561,7.57,7.075,11.309,10.473q2.271,2.063,4.533,4.132,4.2,3.855,8.4,7.719V351.7l-11.4-5.429a10.092,10.092,0,0,0-4.336-.98C492.129,341.68,489.283,338.576,486.048,335.049Zm-2.51,23.557,2.2-4.626c1.936-4.065,5.732-6.691,9.671-6.691a8.119,8.119,0,0,1,3.514.786l11.6,5.526a8.653,8.653,0,0,1,4.571,5.685,11.945,11.945,0,0,1-.847,8.273l-2.2,4.627c-1.937,4.064-5.733,6.69-9.672,6.69a8.1,8.1,0,0,1-3.513-.787l-11.6-5.524C482.6,370.344,480.93,364.083,483.538,358.606Zm27.651,18.3v8.46l-9.512-4.53c.232.016.462.038.7.038A12.346,12.346,0,0,0,511.189,376.908Zm-22.328-1.365,7.834,3.73a14.5,14.5,0,0,0-1.867-.131,14.1,14.1,0,0,0-3.064.337Zm-5.332,26.948-.317-.515a12,12,0,0,1-.833-1.667,10.52,10.52,0,0,1,.2-8.491l2.2-4.627a10.9,10.9,0,0,1,10.042-6.049,12.593,12.593,0,0,1,5.457,1.249l14.468,6.889c5.938,2.829,8.647,9.585,6.039,15.062l-2.2,4.627a10.9,10.9,0,0,1-10.042,6.05,12.593,12.593,0,0,1-5.457-1.249l-14.468-6.89A12.574,12.574,0,0,1,483.529,402.491Zm3.593,5.854c.213.114.42.236.639.341l14.468,6.889a14.578,14.578,0,0,0,6.317,1.444,14.27,14.27,0,0,0,2.643-.25v3.948L498.34,414.6a13.467,13.467,0,0,0-5.826-1.33,13.119,13.119,0,0,0-2.249.2ZM485.629,438c-1.478-1.312-2.476-2.181-2.732-2.4a10.894,10.894,0,0,1-1.712-2.885,9.551,9.551,0,0,1,.184-7.713l2.019-4.24a9.906,9.906,0,0,1,9.126-5.5,11.479,11.479,0,0,1,4.966,1.135l13.257,6.316a11.242,11.242,0,0,1,5.679,5.976,9.55,9.55,0,0,1-.184,7.713l-2.019,4.241a9.268,9.268,0,0,1-3,3.578,10.581,10.581,0,0,1-6.126,1.918,11.478,11.478,0,0,1-4.965-1.136l-13.258-6.315A11.837,11.837,0,0,1,485.629,438Zm39.457,53.928c-.119-.228-11.867-22.755-15.579-29.559-2.328-4.268-11.484-13.088-18.428-19.454l8.182,3.9a13.474,13.474,0,0,0,5.825,1.33,12.735,12.735,0,0,0,6.1-1.557v13.433a12.144,12.144,0,0,0,2.773,7.733h0l0,0a12.319,12.319,0,0,0,1.46,1.483l4.253,4.32a12.107,12.107,0,0,0,8.706,3.656h66.97a58.59,58.59,0,0,0,.867,6.513l1.955-.421c-.082-.383-7.891-38.316,19.444-49.364a1,1,0,0,0,.625-.926q0-2.892-.007-5.784-.006-3.825-.005-7.653c0-2.664-.016-5.332-.035-8-.036-5.107-.074-10.389.057-15.564.027-1.075.017-2.166.007-3.262-.039-4.2-.08-8.534,2.15-12.121a17.9,17.9,0,0,1,8.5-7.442,24.883,24.883,0,0,1,9.448-1.673c.539.109,3.131.847,3.32,4.8-8.8.473-9.716,6.889-9.724,6.958a.97.97,0,0,0-.007.121v11a1,1,0,0,0,1,1h8.75v17.875h-8.125v2H641.7v48.086c0,.091-.405,9.071-4.018,12.988-.028.021-.055.037-.084.058a.906.906,0,0,0-.17.174l-71.552,45.917C545.724,529.819,525.284,492.3,525.086,491.929ZM641.7,378.3v15.086h-7.75v-9.924C634.045,382.914,635.013,378.694,641.7,378.3Z" fill="#1d1d1b"/>
        <path id="Path_1933" data-name="Path 1933" d="M711.505,582.275V546.446L650.648,478.4a1,1,0,0,1-.094-.124,7.02,7.02,0,0,0-4.3-2.741c-2.185-.384-4.615.391-7.219,2.285-.045.047-.084.1-.13.149l-.016-.016a.858.858,0,0,1-.151.15l-71.867,46.121c-2.811,1.875-4.424,3.973-4.794,6.237a6.918,6.918,0,0,0,1.162,4.938c.024.033.047.065.067.1l28,46.773Z" fill="#ffbc06"/>
      </g>
    </g>
  </g>
</svg>
