<svg xmlns="http://www.w3.org/2000/svg" width="440" height="439" viewBox="0 0 440 439">
  <g id="step1" transform="translate(-253 -1387.5)">
    <g id="Group_1110" data-name="Group 1110">
      <g id="Group_1201" data-name="Group 1201">
        <rect id="Rectangle_76" data-name="Rectangle 76" width="440" height="439" transform="translate(253 1387.5)" fill="#ee3557"/>
        <g id="Group_283" data-name="Group 283" transform="translate(304.117 1454.716)">
          <rect id="Rectangle_104" data-name="Rectangle 104" width="65.859" height="12.245" transform="translate(139.662 126.926)" fill="#fff"/>
          <rect id="Rectangle_105" data-name="Rectangle 105" width="267.111" height="12.245" transform="translate(39.035 88.973)" fill="#fff"/>
          <path id="Path_724" data-name="Path 724" d="M454.835,443.047l2.14-2.14H385.253l-2.14,2.14Z" transform="translate(-152.342 -172.345)" fill="#00ffc2"/>
          <rect id="Rectangle_106" data-name="Rectangle 106" width="267.111" height="12.245" transform="translate(39.035 51.019)" fill="#fff"/>
          <path id="Path_725" data-name="Path 725" d="M381.7,442.377l2.14-2.14V428.879l-2.14,2.14Z" transform="translate(-152.441 -173.188)" fill="#00ffc2"/>
          <path id="Path_726" data-name="Path 726" d="M169.452,491.7l8.56-8.561V193.343l-8.56,8.561Z" transform="translate(-167.312 -189.69)" fill="#cecece"/>
          <rect id="Rectangle_107" data-name="Rectangle 107" width="72.609" height="12.244" transform="translate(233.538 254.178)" fill="#00ffc2"/>
          <path id="Path_727" data-name="Path 727" d="M489.481,474.135l8.56-8.56H179.427l-8.561,8.56Z" transform="translate(-167.213 -170.617)" fill="#cecece"/>
          <rect id="Rectangle_108" data-name="Rectangle 108" width="65.859" height="12.245" transform="translate(240.288 126.926)" fill="#fff"/>
          <rect id="Rectangle_109" data-name="Rectangle 109" width="267.111" height="25.028" transform="translate(39.035 164.88)" fill="#fff"/>
          <path id="Path_728" data-name="Path 728" d="M179.452,482.606h319.5V191.929h-319.5ZM474.9,457.281a1.06,1.06,0,0,1-.315.758l-4.279,4.279a1.067,1.067,0,0,1-.757.314H394.8a1.069,1.069,0,0,1-1.07-1.07V447.178a1.066,1.066,0,0,1,.314-.757l4.279-4.279a1.064,1.064,0,0,1,.758-.315h74.748a1.07,1.07,0,0,1,1.07,1.07Zm0-127.251a1.07,1.07,0,0,1-1.07,1.07h-68a1.07,1.07,0,0,1-1.07-1.07V315.645a1.07,1.07,0,0,1,1.07-1.07h68a1.07,1.07,0,0,1,1.07,1.07ZM203.506,239.737a1.07,1.07,0,0,1,1.07-1.07H473.827a1.07,1.07,0,0,1,1.07,1.07v14.386a1.07,1.07,0,0,1-1.07,1.07H204.576a1.07,1.07,0,0,1-1.07-1.07Zm0,37.954a1.07,1.07,0,0,1,1.07-1.07H473.827a1.07,1.07,0,0,1,1.07,1.07v14.386a1.07,1.07,0,0,1-1.07,1.07H204.576a1.07,1.07,0,0,1-1.07-1.07Zm170.766,37.954V330.03a1.07,1.07,0,0,1-1.07,1.07h-68a1.07,1.07,0,0,1-1.07-1.07V315.645a1.07,1.07,0,0,1,1.07-1.07h68A1.07,1.07,0,0,1,374.272,315.645Zm-170.766,0a1.07,1.07,0,0,1,1.07-1.07h68a1.07,1.07,0,0,1,1.07,1.07V330.03a1.07,1.07,0,0,1-1.07,1.07h-68a1.07,1.07,0,0,1-1.07-1.07Zm0,37.954a1.07,1.07,0,0,1,1.07-1.07H473.827a1.07,1.07,0,0,1,1.07,1.07v27.168a1.07,1.07,0,0,1-1.07,1.07H204.576a1.07,1.07,0,0,1-1.07-1.07Zm0,50.924a1.07,1.07,0,0,1,1.07-1.07h143.5a1.07,1.07,0,0,1,1.07,1.07v14.385a1.07,1.07,0,0,1-1.07,1.07h-143.5a1.07,1.07,0,0,1-1.07-1.07Z" transform="translate(-166.611 -189.789)" fill="#fff"/>
          <rect id="Rectangle_110" data-name="Rectangle 110" width="104.974" height="12.244" transform="translate(39.035 215.805)" fill="#fff"/>
          <rect id="Rectangle_111" data-name="Rectangle 111" width="34.242" height="12.244" transform="translate(146.149 215.805)" fill="#3a3a99"/>
          <rect id="Rectangle_112" data-name="Rectangle 112" width="65.859" height="12.245" transform="translate(39.035 126.926)" fill="#fff"/>
          <path id="Path_729" data-name="Path 729" d="M500.163,189.929H178.522a1.059,1.059,0,0,0-.757.315h0l1.513,1.513-1.827,1.827V483.373l.314-.314,1.513,1.513-.314.313H497.58l1.827-1.827,1.513,1.513h0a1.064,1.064,0,0,0,.315-.758V191A1.07,1.07,0,0,0,500.163,189.929Zm-1.07,292.817h-319.5V192.069h319.5Z" transform="translate(-166.751 -189.929)" fill="#1d1d1b"/>
          <path id="Path_730" data-name="Path 730" d="M203,252.133H472.253a1.07,1.07,0,0,0,1.07-1.07V236.677a1.07,1.07,0,0,0-1.07-1.07H203a1.07,1.07,0,0,0-1.07,1.07v14.386A1.07,1.07,0,0,0,203,252.133Zm1.07-14.386H471.182v12.246H204.071Z" transform="translate(-165.036 -186.729)" fill="#1d1d1b"/>
          <path id="Path_731" data-name="Path 731" d="M203,371.322H472.253a1.07,1.07,0,0,0,1.07-1.07V343.084a1.07,1.07,0,0,0-1.07-1.07H203a1.07,1.07,0,0,0-1.07,1.07v27.168A1.07,1.07,0,0,0,203,371.322Zm1.07-27.168H471.182v25.028H204.071Z" transform="translate(-165.036 -179.273)" fill="#1d1d1b"/>
          <path id="Path_732" data-name="Path 732" d="M203,287.6H472.253a1.07,1.07,0,0,0,1.07-1.07V272.146a1.07,1.07,0,0,0-1.07-1.07H203a1.07,1.07,0,0,0-1.07,1.07v14.386A1.07,1.07,0,0,0,203,287.6Zm1.07-14.386H471.182v12.246H204.071Z" transform="translate(-165.036 -184.244)" fill="#1d1d1b"/>
          <path id="Path_733" data-name="Path 733" d="M203,323.07h68a1.07,1.07,0,0,0,1.07-1.07V307.615a1.07,1.07,0,0,0-1.07-1.07H203a1.07,1.07,0,0,0-1.07,1.07V322A1.07,1.07,0,0,0,203,323.07Zm1.07-14.385H269.93V320.93H204.071Z" transform="translate(-165.036 -181.759)" fill="#1d1d1b"/>
          <path id="Path_734" data-name="Path 734" d="M297.039,306.545a1.07,1.07,0,0,0-1.07,1.07V322a1.07,1.07,0,0,0,1.07,1.07h68a1.07,1.07,0,0,0,1.07-1.07V307.615a1.07,1.07,0,0,0-1.07-1.07Zm66.929,14.385H298.109V308.685h65.859Z" transform="translate(-158.448 -181.759)" fill="#1d1d1b"/>
          <path id="Path_735" data-name="Path 735" d="M459.075,306.545h-68a1.07,1.07,0,0,0-1.07,1.07V322a1.07,1.07,0,0,0,1.07,1.07h68a1.07,1.07,0,0,0,1.07-1.07V307.615A1.07,1.07,0,0,0,459.075,306.545Zm-1.07,14.385H392.147V308.685h65.858Z" transform="translate(-151.859 -181.759)" fill="#1d1d1b"/>
          <path id="Path_736" data-name="Path 736" d="M459.517,425.465H384.769a1.064,1.064,0,0,0-.758.315h0l1.513,1.513-1.827,1.827v11.358l.314-.314,1.513,1.513-.314.314h71.722l1.827-1.827,1.513,1.513h0a1.06,1.06,0,0,0,.315-.758V426.535A1.07,1.07,0,0,0,459.517,425.465Zm-1.07,14.384H385.839V427.605h72.608Z" transform="translate(-152.301 -173.427)" fill="#1d1d1b"/>
          <path id="Path_737" data-name="Path 737" d="M203,406.129H310.115a1.07,1.07,0,0,1-1.07-1.07v-1.07H204.071V391.744H309.045v-1.07a1.07,1.07,0,0,1,1.07-1.07H203a1.07,1.07,0,0,0-1.07,1.07v14.385A1.07,1.07,0,0,0,203,406.129Z" transform="translate(-165.036 -175.939)" fill="#1d1d1b"/>
          <path id="Path_738" data-name="Path 738" d="M302.032,390.674v14.385a1.07,1.07,0,0,0,1.07,1.07h36.382a1.07,1.07,0,0,0,1.07-1.07V390.674a1.07,1.07,0,0,0-1.07-1.07H303.1A1.07,1.07,0,0,0,302.032,390.674Zm36.382,13.315H304.172V391.744h34.242Z" transform="translate(-158.023 -175.939)" fill="#1d1d1b"/>
          <path id="Path_739" data-name="Path 739" d="M459.041,440.142l-1.827,1.827-2.14,2.14H383.352l-1.827,1.827-1.513-1.513,1.827-1.827V431.238l2.14-2.14,1.827-1.827-1.513-1.513h0l-4.279,4.279a1.065,1.065,0,0,0-.314.756v14.384a1.069,1.069,0,0,0,1.07,1.07h74.748a1.067,1.067,0,0,0,.757-.314l4.279-4.279h0Z" transform="translate(-152.581 -173.406)" fill="#1d1d1b"/>
          <path id="Path_740" data-name="Path 740" d="M379.992,443.48l1.513,1.513,1.827-1.827,2.14-2.14.314-.313-1.513-1.513-.314.313-2.14,2.14Z" transform="translate(-152.561 -172.464)" fill="#1d1d1b"/>
          <path id="Path_741" data-name="Path 741" d="M500.107,483.039l-1.827,1.827-8.561,8.56H171.105l-1.827,1.827-1.513-1.513,1.827-1.827V202.122l8.561-8.56,1.827-1.827-1.513-1.513h0l-10.7,10.7a1.07,1.07,0,0,0-.314.757V494.5a1.07,1.07,0,0,0,1.07,1.07H490.163a1.067,1.067,0,0,0,.757-.314l10.7-10.7h0Z" transform="translate(-167.452 -189.908)" fill="#1d1d1b"/>
          <path id="Path_742" data-name="Path 742" d="M167.745,474.568l1.513,1.513,1.827-1.827,8.561-8.56.314-.313-1.513-1.513-.314.314-8.561,8.56Z" transform="translate(-167.431 -170.736)" fill="#1d1d1b"/>
          <g id="Group_275" data-name="Group 275" transform="translate(38.514 31.215)">
            <path id="Path_743" data-name="Path 743" d="M215.32,220.293v8.937h-2.3v-3.5h-7.279v3.5h-2.3v-8.937h2.3v3.5h7.279v-3.5Z" transform="translate(-203.444 -219.016)"/>
            <path id="Path_744" data-name="Path 744" d="M225.518,225.355v3.791h-2.2v-.932a10.088,10.088,0,0,1-4.57,1.06c-2.107,0-3.422-.676-3.422-2.374,0-1.954,2.144-2.567,4.533-2.567a10.937,10.937,0,0,1,3.46.536c0-1.431-1.838-1.545-2.859-1.545a12.556,12.556,0,0,0-3.728.55l-.779-1.6a14.738,14.738,0,0,1,4.609-.779C223.7,221.5,225.492,222.506,225.518,225.355Zm-2.2.868a10.378,10.378,0,0,0-3.192-.46c-1.634,0-2.617.281-2.617,1.048,0,.792.728.856,1.864.856a11.239,11.239,0,0,0,3.945-.856Z" transform="translate(-202.611 -218.932)"/>
            <path id="Path_745" data-name="Path 745" d="M230.776,221.5c2.809,0,4.789.919,5.146,3.129h-2.234c-.294-.971-1.328-1.3-2.912-1.3-1.877,0-3.026.5-3.026,2.07s1.149,2.056,3.026,2.056c1.584,0,2.617-.333,2.912-1.3h2.234c-.357,2.208-2.337,3.128-5.146,3.128-3.116,0-5.21-1.124-5.21-3.881S227.66,221.5,230.776,221.5Z" transform="translate(-201.894 -218.932)"/>
            <path id="Path_746" data-name="Path 746" d="M242.531,224.871l4.877,4.443H244.37l-3.6-3.281-2.566,1.544v1.737H236.02V219.1H238.2v6.077l5.478-3.384h3.728Z" transform="translate(-201.162 -219.1)"/>
            <path id="Path_747" data-name="Path 747" d="M256.756,225.355v3.791h-2.2v-.932a10.1,10.1,0,0,1-4.571,1.06c-2.107,0-3.422-.676-3.422-2.374,0-1.954,2.145-2.567,4.533-2.567a10.949,10.949,0,0,1,3.461.536c0-1.431-1.839-1.545-2.86-1.545a12.561,12.561,0,0,0-3.728.55l-.779-1.6a14.744,14.744,0,0,1,4.609-.779C254.943,221.5,256.73,222.506,256.756,225.355Zm-2.2.868a10.389,10.389,0,0,0-3.192-.46c-1.635,0-2.618.281-2.618,1.048,0,.792.729.856,1.865.856a11.244,11.244,0,0,0,3.945-.856Z" transform="translate(-200.423 -218.932)"/>
            <path id="Path_748" data-name="Path 748" d="M260.574,223.585v2.172c0,1.455.281,1.826,1.609,1.826a11.022,11.022,0,0,0,1.954-.128v1.762a14.867,14.867,0,0,1-2.567.192c-1.941,0-3.192-.728-3.192-2.388v-3.435H256.4V221.76h1.98V220.2l2.2-.625v2.183h3.563v1.826Z" transform="translate(-199.734 -219.067)"/>
            <path id="Path_749" data-name="Path 749" d="M274.937,225.152l-.026,4.161h-2.2v-3.332c0-1.6-.536-2.426-2.337-2.426a5.412,5.412,0,0,0-3.728,1.545v4.213h-2.183V219.1h2.183v4.01a7,7,0,0,1,4.38-1.444C273.033,221.666,274.911,222.381,274.937,225.152Z" transform="translate(-199.169 -219.1)"/>
            <path id="Path_750" data-name="Path 750" d="M274.954,225.393c0-2.771,2.094-3.9,5.209-3.9s5.209,1.124,5.209,3.9-2.106,3.881-5.209,3.881S274.954,228.151,274.954,225.393Zm8.222,0c0-1.571-1-2.07-3.013-2.07s-3.026.5-3.026,2.07,1,2.056,3.026,2.056S283.176,226.95,283.176,225.393Z" transform="translate(-198.434 -218.932)"/>
            <path id="Path_751" data-name="Path 751" d="M295.937,224.984l-.026,4.161h-2.2v-3.332c0-1.6-.536-2.426-2.336-2.426a5.41,5.41,0,0,0-3.728,1.545v4.213h-2.184v-7.52h2.184v1.316a7,7,0,0,1,4.38-1.444C294.034,221.5,295.911,222.213,295.937,224.984Z" transform="translate(-197.697 -218.932)"/>
            <path id="Path_752" data-name="Path 752" d="M313.234,220.293v8.937h-3.128l-6.09-6.7v6.7h-2.3v-8.937h3.115l6.1,6.716v-6.716Z" transform="translate(-196.559 -219.016)"/>
            <path id="Path_753" data-name="Path 753" d="M323.458,225.355v3.791h-2.2v-.932a10.1,10.1,0,0,1-4.571,1.06c-2.106,0-3.422-.676-3.422-2.374,0-1.954,2.145-2.567,4.533-2.567a10.949,10.949,0,0,1,3.461.536c0-1.431-1.838-1.545-2.86-1.545a12.561,12.561,0,0,0-3.728.55l-.779-1.6a14.75,14.75,0,0,1,4.61-.779C321.645,221.5,323.433,222.506,323.458,225.355Zm-2.2.868a10.383,10.383,0,0,0-3.192-.46c-1.635,0-2.617.281-2.617,1.048,0,.792.728.856,1.864.856a11.239,11.239,0,0,0,3.945-.856Z" transform="translate(-195.749 -218.932)"/>
            <path id="Path_754" data-name="Path 754" d="M339.989,224.933l-.026,4.213H337.78v-3.332c0-1.6-.269-2.426-1.826-2.426a4.633,4.633,0,0,0-2.937,1.149,3.944,3.944,0,0,1,.013.4L333,229.146h-2.183v-3.332c0-1.6-.267-2.426-1.827-2.426a4.52,4.52,0,0,0-3.115,1.328v4.43H323.7v-7.52h2.183v1.226a6.015,6.015,0,0,1,3.907-1.354,2.933,2.933,0,0,1,2.784,1.379,6.737,6.737,0,0,1,4.175-1.379C338.432,221.5,339.963,222.213,339.989,224.933Z" transform="translate(-195.019 -218.932)"/>
            <path id="Path_755" data-name="Path 755" d="M347.694,226.452h2.171c-.5,1.915-2.362,2.822-5.145,2.822-2.86,0-5.083-1.124-5.083-3.881s2.158-3.9,5.21-3.9c2.86,0,5.145.983,5.145,4.4h-8.12c.242,1.2,1.391,1.6,2.847,1.6C346.226,227.5,347.147,227.219,347.694,226.452Zm-5.745-1.941h5.708c-.37-1.06-1.442-1.354-2.822-1.354C343.342,223.158,342.294,223.451,341.949,224.511Z" transform="translate(-193.902 -218.932)"/>
          </g>
          <g id="Group_276" data-name="Group 276" transform="translate(38.241 75.389)">
            <path id="Path_756" data-name="Path 756" d="M209.157,260.982v4.492H208v-1.759h-3.656v1.759h-1.156v-4.492h1.156v1.758H208v-1.758Z" transform="translate(-203.189 -260.34)"/>
            <path id="Path_757" data-name="Path 757" d="M209.189,263.545c0-1.393,1.052-1.957,2.618-1.957s2.618.564,2.618,1.957-1.059,1.95-2.618,1.95S209.189,264.931,209.189,263.545Zm4.133,0c0-.79-.5-1.04-1.514-1.04s-1.522.25-1.522,1.04.5,1.033,1.522,1.033S213.322,264.327,213.322,263.545Z" transform="translate(-202.769 -260.297)"/>
            <path id="Path_758" data-name="Path 758" d="M215.416,264.1c0,.4.417.558,1.643.558,1.188,0,1.38-.077,1.38-.372s-.18-.308-1.508-.392c-1.662-.1-2.477-.225-2.477-1.135,0-.988,1.155-1.174,2.5-1.174,1.424,0,2.458.186,2.458,1.225h-1.1c0-.315-.4-.392-1.418-.392-1.04,0-1.334.077-1.334.3,0,.236.2.275,1.5.371,1.477.109,2.484.148,2.484,1.155,0,1.065-.962,1.251-2.418,1.251s-2.8-.186-2.8-1.391Z" transform="translate(-202.409 -260.297)"/>
            <path id="Path_759" data-name="Path 759" d="M221.4,262.637v1.09c0,.732.141.918.808.918a5.568,5.568,0,0,0,.982-.064v.885a7.352,7.352,0,0,1-1.29.1c-.975,0-1.6-.366-1.6-1.2v-1.726h-.994v-.918h.994v-.782l1.1-.315v1.1h1.79v.918Z" transform="translate(-202.06 -260.365)"/>
            <path id="Path_760" data-name="Path 760" d="M227.248,264.077h1.09c-.249.963-1.187,1.418-2.586,1.418-1.437,0-2.553-.564-2.553-1.95s1.084-1.957,2.617-1.957c1.438,0,2.586.494,2.586,2.213h-4.081c.122.6.7.8,1.431.8C226.51,264.6,226.972,264.462,227.248,264.077Zm-2.888-.975h2.869c-.186-.533-.725-.681-1.418-.681C225.06,262.422,224.533,262.569,224.36,263.1Z" transform="translate(-201.787 -260.297)"/>
            <path id="Path_761" data-name="Path 761" d="M233.595,260.382v5.134h-1.1v-.591a2.553,2.553,0,0,1-1.887.654c-1.212,0-2.253-.506-2.253-1.95s1.04-1.957,2.253-1.957a2.553,2.553,0,0,1,1.887.654v-1.944Zm-1.1,3.248c0-.751-.539-1.04-1.521-1.04s-1.514.289-1.514,1.04.532,1.033,1.514,1.033S232.5,264.373,232.5,263.63Z" transform="translate(-201.426 -260.382)"/>
            <path id="Path_762" data-name="Path 762" d="M234.894,266.445h-1.129l1.668-5.583h1.129Z" transform="translate(-201.047 -260.348)"/>
            <path id="Path_763" data-name="Path 763" d="M239.579,263.226c0-1.488.846-2.3,2.823-2.3s2.824.821,2.824,2.3-.854,2.316-2.824,2.316S239.579,264.721,239.579,263.226Zm4.491,0c0-.911-.461-1.335-1.668-1.335s-1.668.418-1.668,1.335.469,1.347,1.668,1.347S244.07,264.144,244.07,263.226Z" transform="translate(-200.639 -260.344)"/>
            <path id="Path_764" data-name="Path 764" d="M249.335,261.716v.917a3.8,3.8,0,0,0-.969-.128,3.142,3.142,0,0,0-1.989.661v2.265h-1.1v-3.781h1.1v.642a2.8,2.8,0,0,1,1.938-.705A3.921,3.921,0,0,1,249.335,261.716Z" transform="translate(-200.24 -260.297)"/>
            <path id="Path_765" data-name="Path 765" d="M254.463,261.651v3.177c0,1.541-1.033,2.208-2.464,2.208a9.642,9.642,0,0,1-2.368-.3v-.886a11.4,11.4,0,0,0,2.124.27c1.136,0,1.559-.437,1.6-1.405a2.481,2.481,0,0,1-1.911.674c-1.3,0-2.22-.565-2.22-1.9s.923-1.9,2.22-1.9a2.458,2.458,0,0,1,1.911.674v-.611Zm-1.1,1.835c0-.692-.48-.981-1.514-.981s-1.521.289-1.521.981.488.982,1.521.982S253.359,264.181,253.359,263.486Z" transform="translate(-199.963 -260.297)"/>
            <path id="Path_766" data-name="Path 766" d="M259.664,263.525v1.907h-1.1v-.469a5.073,5.073,0,0,1-2.3.532c-1.058,0-1.72-.339-1.72-1.193,0-.981,1.079-1.289,2.278-1.289a5.493,5.493,0,0,1,1.739.27c0-.719-.923-.777-1.437-.777a6.311,6.311,0,0,0-1.874.276l-.392-.8a7.433,7.433,0,0,1,2.317-.391C258.753,261.588,259.65,262.094,259.664,263.525Zm-1.1.438a5.187,5.187,0,0,0-1.6-.231c-.822,0-1.316.141-1.316.525s.366.43.937.43a5.612,5.612,0,0,0,1.983-.43Z" transform="translate(-199.591 -260.297)"/>
            <path id="Path_767" data-name="Path 767" d="M265.049,263.34l-.013,2.092h-1.1v-1.676c0-.8-.27-1.218-1.175-1.218a2.718,2.718,0,0,0-1.874.776v2.118h-1.1v-3.781h1.1v.662a3.51,3.51,0,0,1,2.2-.725C264.092,261.588,265.036,261.948,265.049,263.34Z" transform="translate(-199.224 -260.297)"/>
            <path id="Path_768" data-name="Path 768" d="M266.278,260.382v.956h-1.1v-.956Zm0,1.354v3.781h-1.1v-3.781Z" transform="translate(-198.846 -260.382)"/>
            <path id="Path_769" data-name="Path 769" d="M271.081,262.565l-2.83,1.944h2.83v.918h-4.454v-.918l2.829-1.944h-2.829v-.918h4.454Z" transform="translate(-198.744 -260.293)"/>
            <path id="Path_770" data-name="Path 770" d="M275.1,264.077h1.09c-.249.963-1.187,1.418-2.586,1.418-1.437,0-2.553-.564-2.553-1.95s1.085-1.957,2.618-1.957c1.437,0,2.585.494,2.585,2.213h-4.081c.122.6.7.8,1.431.8C274.36,264.6,274.822,264.462,275.1,264.077Zm-2.888-.975h2.869c-.186-.533-.726-.681-1.418-.681C272.91,262.422,272.383,262.569,272.21,263.1Z" transform="translate(-198.435 -260.297)"/>
            <path id="Path_771" data-name="Path 771" d="M281.445,260.382v5.134h-1.1v-.591a2.553,2.553,0,0,1-1.887.654c-1.212,0-2.252-.506-2.252-1.95s1.04-1.957,2.252-1.957a2.553,2.553,0,0,1,1.887.654v-1.944Zm-1.1,3.248c0-.751-.539-1.04-1.521-1.04s-1.514.289-1.514,1.04.532,1.033,1.514,1.033S280.348,264.373,280.348,263.63Z" transform="translate(-198.073 -260.382)"/>
            <path id="Path_772" data-name="Path 772" d="M289.6,263.63c0,1.444-1.039,1.95-2.253,1.95a2.554,2.554,0,0,1-1.887-.654v.591h-1.1v-5.134h1.1v1.944a2.554,2.554,0,0,1,1.887-.654C288.56,261.673,289.6,262.185,289.6,263.63Zm-1.1,0c0-.751-.533-1.04-1.514-1.04s-1.522.289-1.522,1.04.539,1.033,1.522,1.033S288.5,264.373,288.5,263.63Z" transform="translate(-197.502 -260.382)"/>
            <path id="Path_773" data-name="Path 773" d="M294.562,261.647l-2.554,5.385H290.8l.764-1.6h-.565l-1.957-3.781h1.219l1.618,3.12,1.475-3.12Z" transform="translate(-197.174 -260.293)"/>
          </g>
          <g id="Group_277" data-name="Group 277" transform="translate(37.719 113.985)">
            <path id="Path_774" data-name="Path 774" d="M203.857,297.419v1.143h3.208v.975h-3.208v1.405H202.7v-4.491h4.749v.968Z" transform="translate(-202.701 -296.451)"/>
            <path id="Path_775" data-name="Path 775" d="M211.617,297.185v.917a3.8,3.8,0,0,0-.969-.128,3.148,3.148,0,0,0-1.989.66V300.9h-1.1V297.12h1.1v.642a2.8,2.8,0,0,1,1.939-.705A3.919,3.919,0,0,1,211.617,297.185Z" transform="translate(-202.361 -296.409)"/>
            <path id="Path_776" data-name="Path 776" d="M211.449,299.014c0-1.393,1.053-1.957,2.618-1.957s2.618.564,2.618,1.957-1.059,1.95-2.618,1.95S211.449,300.4,211.449,299.014Zm4.133,0c0-.791-.5-1.04-1.514-1.04s-1.521.249-1.521,1.04.5,1.033,1.521,1.033S215.582,299.8,215.582,299.014Z" transform="translate(-202.088 -296.409)"/>
            <path id="Path_777" data-name="Path 777" d="M224.923,298.783l-.013,2.117h-1.1v-1.675c0-.8-.135-1.219-.918-1.219a2.333,2.333,0,0,0-1.476.577c.006.065.006.128.006.2l-.013,2.117h-1.1v-1.675c0-.8-.135-1.219-.918-1.219a2.276,2.276,0,0,0-1.565.667V300.9h-1.1V297.12h1.1v.616a3.023,3.023,0,0,1,1.964-.679,1.472,1.472,0,0,1,1.4.692,3.389,3.389,0,0,1,2.1-.692C224.141,297.057,224.91,297.417,224.923,298.783Z" transform="translate(-201.718 -296.409)"/>
            <path id="Path_778" data-name="Path 778" d="M226,298.046v.86h-1.1v-.86Zm0,1.925v.859h-1.1v-.859Z" transform="translate(-201.145 -296.339)"/>
          </g>
          <g id="Group_278" data-name="Group 278" transform="translate(138.803 113.985)">
            <path id="Path_779" data-name="Path 779" d="M302.685,297.419H300.5v3.523h-1.156v-3.523h-2.182v-.968h5.518Z" transform="translate(-297.167 -296.451)"/>
            <path id="Path_780" data-name="Path 780" d="M302,299.014c0-1.393,1.052-1.957,2.618-1.957s2.617.564,2.617,1.957-1.058,1.95-2.617,1.95S302,300.4,302,299.014Zm4.133,0c0-.791-.5-1.04-1.514-1.04s-1.522.249-1.522,1.04.5,1.033,1.522,1.033S306.136,299.8,306.136,299.014Z" transform="translate(-296.828 -296.409)"/>
            <path id="Path_781" data-name="Path 781" d="M308.452,298.046v.86h-1.1v-.86Zm0,1.925v.859h-1.1v-.859Z" transform="translate(-296.453 -296.339)"/>
          </g>
          <g id="Group_279" data-name="Group 279" transform="translate(239.494 113.343)">
            <path id="Path_782" data-name="Path 782" d="M395.538,299.608l.828,1.334h-1.36l-.726-1.2H392.42v1.2h-1.155v-4.491h3.529a1.592,1.592,0,0,1,1.72,1.649A1.53,1.53,0,0,1,395.538,299.608Zm-3.118-.835h2.053c.347,0,.886,0,.886-.673s-.539-.681-.886-.681H392.42Z" transform="translate(-391.265 -295.809)"/>
            <path id="Path_783" data-name="Path 783" d="M400.516,299.546h1.09c-.249.962-1.187,1.418-2.585,1.418-1.438,0-2.554-.564-2.554-1.95s1.084-1.957,2.618-1.957c1.437,0,2.585.494,2.585,2.213h-4.08c.121.6.7.8,1.431.8C399.778,300.072,400.24,299.931,400.516,299.546Zm-2.888-.975H400.5c-.186-.533-.726-.681-1.418-.681C398.328,297.891,397.8,298.038,397.628,298.571Z" transform="translate(-390.901 -295.767)"/>
            <path id="Path_784" data-name="Path 784" d="M402.664,299.572c0,.4.417.559,1.643.559,1.187,0,1.38-.078,1.38-.372s-.181-.308-1.509-.392c-1.662-.1-2.477-.225-2.477-1.136,0-.988,1.156-1.173,2.5-1.173,1.424,0,2.458.185,2.458,1.225h-1.1c0-.315-.4-.392-1.418-.392-1.039,0-1.334.077-1.334.3,0,.238.2.276,1.5.372,1.476.108,2.484.148,2.484,1.155,0,1.065-.963,1.251-2.419,1.251s-2.8-.186-2.8-1.392Z" transform="translate(-390.543 -295.767)"/>
            <path id="Path_785" data-name="Path 785" d="M412.066,297.116v3.78h-1.1v-.66a3.513,3.513,0,0,1-2.2.724c-1.008,0-1.952-.358-1.964-1.752l.012-2.092h1.1v1.676c0,.8.27,1.219,1.174,1.219a2.722,2.722,0,0,0,1.874-.776v-2.119Z" transform="translate(-390.176 -295.762)"/>
            <path id="Path_786" data-name="Path 786" d="M413.272,295.851v5.133h-1.1v-5.133Z" transform="translate(-389.8 -295.851)"/>
            <path id="Path_787" data-name="Path 787" d="M415.653,298.106v1.09c0,.732.141.918.808.918a5.563,5.563,0,0,0,.982-.064v.885a7.351,7.351,0,0,1-1.29.1c-.975,0-1.6-.366-1.6-1.2v-1.726h-.994v-.918h.994v-.782l1.1-.315v1.1h1.79v.918Z" transform="translate(-389.703 -295.834)"/>
            <path id="Path_788" data-name="Path 788" d="M418.678,298.046v.86h-1.1v-.86Zm0,1.925v.859h-1.1v-.859Z" transform="translate(-389.421 -295.697)"/>
          </g>
          <g id="Group_280" data-name="Group 280" transform="translate(38.241 202.222)">
            <path id="Path_789" data-name="Path 789" d="M209.157,379.511V384H208v-1.759h-3.656V384h-1.156v-4.491h1.156v1.757H208v-1.757Z" transform="translate(-203.189 -378.868)"/>
            <path id="Path_790" data-name="Path 790" d="M214.286,382.054v1.906h-1.1v-.469a5.072,5.072,0,0,1-2.3.533c-1.059,0-1.721-.34-1.721-1.194,0-.981,1.079-1.289,2.278-1.289a5.488,5.488,0,0,1,1.739.27c0-.719-.923-.776-1.437-.776a6.34,6.34,0,0,0-1.874.275l-.392-.8a7.432,7.432,0,0,1,2.317-.391C213.375,380.116,214.273,380.623,214.286,382.054Zm-1.1.437a5.222,5.222,0,0,0-1.6-.231c-.822,0-1.316.141-1.316.525s.366.431.937.431a5.614,5.614,0,0,0,1.983-.431Z" transform="translate(-202.77 -378.826)"/>
            <path id="Path_791" data-name="Path 791" d="M216.931,380.116c1.411,0,2.405.462,2.585,1.572h-1.122c-.148-.487-.668-.654-1.463-.654-.944,0-1.522.249-1.522,1.039s.578,1.033,1.522,1.033c.8,0,1.315-.166,1.463-.654h1.122c-.18,1.11-1.174,1.572-2.585,1.572-1.567,0-2.618-.565-2.618-1.951S215.365,380.116,216.931,380.116Z" transform="translate(-202.41 -378.826)"/>
            <path id="Path_792" data-name="Path 792" d="M222.841,381.811l2.451,2.233h-1.527l-1.809-1.649-1.291.777v.872h-1.1V378.91h1.1v3.055l2.753-1.7h1.874Z" transform="translate(-202.041 -378.91)"/>
            <path id="Path_793" data-name="Path 793" d="M229.994,382.054v1.906h-1.1v-.469a5.073,5.073,0,0,1-2.3.533c-1.058,0-1.72-.34-1.72-1.194,0-.981,1.079-1.289,2.278-1.289a5.488,5.488,0,0,1,1.739.27c0-.719-.923-.776-1.437-.776a6.34,6.34,0,0,0-1.874.275l-.392-.8a7.431,7.431,0,0,1,2.317-.391C229.083,380.116,229.98,380.623,229.994,382.054Zm-1.1.437a5.222,5.222,0,0,0-1.6-.231c-.822,0-1.316.141-1.316.525s.366.431.937.431a5.614,5.614,0,0,0,1.983-.431Z" transform="translate(-201.67 -378.826)"/>
            <path id="Path_794" data-name="Path 794" d="M231.915,381.165v1.091c0,.731.141.917.809.917a5.655,5.655,0,0,0,.981-.063V384a7.452,7.452,0,0,1-1.289.1c-.976,0-1.6-.366-1.6-1.2v-1.726h-1v-.917h1v-.783l1.1-.315v1.1h1.79v.917Z" transform="translate(-201.323 -378.893)"/>
            <path id="Path_795" data-name="Path 795" d="M239.136,381.952l-.014,2.092h-1.1V382.37c0-.8-.27-1.219-1.175-1.219a2.72,2.72,0,0,0-1.874.776v2.118h-1.1V378.91h1.1v2.016a3.513,3.513,0,0,1,2.2-.726C238.179,380.2,239.122,380.56,239.136,381.952Z" transform="translate(-201.039 -378.91)"/>
            <path id="Path_796" data-name="Path 796" d="M239.147,382.073c0-1.392,1.052-1.957,2.618-1.957s2.618.565,2.618,1.957-1.059,1.951-2.618,1.951S239.147,383.459,239.147,382.073Zm4.133,0c0-.79-.5-1.039-1.514-1.039s-1.522.249-1.522,1.039.5,1.033,1.522,1.033S243.28,382.856,243.28,382.073Z" transform="translate(-200.67 -378.826)"/>
            <path id="Path_797" data-name="Path 797" d="M249.7,381.868l-.014,2.092h-1.1v-1.675c0-.8-.27-1.219-1.175-1.219a2.72,2.72,0,0,0-1.874.776v2.118h-1.1V380.18h1.1v.661a3.513,3.513,0,0,1,2.2-.726C248.739,380.116,249.682,380.476,249.7,381.868Z" transform="translate(-200.299 -378.826)"/>
            <path id="Path_798" data-name="Path 798" d="M253.7,378.91v5.134h-1.1V378.91Z" transform="translate(-199.727 -378.91)"/>
            <path id="Path_799" data-name="Path 799" d="M254.021,382.073c0-1.392,1.052-1.957,2.618-1.957s2.618.565,2.618,1.957-1.059,1.951-2.618,1.951S254.021,383.459,254.021,382.073Zm4.133,0c0-.79-.5-1.039-1.514-1.039s-1.522.249-1.522,1.039.5,1.033,1.522,1.033S258.154,382.856,258.154,382.073Z" transform="translate(-199.628 -378.826)"/>
            <path id="Path_800" data-name="Path 800" d="M264.484,380.18v3.177c0,1.54-1.034,2.206-2.464,2.206a9.655,9.655,0,0,1-2.368-.3v-.886a11.4,11.4,0,0,0,2.124.27c1.135,0,1.559-.438,1.6-1.406a2.48,2.48,0,0,1-1.912.674c-1.3,0-2.22-.564-2.22-1.9s.924-1.9,2.22-1.9a2.464,2.464,0,0,1,1.912.674v-.61Zm-1.1,1.835c0-.693-.482-.981-1.514-.981s-1.521.288-1.521.981.488.982,1.521.982S263.38,382.709,263.38,382.015Z" transform="translate(-199.261 -378.826)"/>
            <path id="Path_801" data-name="Path 801" d="M264.563,382.073c0-1.392,1.052-1.957,2.618-1.957s2.618.565,2.618,1.957-1.059,1.951-2.618,1.951S264.563,383.459,264.563,382.073Zm4.133,0c0-.79-.5-1.039-1.514-1.039s-1.522.249-1.522,1.039.5,1.033,1.522,1.033S268.7,382.856,268.7,382.073Z" transform="translate(-198.889 -378.826)"/>
          </g>
          <g id="Group_281" data-name="Group 281" transform="translate(38.241 151.296)">
            <path id="Path_802" data-name="Path 802" d="M208.63,334.166a2.073,2.073,0,0,1-2.182,2.245h-3.259V331.92h3.259A2.072,2.072,0,0,1,208.63,334.166Zm-1.155,0c0-1.091-.591-1.278-1.463-1.278h-1.668v2.554h1.668C206.885,335.443,207.476,335.256,207.476,334.166Z" transform="translate(-203.189 -331.277)"/>
            <path id="Path_803" data-name="Path 803" d="M212.686,335.015h1.09c-.249.962-1.187,1.418-2.586,1.418-1.437,0-2.553-.565-2.553-1.951s1.084-1.957,2.617-1.957c1.438,0,2.586.494,2.586,2.214H209.76c.122.6.7.8,1.431.8C211.948,335.542,212.41,335.4,212.686,335.015Zm-2.888-.976h2.869c-.186-.533-.725-.68-1.418-.68C210.5,333.36,209.971,333.506,209.8,334.039Z" transform="translate(-202.807 -331.235)"/>
            <path id="Path_804" data-name="Path 804" d="M214.834,335.041c0,.4.417.557,1.643.557,1.188,0,1.38-.077,1.38-.371s-.18-.308-1.508-.392c-1.663-.1-2.477-.225-2.477-1.136,0-.988,1.155-1.174,2.5-1.174,1.424,0,2.457.186,2.457,1.226h-1.1c0-.315-.4-.392-1.418-.392-1.04,0-1.334.077-1.334.3,0,.238.2.276,1.5.372,1.477.108,2.484.147,2.484,1.155,0,1.065-.962,1.251-2.419,1.251s-2.8-.186-2.8-1.392Z" transform="translate(-202.45 -331.235)"/>
            <path id="Path_805" data-name="Path 805" d="M221.533,332.525c1.411,0,2.407.462,2.585,1.572H223c-.148-.487-.668-.654-1.463-.654-.944,0-1.522.249-1.522,1.039s.578,1.033,1.522,1.033c.8,0,1.315-.166,1.463-.654h1.122c-.179,1.11-1.174,1.572-2.585,1.572-1.567,0-2.618-.565-2.618-1.951S219.967,332.525,221.533,332.525Z" transform="translate(-202.087 -331.235)"/>
            <path id="Path_806" data-name="Path 806" d="M228.227,332.653v.918a3.8,3.8,0,0,0-.969-.128,3.147,3.147,0,0,0-1.989.66v2.265h-1.1v-3.78h1.1v.642a2.8,2.8,0,0,1,1.938-.706A3.967,3.967,0,0,1,228.227,332.653Z" transform="translate(-201.719 -331.235)"/>
            <path id="Path_807" data-name="Path 807" d="M229.48,331.319v.957h-1.1v-.957Zm0,1.355v3.779h-1.1v-3.779Z" transform="translate(-201.424 -331.319)"/>
            <path id="Path_808" data-name="Path 808" d="M235.161,334.482c0,1.443-1.034,1.951-2.253,1.951a2.528,2.528,0,0,1-1.88-.648v2.188h-1.1v-5.384h1.1v.584a2.558,2.558,0,0,1,1.88-.648C234.127,332.525,235.161,333.039,235.161,334.482Zm-1.1,0c0-.751-.538-1.039-1.519-1.039s-1.515.288-1.515,1.039.533,1.033,1.515,1.033S234.063,335.227,234.063,334.482Z" transform="translate(-201.316 -331.235)"/>
            <path id="Path_809" data-name="Path 809" d="M237.075,333.574v1.091c0,.731.141.917.809.917a5.651,5.651,0,0,0,.981-.063v.885a7.448,7.448,0,0,1-1.289.1c-.976,0-1.6-.366-1.6-1.2v-1.727h-1v-.917h1v-.783l1.1-.313v1.1h1.79v.917Z" transform="translate(-200.962 -331.302)"/>
            <path id="Path_810" data-name="Path 810" d="M240.13,331.319v.957h-1.1v-.957Zm0,1.355v3.779h-1.1v-3.779Z" transform="translate(-200.678 -331.319)"/>
            <path id="Path_811" data-name="Path 811" d="M240.449,334.482c0-1.392,1.052-1.957,2.617-1.957s2.618.565,2.618,1.957-1.059,1.951-2.618,1.951S240.449,335.868,240.449,334.482Zm4.132,0c0-.79-.5-1.039-1.514-1.039s-1.521.249-1.521,1.039.5,1.033,1.521,1.033S244.581,335.265,244.581,334.482Z" transform="translate(-200.578 -331.235)"/>
            <path id="Path_812" data-name="Path 812" d="M251,334.277l-.013,2.092h-1.1v-1.675c0-.8-.27-1.219-1.175-1.219a2.721,2.721,0,0,0-1.874.777v2.117h-1.1v-3.78h1.1v.661a3.517,3.517,0,0,1,2.2-.726C250.041,332.525,250.984,332.885,251,334.277Z" transform="translate(-200.208 -331.235)"/>
          </g>
          <g id="Group_282" data-name="Group 282" transform="translate(257.469 258.04)">
            <path id="Path_813" data-name="Path 813" d="M409.219,434.084c0,.475.384.692,1.848.692,1.212,0,1.578-.135,1.578-.487,0-.373-.257-.437-1.713-.507-1.957-.09-2.734-.4-2.734-1.4,0-.989,1.007-1.3,2.689-1.3s2.72.424,2.72,1.534h-1.155c0-.494-.494-.616-1.694-.616-1.136,0-1.4.109-1.4.443s.269.41,1.578.488c1.771.1,2.868.192,2.868,1.328,0,1.2-1.135,1.443-2.8,1.443-1.843,0-2.939-.313-2.939-1.61Z" transform="translate(-408.063 -431.074)"/>
            <path id="Path_814" data-name="Path 814" d="M417.8,434.671h-2.689l-.482.956h-1.27l2.317-4.491h1.559l2.323,4.491h-1.278Zm-.43-.86-.912-1.822-.917,1.822Z" transform="translate(-407.692 -431.07)"/>
            <path id="Path_815" data-name="Path 815" d="M423.79,431.135l-2.31,4.491H419.9l-2.31-4.491h1.3l1.8,3.637,1.8-3.637Z" transform="translate(-407.395 -431.07)"/>
            <path id="Path_816" data-name="Path 816" d="M424.8,432.052v.912h3.593v.834H424.8v.912h3.593v.917h-4.749v-4.491h4.749v.917Z" transform="translate(-406.971 -431.07)"/>
          </g>
        </g>
      </g>
    </g>
  </g>
</svg>
