<svg xmlns="http://www.w3.org/2000/svg" width="440" height="439" viewBox="0 0 440 439">
  <g id="step2" transform="translate(-740 -1387.5)">
    <rect id="Rectangle_119" data-name="Rectangle 119" width="440" height="439" transform="translate(740 1387.5)" fill="#ffbe06"/>
    <g id="Group_412" data-name="Group 412" transform="translate(128.459 1382.662)">
      <path id="Path_1247" data-name="Path 1247" d="M741.583,230.6v37.13l4.75-2.742V233.346Z" fill="#fff"/>
      <path id="Path_1248" data-name="Path 1248" d="M802.144,233.346v31.646l4.75,2.742V230.6Z" fill="#fff"/>
      <path id="Path_1249" data-name="Path 1249" d="M782.216,244.852v8.634l4.367,2.521V242.33Z" fill="#fff"/>
      <path id="Path_1250" data-name="Path 1250" d="M754.815,135.89a22.654,22.654,0,0,0-22.6,21.629h45.207A22.654,22.654,0,0,0,754.815,135.89Z" fill="#d90088"/>
      <path id="Path_1251" data-name="Path 1251" d="M749.154,134.554a12.815,12.815,0,1,1,11.323,0,24.67,24.67,0,0,1,18.942,22.965h3.192V101.928H727.02v55.591h3.192A24.67,24.67,0,0,1,749.154,134.554Z" fill="#25215a"/>
      <g id="Group_400" data-name="Group 400">
        <path id="Path_1252" data-name="Path 1252" d="M727.8,186.487v1.688h2.559c.432,0,1.1,0,1.1-.84s-.671-.848-1.1-.848Z" fill="#fff"/>
        <path id="Path_1253" data-name="Path 1253" d="M743.866,186.487h-2.559v1.688h2.559c.431,0,1.1,0,1.1-.84S744.3,186.487,743.866,186.487Z" fill="#fff"/>
        <path id="Path_1254" data-name="Path 1254" d="M813.55,125.112c1.492,0,2.229-.369,2.229-1.521s-.737-1.529-2.229-1.529-2.239.368-2.239,1.529S812.048,125.112,813.55,125.112Z" fill="#fff"/>
        <path id="Path_1255" data-name="Path 1255" d="M859.14,133.281c-1.105,0-1.879.217-2.134,1h4.222C860.954,133.5,860.16,133.281,859.14,133.281Z" fill="#fff"/>
        <path id="Path_1256" data-name="Path 1256" d="M835.954,134.934c0,1.152.737,1.521,2.239,1.521s2.229-.369,2.229-1.521-.737-1.53-2.229-1.53S835.954,133.772,835.954,134.934Z" fill="#fff"/>
        <path id="Path_1257" data-name="Path 1257" d="M813.124,136.455c1.493,0,2.23-.369,2.23-1.521s-.737-1.53-2.23-1.53-2.238.368-2.238,1.53S811.623,136.455,813.124,136.455Z" fill="#fff"/>
        <path id="Path_1258" data-name="Path 1258" d="M834.5,121.938c-1.1,0-1.88.217-2.135,1h4.222C836.31,122.155,835.517,121.938,834.5,121.938Z" fill="#fff"/>
        <path id="Path_1259" data-name="Path 1259" d="M821.358,136.294c1.52,0,2.229-.425,2.229-1.445s-.709-1.445-2.229-1.445-2.239.425-2.239,1.445S819.837,136.294,821.358,136.294Z" fill="#fff"/>
        <path id="Path_1260" data-name="Path 1260" d="M754.46,188.07c0,1.152.583,1.68,2.078,1.68s2.079-.536,2.079-1.68-.575-1.663-2.079-1.663S754.46,186.927,754.46,188.07Z" fill="#fff"/>
        <path id="Path_1261" data-name="Path 1261" d="M764.578,186.487H762.02v1.688h2.558c.432,0,1.1,0,1.1-.84S765.01,186.487,764.578,186.487Z" fill="#fff"/>
        <path id="Path_1262" data-name="Path 1262" d="M779.235,188.614h2.279l-1.135-2.27Z" fill="#fff"/>
        <g id="Group_399" data-name="Group 399">
          <path id="Path_1263" data-name="Path 1263" d="M860.707,188.614h2.279l-1.136-2.27Z" fill="#fff"/>
          <path id="Path_1264" data-name="Path 1264" d="M871.4,188.078c0-1.358-.735-1.591-1.823-1.591H867.5v3.183h2.079C870.666,189.67,871.4,189.438,871.4,188.078Z" fill="#fff"/>
          <path id="Path_1265" data-name="Path 1265" d="M855.546,187.479c.384,0,.736,0,.736-.583s-.352-.577-.744-.577h-2.966v1.16h2.974Z" fill="#fff"/>
          <path id="Path_1266" data-name="Path 1266" d="M855.9,188.582h-3.326v1.184H855.9c.384,0,.735,0,.735-.592S856.282,188.582,855.9,188.582Z" fill="#fff"/>
        </g>
      </g>
      <path id="Path_1267" data-name="Path 1267" d="M754.815,112.26a10.815,10.815,0,1,0,10.815,10.815A10.827,10.827,0,0,0,754.815,112.26Z" fill="#d90088"/>
      <path id="Path_1268" data-name="Path 1268" d="M685.541,345.57V74.752l-8,8V353.57Z" fill="#cecece"/>
      <path id="Path_1269" data-name="Path 1269" d="M773.988,281.247l-27.405-15.822-4.75,2.742,32.155,18.565Z" fill="#fff"/>
      <path id="Path_1270" data-name="Path 1270" d="M774.488,217.089l27.406,15.823,4.75-2.742L774.488,211.6Z" fill="#fff"/>
      <path id="Path_1271" data-name="Path 1271" d="M686.955,346.984l-8,8H976.708l8-8Z" fill="#cecece"/>
      <path id="Path_1272" data-name="Path 1272" d="M797.213,236.192v25.952l4.431,2.558V233.635Z" fill="#fff"/>
      <path id="Path_1273" data-name="Path 1273" d="M801.894,265.425l-27.406,15.822v5.485l32.156-18.565Z" fill="#fff"/>
      <rect id="Rectangle_116" data-name="Rectangle 116" width="55.591" height="9.947" transform="translate(744.001 335.037)" fill="#d90088"/>
      <path id="Path_1274" data-name="Path 1274" d="M834.655,318.024c-.947,0-1.379.462-1.379,1.248s.432,1.259,1.379,1.259,1.379-.473,1.379-1.259S835.6,318.024,834.655,318.024Z" fill="#fff"/>
      <path id="Path_1275" data-name="Path 1275" d="M844.891,318.024c-.948,0-1.379.462-1.379,1.248s.431,1.259,1.379,1.259,1.379-.473,1.379-1.259S845.838,318.024,844.891,318.024Z" fill="#fff"/>
      <path id="Path_1276" data-name="Path 1276" d="M725.02,319.2a1,1,0,0,1,1-1h83.187v-6.773a1,1,0,0,1,1-1h53.329a1,1,0,0,1,1,1V318.2h82.689a1,1,0,0,1,1,1v25.783h37.9V73.338H687.541V344.984H725.02Zm108.736-181.49h-1.624v-2.465c0-1.181-.4-1.795-1.729-1.795a4,4,0,0,0-2.757,1.143v3.117H826.03v-5.564h1.616v.973a5.176,5.176,0,0,1,3.239-1.066c1.483,0,2.871.528,2.89,2.578ZM948.225,200.95v96.437a1,1,0,0,1-1,1H850.789a1,1,0,0,1-1-1V200.95a1,1,0,0,1,1-1h96.436A1,1,0,0,1,948.225,200.95Zm-90.152-11.7c0,.943-.552,1.631-1.824,1.631h-5.117v-5.6h4.926c1.271,0,1.663.648,1.663,1.471a1.643,1.643,0,0,1-.44,1.088A1.581,1.581,0,0,1,858.073,189.246Zm32.722-.672c-2.439-.112-3.407-.5-3.407-1.751,0-1.231,1.256-1.623,3.35-1.623,2.111,0,3.39.528,3.39,1.911H892.69c0-.616-.616-.767-2.111-.767-1.415,0-1.751.136-1.751.552s.336.511,1.967.607c2.207.12,3.574.24,3.574,1.655,0,1.495-1.416,1.8-3.487,1.8-2.3,0-3.662-.392-3.662-2.007h1.44c0,.592.479.863,2.3.863,1.512,0,1.967-.167,1.967-.607C892.929,188.742,892.609,188.662,890.795,188.574Zm-9.935-3.294h5.917v1.144H882.3v1.135h4.477v1.04H882.3v1.134h4.477v1.144H880.86Zm-4.009-.08c2.238,0,3.358.871,3.445,2.263h-1.462c-.081-.424-.464-1.056-1.983-1.056-1.871,0-2.127,1.031-2.127,1.7s.263,1.736,2.127,1.736c1.391,0,1.95-.608,1.983-1.032h-2.087v-.935H880.3v3h-1.063l-.064-.88a3.328,3.328,0,0,1-2.559.96c-2.062,0-3.326-1.023-3.326-2.879S874.548,185.2,876.851,185.2Zm-10.791.08h4.062a2.8,2.8,0,0,1,0,5.6H866.06Zm-1.939,5.6-.6-1.191h-3.351l-.6,1.191h-1.584l2.887-5.6h1.943l2.894,5.6Zm-4.971-58.823c2.116,0,3.806.726,3.806,3.258h-6.007c.179.887,1.03,1.18,2.106,1.18,1.115,0,1.795-.207,2.2-.774h1.606c-.369,1.417-1.748,2.088-3.807,2.088-2.115,0-3.759-.831-3.759-2.872S856.892,132.054,859.15,132.054Zm-16.483.093h1.615v.908a4.447,4.447,0,0,1,2.89-1,2.168,2.168,0,0,1,2.059,1.019,4.994,4.994,0,0,1,3.089-1.019c1.246,0,2.38.528,2.4,2.54l-.019,3.117h-1.615v-2.465c0-1.181-.2-1.795-1.351-1.795a3.424,3.424,0,0,0-2.172.85c.009.1.009.189.009.293l-.019,3.117h-1.614v-2.465c0-1.181-.2-1.795-1.352-1.795a3.344,3.344,0,0,0-2.3.983v3.277h-1.615Zm-.621,2.787c0,2.041-1.558,2.872-3.853,2.872s-3.854-.831-3.854-2.872,1.549-2.88,3.854-2.88S842.046,132.885,842.046,134.934Zm-7.54-14.223c2.116,0,3.807.727,3.807,3.258H832.3c.18.888,1.03,1.18,2.107,1.18,1.114,0,1.794-.207,2.2-.774h1.606c-.368,1.417-1.747,2.088-3.806,2.088-2.116,0-3.76-.831-3.76-2.872S832.249,120.711,834.506,120.711Zm-16.482.094h1.615v.907a4.45,4.45,0,0,1,2.89-1,2.168,2.168,0,0,1,2.059,1.019,4.994,4.994,0,0,1,3.089-1.019c1.246,0,2.38.528,2.4,2.54l-.019,3.117h-1.615V123.9c0-1.18-.2-1.795-1.351-1.795a3.429,3.429,0,0,0-2.172.85c.009.1.009.189.009.293l-.019,3.117h-1.614V123.9c0-1.18-.2-1.795-1.352-1.795a3.344,3.344,0,0,0-2.3.983v3.277h-1.615Zm2.748,11.249a3.633,3.633,0,0,1,2.815.991v-.9h1.624v4.676c0,2.267-1.52,3.249-3.626,3.249a14.175,14.175,0,0,1-3.486-.444v-1.3a16.846,16.846,0,0,0,3.127.4c1.672,0,2.295-.643,2.361-2.069a3.66,3.66,0,0,1-2.815.992c-1.908,0-3.268-.832-3.268-2.8S818.864,132.054,820.772,132.054Zm-7.222-11.343c2.295,0,3.853.831,3.853,2.88s-1.558,2.872-3.853,2.872-3.854-.831-3.854-2.872S811.245,120.711,813.55,120.711Zm-.426,11.343c2.3,0,3.854.831,3.854,2.88s-1.558,2.872-3.854,2.872-3.853-.831-3.853-2.872S810.82,132.054,813.124,132.054Zm-12.616-12.3h2.3l4.515,4.968v-4.968h1.7v6.611h-2.314l-4.505-4.959v4.959h-1.7Zm4.062,11.248c2.635,0,3.957,1,4.127,2.909h-1.728c-.161-1.067-.983-1.483-2.4-1.483-1.729,0-2.456.614-2.456,1.965s.737,1.983,2.456,1.983c1.407,0,2.238-.425,2.4-1.5H808.7c-.17,1.918-1.492,2.929-4.127,2.929-2.909,0-4.156-1.209-4.156-3.41S801.661,131.005,804.57,131.005Zm-4.75,54.275h5.917v1.144H801.26v1.135h4.477v1.04H801.26v1.134h4.477v1.144H799.82Zm-4.018-.08c2.231,0,3.351.848,3.494,2.463h-1.462c-.137-.9-.832-1.256-2.032-1.256-1.463,0-2.078.52-2.078,1.663s.623,1.68,2.078,1.68c1.192,0,1.9-.36,2.032-1.271H799.3c-.143,1.623-1.263,2.478-3.494,2.478-2.462,0-3.518-1.023-3.518-2.887S793.34,185.2,795.8,185.2Zm-5.441,4.285V185.28H791.8v5.6h-1.959l-3.813-4.2v4.2h-1.44v-5.6h1.952ZM725.02,100.928a1,1,0,0,1,1-1h57.591a1,1,0,0,1,1,1v57.591a1,1,0,0,1-1,1H726.02a1,1,0,0,1-1-1Zm59.22,89.949h-1.591l-.6-1.191H778.7l-.6,1.191h-1.584l2.887-5.6h1.943Zm-11.838,0h-1.04l-2.326-3.838v3.838H767.6v-5.6h1.943l2.343,3.95,2.343-3.95h1.943v5.6h-1.439v-3.838Zm-5.465,0h-1.7l-.9-1.495H762.02v1.495h-1.44v-5.6h4.4a1.985,1.985,0,0,1,2.143,2.055,1.909,1.909,0,0,1-1.216,1.879Zm-6.881-2.807c0,1.856-1.063,2.887-3.518,2.887s-3.518-1.023-3.518-2.887,1.056-2.87,3.518-2.87S760.056,186.224,760.056,188.07Zm-7.735-.16v1.216h-4v1.751h-1.439v-5.6H752.8v1.207h-4.478v1.423Zm-6.1,2.967h-1.7l-.9-1.495h-2.319v1.495h-1.439v-5.6h4.4a1.984,1.984,0,0,1,2.143,2.055,1.909,1.909,0,0,1-1.215,1.879Zm-6.879-3.318v1.04h-4.478v1.134h4.478v1.144h-5.917v-5.6h5.917v1.144h-4.478v1.135Zm-6.441-.224a1.978,1.978,0,0,1-2.143,2.047H727.8v1.495h-1.439v-5.6h4.4A1.984,1.984,0,0,1,732.9,187.335ZM725.02,200.95a1,1,0,0,1,1-1h96.437a1,1,0,0,1,1,1v96.437a1,1,0,0,1-1,1H726.02a1,1,0,0,1-1-1Z" fill="#fff"/>
      <path id="Path_1277" data-name="Path 1277" d="M811.207,312.428v13.166h51.329V312.428Zm20.633,8.044v.905h-4.7v-.546c0-1.745,3.682-1.355,3.682-2.309,0-.347-.221-.5-1.151-.5s-1.355.139-1.355.8h-1.08c0-1.4.984-1.709,2.375-1.709,1.445,0,2.291.277,2.291,1.319,0,1.625-2.986,1.2-3.251,2.034Zm2.815.965c-1.667,0-2.459-.768-2.459-2.165s.792-2.153,2.459-2.153,2.459.768,2.459,2.153S836.316,321.437,834.655,321.437Zm7.421-.965v.905h-4.7v-.546c0-1.745,3.682-1.355,3.682-2.309,0-.347-.221-.5-1.151-.5s-1.356.139-1.356.8H837.47c0-1.4.984-1.709,2.375-1.709,1.445,0,2.291.277,2.291,1.319,0,1.625-2.987,1.2-3.251,2.034Zm2.815.965c-1.667,0-2.459-.768-2.459-2.165s.792-2.153,2.459-2.153,2.459.768,2.459,2.153S846.552,321.437,844.891,321.437Z" fill="#fff"/>
      <path id="Path_1278" data-name="Path 1278" d="M746.583,232.912l27.405-15.823V211.6L741.833,230.17Z" fill="#fff"/>
      <path id="Path_1279" data-name="Path 1279" d="M774.488,223.36v5.2l17.471,10.087,4.5-2.6Z" fill="#fff"/>
      <path id="Path_1280" data-name="Path 1280" d="M787.083,242.042V256.3l4.625,2.67V239.371Z" fill="#fff"/>
      <path id="Path_1281" data-name="Path 1281" d="M791.958,259.688l-17.471,10.086v5.2l21.976-12.686Z" fill="#fff"/>
      <path id="Path_1282" data-name="Path 1282" d="M774.488,217.667v5.115l22.476,12.977,4.431-2.558Z" fill="#fff"/>
      <path id="Path_1283" data-name="Path 1283" d="M773.988,275.554l-22.475-12.976-4.43,2.558,26.905,15.533Z" fill="#fff"/>
      <path id="Path_1284" data-name="Path 1284" d="M792.208,239.083v20.172l4.505,2.6V236.481Z" fill="#fff"/>
      <path id="Path_1285" data-name="Path 1285" d="M796.963,262.578l-22.476,12.976v5.115l26.906-15.533Z" fill="#fff"/>
      <path id="Path_1286" data-name="Path 1286" d="M987.122,71.338H686.541a.99.99,0,0,0-.707.294l-10,10a1,1,0,0,0-.293.707V355.984a1,1,0,0,0,1,1H977.122a1,1,0,0,0,.707-.293l10-10a.994.994,0,0,0,.294-.708V72.338A1,1,0,0,0,987.122,71.338Zm-299.581,2H986.122V344.984h-37.9V319.2a1,1,0,0,0-1-1H864.536v-6.773a1,1,0,0,0-1-1H810.207a1,1,0,0,0-1,1V318.2H726.02a1,1,0,0,0-1,1v25.783H687.541ZM799.592,344.984H744v-9.947h55.591Zm1-11.947H743a1,1,0,0,0-1,1v10.947H727.02V320.2h82.187v6.393a1,1,0,0,0,1,1h53.329a1,1,0,0,0,1-1V320.2h81.689v24.783H801.592V334.037A1,1,0,0,0,800.592,333.037Zm10.615-7.443V312.428h51.329v13.166ZM685.541,74.752V345.57l-8,8V82.752ZM976.708,354.984H678.955l8-8H984.708Z" fill="#1d1d1b"/>
      <path id="Path_1287" data-name="Path 1287" d="M726.02,159.519h57.591a1,1,0,0,0,1-1V100.928a1,1,0,0,0-1-1H726.02a1,1,0,0,0-1,1v57.591A1,1,0,0,0,726.02,159.519Zm6.192-2a22.625,22.625,0,0,1,45.207,0Zm-5.192-55.591h55.591v55.591h-3.192a24.67,24.67,0,0,0-18.942-22.965,12.815,12.815,0,1,0-11.323,0,24.67,24.67,0,0,0-18.942,22.965H727.02Zm27.795,31.962a10.815,10.815,0,1,1,10.815-10.815A10.828,10.828,0,0,1,754.815,133.89Z" fill="#1d1d1b"/>
      <rect id="Rectangle_117" data-name="Rectangle 117" width="94.437" height="94.437" transform="translate(851.789 201.95)" fill="#eaeaea"/>
      <path id="Path_1288" data-name="Path 1288" d="M822.457,199.95H726.02a1,1,0,0,0-1,1v96.437a1,1,0,0,0,1,1h96.437a1,1,0,0,0,1-1V200.95A1,1,0,0,0,822.457,199.95Zm-1,96.437H727.02V201.95h94.437Z" fill="#1d1d1b"/>
      <path id="Path_1289" data-name="Path 1289" d="M947.225,199.95H850.789a1,1,0,0,0-1,1v96.437a1,1,0,0,0,1,1h96.436a1,1,0,0,0,1-1V200.95A1,1,0,0,0,947.225,199.95Zm-1,96.437H851.789V201.95h94.436Z" fill="#1d1d1b"/>
      <path id="Path_1290" data-name="Path 1290" d="M726.364,185.28v5.6H727.8v-1.495h2.958a2.053,2.053,0,1,0,0-4.1Zm5.1,2.055c0,.84-.671.84-1.1.84H727.8v-1.688h2.559C730.794,186.487,731.465,186.487,731.465,187.335Z"/>
      <path id="Path_1291" data-name="Path 1291" d="M739.345,186.424V185.28h-5.917v5.6h5.917v-1.144h-4.478V188.6h4.478v-1.04h-4.478v-1.135Z"/>
      <path id="Path_1292" data-name="Path 1292" d="M746.408,187.335a1.984,1.984,0,0,0-2.143-2.055h-4.4v5.6h1.439v-1.495h2.319l.9,1.495h1.7l-1.031-1.663A1.909,1.909,0,0,0,746.408,187.335Zm-2.542.84h-2.559v-1.688h2.559c.431,0,1.1,0,1.1.848S744.3,188.175,743.866,188.175Z"/>
      <path id="Path_1293" data-name="Path 1293" d="M752.8,186.487V185.28h-5.917v5.6h1.44v-1.751h4V187.91h-4v-1.423Z"/>
      <path id="Path_1294" data-name="Path 1294" d="M753.02,188.07c0,1.864,1.056,2.887,3.518,2.887s3.518-1.031,3.518-2.887-1.063-2.87-3.518-2.87S753.02,186.216,753.02,188.07Zm5.6,0c0,1.144-.583,1.68-2.079,1.68s-2.078-.528-2.078-1.68.575-1.663,2.078-1.663S758.617,186.936,758.617,188.07Z"/>
      <path id="Path_1295" data-name="Path 1295" d="M767.121,187.335a1.985,1.985,0,0,0-2.143-2.055h-4.4v5.6h1.44v-1.495h2.318l.9,1.495h1.7l-1.032-1.663A1.909,1.909,0,0,0,767.121,187.335Zm-2.543.84H762.02v-1.688h2.558c.432,0,1.1,0,1.1.848S765.01,188.175,764.578,188.175Z"/>
      <path id="Path_1296" data-name="Path 1296" d="M776.167,190.877v-5.6h-1.943l-2.343,3.949-2.343-3.949H767.6v5.6h1.44v-3.838l2.327,3.838h1.04l2.327-3.838v3.838Z"/>
      <path id="Path_1297" data-name="Path 1297" d="M779.4,185.28l-2.887,5.6H778.1l.6-1.191h3.35l.6,1.191h1.591l-2.894-5.6Zm-.168,3.334,1.143-2.27,1.136,2.27Z"/>
      <path id="Path_1298" data-name="Path 1298" d="M784.588,190.877h1.439v-4.2l3.814,4.2H791.8v-5.6h-1.439v4.205l-3.822-4.205h-1.951Z"/>
      <path id="Path_1299" data-name="Path 1299" d="M795.8,190.957c2.231,0,3.351-.855,3.494-2.478h-1.462c-.137.911-.84,1.271-2.032,1.271-1.455,0-2.078-.528-2.078-1.68s.615-1.663,2.078-1.663c1.2,0,1.9.352,2.032,1.256H799.3c-.143-1.615-1.263-2.463-3.494-2.463-2.462,0-3.518,1.016-3.518,2.87S793.34,190.957,795.8,190.957Z"/>
      <path id="Path_1300" data-name="Path 1300" d="M805.737,189.733H801.26V188.6h4.477v-1.04H801.26v-1.135h4.477V185.28H799.82v5.6h5.917Z"/>
      <path id="Path_1301" data-name="Path 1301" d="M802.208,121.409l4.505,4.959h2.314v-6.611h-1.7v4.968l-4.515-4.968h-2.3v6.611h1.7Z"/>
      <path id="Path_1302" data-name="Path 1302" d="M813.55,126.463c2.295,0,3.853-.831,3.853-2.872s-1.558-2.88-3.853-2.88-3.854.831-3.854,2.88S811.245,126.463,813.55,126.463Zm0-4.4c1.492,0,2.229.368,2.229,1.529s-.737,1.521-2.229,1.521-2.239-.369-2.239-1.521S812.048,122.062,813.55,122.062Z"/>
      <path id="Path_1303" data-name="Path 1303" d="M819.639,123.091a3.344,3.344,0,0,1,2.3-.983c1.153,0,1.352.615,1.352,1.795v2.465h1.614l.019-3.117c0-.1,0-.2-.009-.293a3.429,3.429,0,0,1,2.172-.85c1.153,0,1.351.615,1.351,1.795v2.465h1.615l.019-3.117c-.019-2.012-1.153-2.54-2.4-2.54a4.994,4.994,0,0,0-3.089,1.019,2.168,2.168,0,0,0-2.059-1.019,4.45,4.45,0,0,0-2.89,1v-.907h-1.615v5.563h1.615Z"/>
      <path id="Path_1304" data-name="Path 1304" d="M834.412,126.463c2.059,0,3.438-.671,3.806-2.088h-1.606c-.406.567-1.086.774-2.2.774-1.077,0-1.927-.292-2.107-1.18h6.008c0-2.531-1.691-3.258-3.807-3.258-2.257,0-3.854.831-3.854,2.88S832.3,126.463,834.412,126.463Zm.085-4.525c1.02,0,1.813.217,2.087,1h-4.222C832.617,122.155,833.392,121.938,834.5,121.938Z"/>
      <path id="Path_1305" data-name="Path 1305" d="M804.57,137.806c2.635,0,3.957-1.011,4.127-2.929h-1.728c-.161,1.077-.992,1.5-2.4,1.5-1.719,0-2.456-.623-2.456-1.983s.727-1.965,2.456-1.965c1.416,0,2.238.416,2.4,1.483H808.7c-.17-1.908-1.492-2.909-4.127-2.909-2.909,0-4.156,1.2-4.156,3.391S801.661,137.806,804.57,137.806Z"/>
      <path id="Path_1306" data-name="Path 1306" d="M813.124,137.806c2.3,0,3.854-.831,3.854-2.872s-1.558-2.88-3.854-2.88-3.853.831-3.853,2.88S810.82,137.806,813.124,137.806Zm0-4.4c1.493,0,2.23.368,2.23,1.53s-.737,1.521-2.23,1.521-2.238-.369-2.238-1.521S811.623,133.4,813.124,133.4Z"/>
      <path id="Path_1307" data-name="Path 1307" d="M820.772,137.645a3.66,3.66,0,0,0,2.815-.992c-.066,1.426-.689,2.069-2.361,2.069a16.846,16.846,0,0,1-3.127-.4v1.3a14.175,14.175,0,0,0,3.486.444c2.106,0,3.626-.982,3.626-3.249v-4.676h-1.624v.9a3.633,3.633,0,0,0-2.815-.991c-1.908,0-3.268.831-3.268,2.795S818.864,137.645,820.772,137.645Zm.586-4.241c1.52,0,2.229.425,2.229,1.445s-.709,1.445-2.229,1.445-2.239-.425-2.239-1.445S819.837,133.4,821.358,133.4Z"/>
      <path id="Path_1308" data-name="Path 1308" d="M830.885,132.054a5.176,5.176,0,0,0-3.239,1.066v-.973H826.03v5.564h1.616v-3.117a4,4,0,0,1,2.757-1.143c1.332,0,1.729.614,1.729,1.795v2.465h1.624l.019-3.079C833.756,132.582,832.368,132.054,830.885,132.054Z"/>
      <path id="Path_1309" data-name="Path 1309" d="M834.339,134.934c0,2.041,1.549,2.872,3.854,2.872s3.853-.831,3.853-2.872-1.558-2.88-3.853-2.88S834.339,132.885,834.339,134.934Zm6.083,0c0,1.152-.737,1.521-2.229,1.521s-2.239-.369-2.239-1.521.737-1.53,2.239-1.53S840.422,133.772,840.422,134.934Z"/>
      <path id="Path_1310" data-name="Path 1310" d="M844.282,134.434a3.344,3.344,0,0,1,2.3-.983c1.153,0,1.352.614,1.352,1.795v2.465h1.614l.019-3.117c0-.1,0-.2-.009-.293a3.424,3.424,0,0,1,2.172-.85c1.153,0,1.351.614,1.351,1.795v2.465H854.7l.019-3.117c-.019-2.012-1.153-2.54-2.4-2.54a4.994,4.994,0,0,0-3.089,1.019,2.168,2.168,0,0,0-2.059-1.019,4.447,4.447,0,0,0-2.89,1v-.908h-1.615v5.564h1.615Z"/>
      <path id="Path_1311" data-name="Path 1311" d="M859.055,137.806c2.059,0,3.438-.671,3.807-2.088h-1.606c-.406.567-1.086.774-2.2.774-1.076,0-1.927-.293-2.106-1.18h6.007c0-2.532-1.69-3.258-3.806-3.258-2.258,0-3.854.831-3.854,2.88S856.94,137.806,859.055,137.806Zm.085-4.525c1.02,0,1.814.217,2.088,1h-4.222C857.261,133.5,858.035,133.281,859.14,133.281Z"/>
      <path id="Path_1312" data-name="Path 1312" d="M856.058,185.28h-4.926v5.6h5.117c1.272,0,1.824-.688,1.824-1.631a1.581,1.581,0,0,0-.792-1.407,1.643,1.643,0,0,0,.44-1.088C857.721,185.928,857.329,185.28,856.058,185.28Zm-3.486,1.039h2.966c.392,0,.744,0,.744.577s-.352.583-.736.583h-2.974Zm3.326,3.447h-3.326v-1.184H855.9c.384,0,.735,0,.735.592S856.282,189.766,855.9,189.766Z"/>
      <path id="Path_1313" data-name="Path 1313" d="M860.875,185.28l-2.887,5.6h1.584l.6-1.191h3.351l.6,1.191h1.591l-2.894-5.6Zm-.168,3.334,1.143-2.27,1.136,2.27Z"/>
      <path id="Path_1314" data-name="Path 1314" d="M872.84,188.078a2.583,2.583,0,0,0-2.718-2.8H866.06v5.6h4.062A2.583,2.583,0,0,0,872.84,188.078ZM867.5,189.67v-3.183h2.079c1.088,0,1.823.233,1.823,1.591s-.735,1.592-1.823,1.592Z"/>
      <path id="Path_1315" data-name="Path 1315" d="M876.61,190.957a3.328,3.328,0,0,0,2.559-.96l.064.88H880.3v-3h-3.549v.935h2.087c-.033.424-.592,1.032-1.983,1.032-1.864,0-2.127-1.056-2.127-1.736s.256-1.7,2.127-1.7c1.519,0,1.9.632,1.983,1.056H880.3c-.087-1.392-1.207-2.263-3.445-2.263-2.3,0-3.567,1.024-3.567,2.878S874.548,190.957,876.61,190.957Z"/>
      <path id="Path_1316" data-name="Path 1316" d="M886.777,189.733H882.3V188.6h4.478v-1.04H882.3v-1.135h4.478V185.28H880.86v5.6h5.917Z"/>
      <path id="Path_1317" data-name="Path 1317" d="M890.962,189.813c-1.823,0-2.3-.271-2.3-.863h-1.44c0,1.615,1.367,2.007,3.662,2.007,2.071,0,3.487-.3,3.487-1.8,0-1.415-1.367-1.535-3.574-1.655-1.631-.1-1.967-.176-1.967-.607s.336-.552,1.751-.552c1.495,0,2.111.151,2.111.767h1.438c0-1.383-1.279-1.911-3.39-1.911-2.094,0-3.35.392-3.35,1.623,0,1.255.968,1.639,3.407,1.751,1.814.088,2.134.168,2.134.632C892.929,189.646,892.474,189.813,890.962,189.813Z"/>
      <path id="Path_1318" data-name="Path 1318" d="M831.9,318.438c0-1.042-.846-1.319-2.291-1.319-1.391,0-2.375.312-2.375,1.709h1.08c0-.665.425-.8,1.355-.8s1.151.151,1.151.5c0,.954-3.682.564-3.682,2.309v.546h4.7v-.905h-3.191C828.914,319.638,831.9,320.063,831.9,318.438Z"/>
      <path id="Path_1319" data-name="Path 1319" d="M834.655,317.119c-1.667,0-2.459.762-2.459,2.153s.792,2.165,2.459,2.165,2.459-.774,2.459-2.165S836.316,317.119,834.655,317.119Zm0,3.412c-.947,0-1.379-.468-1.379-1.259s.432-1.248,1.379-1.248,1.379.468,1.379,1.248S835.6,320.531,834.655,320.531Z"/>
      <path id="Path_1320" data-name="Path 1320" d="M842.136,318.438c0-1.042-.846-1.319-2.291-1.319-1.391,0-2.375.312-2.375,1.709h1.079c0-.665.426-.8,1.356-.8s1.151.151,1.151.5c0,.954-3.682.564-3.682,2.309v.546h4.7v-.905h-3.191C839.149,319.638,842.136,320.063,842.136,318.438Z"/>
      <path id="Path_1321" data-name="Path 1321" d="M844.891,317.119c-1.667,0-2.459.762-2.459,2.153s.792,2.165,2.459,2.165,2.459-.774,2.459-2.165S846.552,317.119,844.891,317.119Zm0,3.412c-.948,0-1.379-.468-1.379-1.259s.431-1.248,1.379-1.248,1.379.468,1.379,1.248S845.838,320.531,844.891,320.531Z"/>
      <path id="Path_1322" data-name="Path 1322" d="M766.26,244.852l-4.367-2.521v13.677l4.367-2.521Z" fill="#fff"/>
      <path id="Path_1323" data-name="Path 1323" d="M773.988,257.658V249.6l-6.977,4.027Z" fill="#fff"/>
      <path id="Path_1324" data-name="Path 1324" d="M766.76,245.14V253.2l6.977-4.028Z" fill="#fff"/>
      <path id="Path_1325" data-name="Path 1325" d="M766.51,244.417l7.478-4.317v-5.042L762.143,241.9Z" fill="#fff"/>
      <path id="Path_1326" data-name="Path 1326" d="M773.988,248.735v-8.058l-6.977,4.028Z" fill="#fff"/>
      <path id="Path_1327" data-name="Path 1327" d="M746.583,232.912l27.405-15.823V211.6L741.833,230.17Z" fill="#fff"/>
      <path id="Path_1328" data-name="Path 1328" d="M751.513,235.759l22.475-12.977v-5.115L747.083,233.2Z" fill="#fff"/>
      <path id="Path_1329" data-name="Path 1329" d="M756.518,238.648l17.47-10.087v-5.2l-21.975,12.688Z" fill="#fff"/>
      <path id="Path_1330" data-name="Path 1330" d="M756.268,239.082l-4.505-2.6v25.374l4.505-2.6Z" fill="#fff"/>
      <path id="Path_1331" data-name="Path 1331" d="M747.083,265.136l26.905,15.533v-5.115l-22.475-12.976Z" fill="#fff"/>
      <path id="Path_1332" data-name="Path 1332" d="M741.833,268.167l32.155,18.565v-5.485l-27.405-15.822Z" fill="#fff"/>
      <path id="Path_1333" data-name="Path 1333" d="M762.143,256.44l11.845,6.838v-5.042l-7.477-4.317Z" fill="#fff"/>
      <path id="Path_1334" data-name="Path 1334" d="M746.333,233.346l-4.75-2.742v37.13l4.75-2.742Z" fill="#fff"/>
      <path id="Path_1335" data-name="Path 1335" d="M751.263,236.192l-4.43-2.558V264.7l4.43-2.558Z" fill="#fff"/>
      <path id="Path_1336" data-name="Path 1336" d="M757.018,259.4l16.97,9.8v-5.34l-12.345-7.127Z" fill="#fff"/>
      <path id="Path_1337" data-name="Path 1337" d="M761.393,242.041l-4.625-2.67v19.595l4.625-2.67Z" fill="#fff"/>
      <path id="Path_1338" data-name="Path 1338" d="M806.644,230.17,774.488,211.6v5.484l27.406,15.823Z" fill="#fff"/>
      <path id="Path_1339" data-name="Path 1339" d="M752.013,262.289l21.975,12.686v-5.2l-17.47-10.086Z" fill="#fff"/>
      <path id="Path_1340" data-name="Path 1340" d="M761.643,241.607l12.345-7.128v-5.34l-16.97,9.8Z" fill="#fff"/>
      <path id="Path_1341" data-name="Path 1341" d="M786.833,256.729l-12.346,7.127v5.34l16.97-9.8Z" fill="#fff"/>
      <path id="Path_1342" data-name="Path 1342" d="M781.966,253.919l-7.478,4.317v5.042l11.845-6.838Z" fill="#fff"/>
      <path id="Path_1343" data-name="Path 1343" d="M774.488,249.6v8.057l6.977-4.028Z" fill="#fff"/>
      <path id="Path_1344" data-name="Path 1344" d="M791.958,259.688l-17.471,10.086v5.2l21.976-12.686Z" fill="#fff"/>
      <path id="Path_1345" data-name="Path 1345" d="M781.716,253.2v-8.056l-6.977,4.028Z" fill="#fff"/>
      <path id="Path_1346" data-name="Path 1346" d="M801.394,233.2l-26.906-15.534v5.115l22.476,12.977Z" fill="#fff"/>
      <path id="Path_1347" data-name="Path 1347" d="M802.144,264.991l4.75,2.742V230.6l-4.75,2.742Z" fill="#fff"/>
      <path id="Path_1348" data-name="Path 1348" d="M796.963,262.578l-22.476,12.976v5.115l26.906-15.533Z" fill="#fff"/>
      <path id="Path_1349" data-name="Path 1349" d="M774.488,281.247v5.485l32.156-18.565-4.75-2.742Z" fill="#fff"/>
      <path id="Path_1350" data-name="Path 1350" d="M727.02,201.95v94.437h94.437V201.95Zm81.874,66.65a1,1,0,0,1-.5.866L774.738,288.9a1,1,0,0,1-1,0l-33.655-19.431a1,1,0,0,1-.5-.866V229.737a1,1,0,0,1,.5-.866l33.655-19.432a1.008,1.008,0,0,1,1,0l33.656,19.432a1,1,0,0,1,.5.866Z" fill="#eaeaea"/>
      <path id="Path_1351" data-name="Path 1351" d="M774.488,240.678v8.058l6.979-4.029Z" fill="#fff"/>
      <path id="Path_1352" data-name="Path 1352" d="M792.208,259.255l4.505,2.6V236.481l-4.505,2.6Z" fill="#fff"/>
      <path id="Path_1353" data-name="Path 1353" d="M791.458,238.938l-16.97-9.8v5.34l12.346,7.128Z" fill="#fff"/>
      <path id="Path_1354" data-name="Path 1354" d="M797.213,262.145l4.431,2.558V233.635l-4.431,2.558Z" fill="#fff"/>
      <path id="Path_1355" data-name="Path 1355" d="M796.463,236.048,774.488,223.36v5.2l17.471,10.087Z" fill="#fff"/>
      <path id="Path_1356" data-name="Path 1356" d="M787.083,256.3l4.625,2.67V239.371l-4.625,2.671Z" fill="#fff"/>
      <path id="Path_1357" data-name="Path 1357" d="M782.216,253.485l4.367,2.521V242.33l-4.367,2.521Z" fill="#fff"/>
      <path id="Path_1358" data-name="Path 1358" d="M786.333,241.9l-11.845-6.839V240.1l7.479,4.317Z" fill="#fff"/>
      <path id="Path_1359" data-name="Path 1359" d="M808.394,228.871l-33.656-19.432a1.008,1.008,0,0,0-1,0l-33.655,19.432a1,1,0,0,0-.5.866V268.6a1,1,0,0,0,.5.866L773.738,288.9a1,1,0,0,0,1,0l33.656-19.431a1,1,0,0,0,.5-.866V229.737A1,1,0,0,0,808.394,228.871ZM741.583,230.6l4.75,2.742v31.645l-4.75,2.742Zm32.4,56.128-32.155-18.565,4.75-2.742,27.4,15.822Zm0-6.063-26.9-15.533,4.43-2.558,22.475,12.976ZM746.833,264.7V233.635l4.43,2.557v25.953Zm27.155,10.274-21.975-12.687,4.505-2.6,17.47,10.086Zm-22.225-13.121V236.481l4.505,2.6v20.173Zm22.225,7.341-16.97-9.8,4.625-2.669,12.345,7.126Zm-17.22-10.23v-19.6l4.625,2.67V256.3Zm17.22,4.312-11.845-6.838,4.367-2.521,7.478,4.317Zm-12.095-7.271V242.33l4.367,2.522v8.633Zm12.095,1.651-6.977-4.028,6.977-4.027ZM766.76,253.2V245.14l6.978,4.029Zm7.228-4.462-6.978-4.029,6.978-4.028Zm0-8.635-7.478,4.317-4.367-2.521,11.845-6.838Zm0-5.62-12.345,7.127-4.625-2.669,16.97-9.8Zm0-5.918-17.47,10.086-4.505-2.6,21.975-12.688Zm0-5.78-22.475,12.977-4.43-2.558,26.9-15.534Zm0-5.693-27.4,15.823-4.75-2.742L773.988,211.6Zm.5-5.484,32.156,18.565-4.75,2.742-27.406-15.823Zm0,6.062L801.394,233.2l-4.431,2.558-22.475-12.977Zm27.156,15.968V264.7l-4.431-2.557V236.192ZM774.488,223.36l21.975,12.688-4.5,2.6-17.471-10.086Zm22.225,13.121v25.374l-4.505-2.6V239.083Zm-22.225-7.341,16.97,9.8-4.624,2.669-12.346-7.127Zm17.22,10.231v19.6l-4.625-2.67V242.042Zm-17.22-4.313,11.845,6.838-4.367,2.521-7.478-4.317Zm12.1,7.272v13.677l-4.367-2.522v-8.633Zm-12.1-1.652,6.978,4.028-6.978,4.029Zm7.228,4.463V253.2l-6.977-4.027Zm-7.228,4.461,6.977,4.028-6.977,4.028Zm0,8.634,7.478-4.317,4.367,2.521-11.845,6.838Zm0,5.62,12.346-7.126,4.624,2.669-16.97,9.8Zm0,5.918,17.471-10.086,4.5,2.6-21.975,12.687Zm0,5.78,22.475-12.976,4.431,2.558-26.906,15.533Zm0,11.178v-5.485l27.406-15.822,4.75,2.742Zm32.406-19-4.75-2.742V233.346l4.75-2.742Z" fill="#1d1d1b"/>
      <path id="Path_1360" data-name="Path 1360" d="M924.546,233.588a8.558,8.558,0,0,1-2.111-.382v5.956l2.111-2.113Z" fill="#037cff"/>
      <path id="Path_1361" data-name="Path 1361" d="M925.546,233.588v3.461l2.113,2.114v-5.958A8.529,8.529,0,0,1,925.546,233.588Z" fill="#037cff"/>
      <path id="Path_1362" data-name="Path 1362" d="M870.665,233.588a8.536,8.536,0,0,1-2.114-.383v5.958l2.114-2.114Z" fill="#ba1e35"/>
      <path id="Path_1363" data-name="Path 1363" d="M871.665,233.588v3.461l2.111,2.113v-5.957A8.513,8.513,0,0,1,871.665,233.588Z" fill="#ba1e35"/>
      <path id="Path_1364" data-name="Path 1364" d="M897.924,233.588v3.461l2.112,2.113v-5.957A8.513,8.513,0,0,1,897.924,233.588Z" fill="#ba1e35"/>
      <path id="Path_1365" data-name="Path 1365" d="M896.924,233.588a8.52,8.52,0,0,1-2.112-.383v5.958l2.112-2.114Z" fill="#ba1e35"/>
      <path id="Path_1366" data-name="Path 1366" d="M918.421,221.283h3.919l1.212-3.731A7.627,7.627,0,0,0,918.421,221.283Z" fill="#828282"/>
      <path id="Path_1367" data-name="Path 1367" d="M920.667,226.431l-3.171-2.3a7.475,7.475,0,0,0,1.963,6.023Z" fill="#828282"/>
      <path id="Path_1368" data-name="Path 1368" d="M921.878,231.913a7.516,7.516,0,0,0,6.335,0l-3.167-2.3Z" fill="#828282"/>
      <path id="Path_1369" data-name="Path 1369" d="M926.541,217.552l1.212,3.731h3.917A7.622,7.622,0,0,0,926.541,217.552Z" fill="#828282"/>
      <path id="Path_1370" data-name="Path 1370" d="M930.633,230.149a7.563,7.563,0,0,0,2.018-5.142,7.738,7.738,0,0,0-.055-.88l-3.171,2.3Z" fill="#828282"/>
      <path id="Path_1371" data-name="Path 1371" d="M933.432,222.283H927.39a.5.5,0,0,1-.475-.345l-.378-1.164a.585.585,0,0,0-.2.464h0a.529.529,0,0,0-.572-.574.513.513,0,0,0,.571-.514l-1.288-3.96-1.867,5.748a.5.5,0,0,1-.475.345h-6.043l4.888,3.552a.5.5,0,0,1,.182.559l-1.868,5.748,4.889-3.552a.5.5,0,0,1,.588,0l4.889,3.552-1.867-5.748a.5.5,0,0,1,.182-.559Zm-8.153.058h0a.956.956,0,0,1,0-1.911h0a.956.956,0,0,1,0,1.911Z" fill="#a3a3a3"/>
      <path id="Path_1372" data-name="Path 1372" d="M926.338,220.166a.6.6,0,0,0,.087.265Z" fill="#a3a3a3"/>
      <path id="Path_1373" data-name="Path 1373" d="M934.971,221.283h-2.179a8.616,8.616,0,0,0-6.6-4.795l-.673-2.07a.521.521,0,0,0-.952,0l-.672,2.07a8.614,8.614,0,0,0-6.6,4.795h-2.178a.5.5,0,0,0-.294.9l1.758,1.278a8.69,8.69,0,0,0-.146,1.541,8.579,8.579,0,0,0,2.67,6.216l-.674,2.073a.5.5,0,0,0,.182.559.5.5,0,0,0,.588,0l1.755-1.276c.154.084.314.155.474.229v7.562a.5.5,0,0,0,.853.354l2.758-2.761,2.759,2.761a.5.5,0,0,0,.354.146.512.512,0,0,0,.191-.038.5.5,0,0,0,.309-.462v-7.562c.158-.075.319-.145.472-.229l1.755,1.276a.5.5,0,0,0,.77-.559l-.674-2.073a8.507,8.507,0,0,0,2.523-7.757l1.76-1.278a.5.5,0,0,0-.294-.9Zm-2.32,3.724a7.563,7.563,0,0,1-2.018,5.142l-1.208-3.718,3.171-2.3A7.738,7.738,0,0,1,932.651,225.007Zm-4.107.828a.5.5,0,0,0-.182.559l1.867,5.748-4.889-3.552a.5.5,0,0,0-.588,0l-4.889,3.552,1.868-5.748a.5.5,0,0,0-.182-.559l-4.888-3.552H922.7a.5.5,0,0,0,.475-.345l1.867-5.748,1.288,3.96c0-.033,0-.057,0-.057h0s0,.03,0,.073l.087.265a.519.519,0,0,0,.484.233.59.59,0,0,0-.372.11l.378,1.164a.5.5,0,0,0,.475.345h6.042Zm-6.109,7.371a8.558,8.558,0,0,0,2.111.382v3.461l-2.111,2.113Zm3.111,3.843v-3.461a8.529,8.529,0,0,0,2.113-.383v5.958Zm-.5-4.436a7.55,7.55,0,0,1-3.168-.7l3.168-2.3,3.167,2.3A7.542,7.542,0,0,1,925.046,232.613Zm-7.55-8.487,3.171,2.3-1.208,3.718a7.475,7.475,0,0,1-1.963-6.023Zm4.844-2.843h-3.919a7.627,7.627,0,0,1,5.131-3.731Zm5.413,0-1.212-3.731a7.622,7.622,0,0,1,5.129,3.731Z" fill="#1d1d1b"/>
      <path id="Path_1374" data-name="Path 1374" d="M925.279,220.43h0a.956.956,0,0,0,0,1.911h0a.956.956,0,0,0,0-1.911Z" fill="#fff"/>
      <path id="Path_1375" data-name="Path 1375" d="M925.763,220.664a.529.529,0,0,1,.572.574h0a.529.529,0,0,1,.573-.574.519.519,0,0,1-.484-.233.6.6,0,0,1-.087-.265c0-.043,0-.073,0-.073h0s0,.024,0,.057A.513.513,0,0,1,925.763,220.664Z" fill="#fff"/>
      <path id="Path_1376" data-name="Path 1376" d="M893.045,226.431l-3.171-2.3a7.494,7.494,0,0,0,1.962,6.022Z" fill="#e83858"/>
      <path id="Path_1377" data-name="Path 1377" d="M898.918,217.552l1.212,3.731h3.918A7.618,7.618,0,0,0,898.918,217.552Z" fill="#e83858"/>
      <path id="Path_1378" data-name="Path 1378" d="M894.256,231.913a7.519,7.519,0,0,0,6.336,0l-3.168-2.3Z" fill="#e83858"/>
      <path id="Path_1379" data-name="Path 1379" d="M903.011,230.149a7.563,7.563,0,0,0,2.018-5.142,7.738,7.738,0,0,0-.055-.88l-3.171,2.3Z" fill="#e83858"/>
      <path id="Path_1380" data-name="Path 1380" d="M890.8,221.283h3.917l1.213-3.731A7.626,7.626,0,0,0,890.8,221.283Z" fill="#e83858"/>
      <path id="Path_1381" data-name="Path 1381" d="M905.811,222.283h-6.044a.5.5,0,0,1-.475-.345l-.341-1.048a.649.649,0,0,0-.094.348h0a.529.529,0,0,0-.572-.574.514.514,0,0,0,.507-.269l-1.367-4.205-1.868,5.748a.5.5,0,0,1-.475.345h-6.043l4.888,3.552a.5.5,0,0,1,.182.559l-1.867,5.748,4.889-3.552a.5.5,0,0,1,.588,0l4.889,3.552-1.867-5.748a.5.5,0,0,1,.181-.559Zm-8.013.016v0c0,.023,0,.039,0,.039h0s0-.016,0-.039v0a.914.914,0,1,1,0-1.827v0c0-.023,0-.038,0-.038h0s0,.015,0,.038v0a.914.914,0,1,1,0,1.827Z" fill="#fcbd11"/>
      <path id="Path_1382" data-name="Path 1382" d="M907.35,221.283h-2.18a8.616,8.616,0,0,0-6.6-4.795l-.673-2.07a.5.5,0,0,0-.951,0l-.673,2.07a8.617,8.617,0,0,0-6.6,4.795H887.5a.5.5,0,0,0-.294.9l1.76,1.278a8.506,8.506,0,0,0,2.523,7.757l-.673,2.073a.5.5,0,0,0,.769.559l1.755-1.276c.154.084.314.154.473.229v7.562a.5.5,0,0,0,.308.462.514.514,0,0,0,.192.038.5.5,0,0,0,.353-.146l2.759-2.761,2.759,2.761a.5.5,0,0,0,.853-.354v-7.562c.159-.075.32-.145.473-.229l1.755,1.276a.5.5,0,0,0,.77-.559l-.674-2.073a8.5,8.5,0,0,0,2.523-7.756l1.761-1.279a.5.5,0,0,0-.294-.9Zm-2.321,3.724a7.563,7.563,0,0,1-2.018,5.142l-1.208-3.718,3.171-2.3A7.738,7.738,0,0,1,905.029,225.007Zm-4.108.828a.5.5,0,0,0-.181.559l1.867,5.748-4.889-3.552a.5.5,0,0,0-.588,0l-4.889,3.552,1.867-5.748a.5.5,0,0,0-.182-.559l-4.888-3.552h6.043a.5.5,0,0,0,.475-.345l1.868-5.748,1.367,4.205a.65.65,0,0,0,.065-.3h0a.427.427,0,1,1,.094.8l.341,1.048a.5.5,0,0,0,.475.345h6.044Zm-6.109,7.37a8.52,8.52,0,0,0,2.112.383v3.461l-2.112,2.114Zm3.112,3.844v-3.461a8.513,8.513,0,0,0,2.112-.383v5.957Zm-.5-4.436a7.55,7.55,0,0,1-3.168-.7l3.168-2.3,3.168,2.3A7.55,7.55,0,0,1,897.424,232.613Zm-7.55-8.486,3.171,2.3-1.209,3.718a7.494,7.494,0,0,1-1.962-6.022Zm4.843-2.844H890.8a7.626,7.626,0,0,1,5.13-3.731Zm5.413,0-1.212-3.731a7.618,7.618,0,0,1,5.13,3.731Z" fill="#1d1d1b"/>
      <path id="Path_1383" data-name="Path 1383" d="M897.8,222.3v0Z" fill="#fff"/>
      <path id="Path_1384" data-name="Path 1384" d="M897.8,220.472a.914.914,0,1,0,0,1.827.914.914,0,1,0,0-1.827Z" fill="#fff"/>
      <path id="Path_1385" data-name="Path 1385" d="M897.8,222.341s0-.016,0-.039c0,.023,0,.039,0,.039Z" fill="#fff"/>
      <path id="Path_1386" data-name="Path 1386" d="M897.8,220.43s0,.015,0,.038c0-.023,0-.038,0-.038Z" fill="#fff"/>
      <path id="Path_1387" data-name="Path 1387" d="M897.8,220.468v0Z" fill="#fff"/>
      <path id="Path_1388" data-name="Path 1388" d="M898.284,220.664a.529.529,0,0,1,.572.574h0a.649.649,0,0,1,.094-.348.427.427,0,1,0-.094-.8h0a.65.65,0,0,1-.065.3A.514.514,0,0,1,898.284,220.664Z" fill="#fff"/>
      <path id="Path_1389" data-name="Path 1389" d="M871.165,232.613a7.606,7.606,0,1,0-7.607-7.606A7.614,7.614,0,0,0,871.165,232.613Zm-3.632-13.892h7.26l3.63,6.286-3.63,6.286h-7.26l-3.628-6.286Z" fill="#fcbd11"/>
      <path id="Path_1390" data-name="Path 1390" d="M867.551,232.808v7.562a.5.5,0,0,0,.309.462.512.512,0,0,0,.191.038.5.5,0,0,0,.354-.146l2.76-2.761,2.757,2.761a.5.5,0,0,0,.854-.354v-7.562a8.606,8.606,0,1,0-7.225,0Zm3.614-15.406a7.606,7.606,0,1,1-7.607,7.605A7.613,7.613,0,0,1,871.165,217.4Zm-2.614,15.8a8.536,8.536,0,0,0,2.114.383v3.461l-2.114,2.114Zm3.114,3.844v-3.461a8.513,8.513,0,0,0,2.111-.383v5.957Z" fill="#1d1d1b"/>
      <path id="Path_1391" data-name="Path 1391" d="M871.165,227.62a2.605,2.605,0,0,0,2.189-4.027.573.573,0,0,0-.176.413v.027h0v-.027a.414.414,0,1,1-.1-.763,2.6,2.6,0,0,0-4.527,1.762v0A2.616,2.616,0,0,0,871.165,227.62Zm.953-4.395h0a.956.956,0,0,1,0,1.912h0a.956.956,0,0,1,0-1.912Z" fill="#00f9ff"/>
      <path id="Path_1392" data-name="Path 1392" d="M874.725,225.507a3.6,3.6,0,0,1-1.348,2.335l1.127,1.951,2.476-4.286Z" fill="#00f9ff"/>
      <path id="Path_1393" data-name="Path 1393" d="M867.6,224.507a3.585,3.585,0,0,1,1.349-2.332l-1.128-1.954-2.474,4.286Z" fill="#00f9ff"/>
      <path id="Path_1394" data-name="Path 1394" d="M869.81,221.664a3.558,3.558,0,0,1,2.707,0l1.121-1.942h-4.95Z" fill="#00f9ff"/>
      <path id="Path_1395" data-name="Path 1395" d="M868.95,227.841a3.592,3.592,0,0,1-1.349-2.334h-2.253l2.474,4.286Z" fill="#00f9ff"/>
      <path id="Path_1396" data-name="Path 1396" d="M873.377,222.174a3.589,3.589,0,0,1,1.348,2.333h2.255l-2.476-4.286Z" fill="#00f9ff"/>
      <path id="Path_1397" data-name="Path 1397" d="M873.638,230.293l-1.121-1.94a3.558,3.558,0,0,1-2.707,0l-1.122,1.941Z" fill="#00f9ff"/>
      <path id="Path_1398" data-name="Path 1398" d="M867.533,231.293h7.26l3.63-6.286-3.63-6.286h-7.26l-3.628,6.286Zm1.018-6.288a2.6,2.6,0,0,1,4.527-1.762.611.611,0,0,0,.1-.328v-.027h0v.027a.52.52,0,0,0,.574.544.566.566,0,0,0-.4.134,2.61,2.61,0,1,1-4.8,1.416v0Zm2.614,3.615a3.6,3.6,0,0,0,1.352-.267l1.121,1.94h-4.95l1.122-1.941A3.613,3.613,0,0,0,871.165,228.62Zm2.212-.778a3.6,3.6,0,0,0,1.348-2.335h2.255l-2.476,4.286Zm1.348-3.335a3.589,3.589,0,0,0-1.348-2.333l1.127-1.953,2.476,4.286Zm-2.208-2.844a3.558,3.558,0,0,0-2.707,0l-1.122-1.943h4.95Zm-3.567.512a3.585,3.585,0,0,0-1.349,2.332h-2.253l2.474-4.286Zm-1.349,3.332a3.592,3.592,0,0,0,1.349,2.334l-1.128,1.952-2.474-4.286Z" fill="#1d1d1b"/>
      <path id="Path_1399" data-name="Path 1399" d="M872.118,225.137h0a.956.956,0,0,0,0-1.912h0a.956.956,0,0,0,0,1.912Z" fill="#fff"/>
      <path id="Path_1400" data-name="Path 1400" d="M873.178,224.015v0Z" fill="#fff"/>
      <path id="Path_1401" data-name="Path 1401" d="M873.179,224.033v0Z" fill="#fff"/>
      <path id="Path_1402" data-name="Path 1402" d="M872.6,223.459a.522.522,0,0,1,.573.547.573.573,0,0,1,.176-.413.566.566,0,0,1,.4-.134.52.52,0,0,1-.574-.544.611.611,0,0,1-.1.328A.525.525,0,0,1,872.6,223.459Z" fill="#fff"/>
      <path id="Path_1403" data-name="Path 1403" d="M873.178,222.906v0Z" fill="#fff"/>
      <path id="Path_1404" data-name="Path 1404" d="M873.178,222.888v0Z" fill="#fff"/>
      <path id="Path_1405" data-name="Path 1405" d="M894.872,273.086a8.554,8.554,0,0,1-2.116-.384v5.967l2.116-2.114Z" fill="#ba1e35"/>
      <path id="Path_1406" data-name="Path 1406" d="M895.872,273.086v3.469l2.116,2.114V272.7A8.553,8.553,0,0,1,895.872,273.086Z" fill="#ba1e35"/>
      <path id="Path_1407" data-name="Path 1407" d="M870.673,273.086a8.553,8.553,0,0,1-2.116-.384v5.967l2.116-2.114Z" fill="#037cff"/>
      <path id="Path_1408" data-name="Path 1408" d="M871.673,273.086v3.469l2.115,2.114V272.7A8.536,8.536,0,0,1,871.673,273.086Z" fill="#037cff"/>
      <path id="Path_1409" data-name="Path 1409" d="M871.173,256.881a7.615,7.615,0,1,0,7.615,7.615A7.624,7.624,0,0,0,871.173,256.881Zm0,13.467a5.852,5.852,0,1,1,5.851-5.852A5.858,5.858,0,0,1,871.173,270.348Z" fill="#9b2d2d"/>
      <path id="Path_1410" data-name="Path 1410" d="M871.173,255.881a8.609,8.609,0,0,0-3.616,16.424v7.571a.5.5,0,0,0,.309.462.512.512,0,0,0,.191.038.5.5,0,0,0,.354-.146l2.762-2.761,2.762,2.761a.5.5,0,0,0,.853-.354v-7.57a8.609,8.609,0,0,0-3.615-16.425ZM868.557,272.7a8.553,8.553,0,0,0,2.116.384v3.469l-2.116,2.114Zm3.116,3.853v-3.469a8.536,8.536,0,0,0,2.115-.383v5.966Zm-.5-4.444a7.615,7.615,0,1,1,7.615-7.615A7.624,7.624,0,0,1,871.173,272.111Z" fill="#1d1d1b"/>
      <path id="Path_1411" data-name="Path 1411" d="M872.215,260.275a.847.847,0,0,0,.873.507.882.882,0,0,0-.956.957h0a.882.882,0,0,0-.956-.957.841.841,0,0,0,.89-.553,4.865,4.865,0,0,0-3.168.01,4.857,4.857,0,0,0-1.689,1.481,5.1,5.1,0,0,0-.408,1.97,5.181,5.181,0,0,0,5.18,5.18,5.126,5.126,0,0,0,1.972-.407,4.864,4.864,0,0,0,1.479-1.687,5.126,5.126,0,0,0-3.214-6.5Z" fill="#aa4831"/>
      <path id="Path_1412" data-name="Path 1412" d="M866.8,263.69a5.1,5.1,0,0,1,.408-1.97,4.808,4.808,0,0,0-.885,2.776,4.858,4.858,0,0,0,4.852,4.852,4.809,4.809,0,0,0,2.777-.885,5.126,5.126,0,0,1-1.972.407A5.181,5.181,0,0,1,866.8,263.69Z" fill="#823829"/>
      <path id="Path_1413" data-name="Path 1413" d="M873.191,260.634h0a.529.529,0,0,0-.573-.574.62.62,0,0,0,.313-.075,4.682,4.682,0,0,0-4.034.254,4.865,4.865,0,0,1,3.168-.01,1.182,1.182,0,0,0,.066-.4h0a1.1,1.1,0,0,0,.083.45,5.126,5.126,0,0,1,3.214,6.5,4.77,4.77,0,0,0-2.063-6.584A.6.6,0,0,0,873.191,260.634Z" fill="#d35e46"/>
      <path id="Path_1414" data-name="Path 1414" d="M871.173,258.645a5.852,5.852,0,1,0,5.851,5.851A5.858,5.858,0,0,0,871.173,258.645Zm2.018.842a.528.528,0,0,0,.573.573.572.572,0,0,0-.4.132,4.872,4.872,0,1,1-4.471.047,4.682,4.682,0,0,1,4.034-.254.555.555,0,0,0,.26-.5Z" fill="#1d1d1b"/>
      <path id="Path_1415" data-name="Path 1415" d="M871.173,260.782a.882.882,0,0,1,.956.957h0a.882.882,0,0,1,.956-.957.847.847,0,0,1-.873-.507,1.1,1.1,0,0,1-.083-.45h0a1.182,1.182,0,0,1-.066.4A.841.841,0,0,1,871.173,260.782Z" fill="#fff"/>
      <path id="Path_1416" data-name="Path 1416" d="M872.929,259.985a.62.62,0,0,1-.313.075.529.529,0,0,1,.573.574h0a.6.6,0,0,1,.175-.442.572.572,0,0,1,.4-.132.528.528,0,0,1-.573-.573h0A.555.555,0,0,1,872.929,259.985Z" fill="#fff"/>
      <path id="Path_1417" data-name="Path 1417" d="M895.372,256.881a7.615,7.615,0,1,0,7.615,7.615A7.623,7.623,0,0,0,895.372,256.881Zm5.007,12.623c-.006.007-.014.009-.021.015a7.066,7.066,0,0,1-9.969,0c-.008-.007-.017-.009-.024-.016s-.009-.017-.016-.024a7.068,7.068,0,0,1,.005-9.974.154.154,0,0,1,.011-.017c.005-.005.012-.006.016-.01a7.066,7.066,0,0,1,9.985,0l.013.009s.006.01.01.014a7.066,7.066,0,0,1,0,9.98C900.388,269.489,900.386,269.5,900.379,269.5Z" fill="#ae6915"/>
      <path id="Path_1418" data-name="Path 1418" d="M895.372,255.881a8.609,8.609,0,0,0-3.616,16.424v7.571a.5.5,0,0,0,.854.354l2.762-2.761,2.762,2.761a.5.5,0,0,0,.354.146.512.512,0,0,0,.191-.038.5.5,0,0,0,.309-.462V272.3a8.609,8.609,0,0,0-3.616-16.424ZM892.756,272.7a8.554,8.554,0,0,0,2.116.384v3.469l-2.116,2.114Zm3.116,3.853v-3.469a8.553,8.553,0,0,0,2.116-.384v5.967Zm-.5-4.444a7.615,7.615,0,1,1,7.615-7.615A7.623,7.623,0,0,1,895.372,272.111Z" fill="#1d1d1b"/>
      <path id="Path_1419" data-name="Path 1419" d="M894.165,264l-3.428-3.428a6.053,6.053,0,0,0-1.42,3.428Zm-1.99-1.227a.51.51,0,1,1-.511.51A.51.51,0,0,1,892.175,262.769Zm-1.773-.511a.511.511,0,1,1-.509.511A.51.51,0,0,1,890.4,262.258Z" fill="#fce181"/>
      <path id="Path_1420" data-name="Path 1420" d="M894.872,263.29v-4.851a6.059,6.059,0,0,0-3.428,1.422Zm-.473-2.134a.51.51,0,1,1-.511-.51A.511.511,0,0,1,894.4,261.156Zm-.668-2.284a.511.511,0,1,1-.511.511A.51.51,0,0,1,893.731,258.872Z" fill="#fce181"/>
      <path id="Path_1421" data-name="Path 1421" d="M896.58,264h4.848a6.047,6.047,0,0,0-1.421-3.428Zm1.651-.022a.511.511,0,1,1,.51-.512A.512.512,0,0,1,898.231,263.974Zm2.306-1.435a.511.511,0,1,1-.511-.51A.512.512,0,0,1,900.537,262.539Z" fill="#fce181"/>
      <path id="Path_1422" data-name="Path 1422" d="M895.872,258.439v4.851l3.428-3.429A6.053,6.053,0,0,0,895.872,258.439Zm.624,3.228a.511.511,0,1,1,.509-.511A.512.512,0,0,1,896.5,261.667Zm1.592-1.262a.511.511,0,1,1,.511-.51A.51.51,0,0,1,898.088,260.4Z" fill="#fce181"/>
      <path id="Path_1423" data-name="Path 1423" d="M896.579,265l3.428,3.428A6.041,6.041,0,0,0,901.428,265Zm2.284,1.223a.51.51,0,1,1,.51-.511A.51.51,0,0,1,898.863,266.219Zm1.021,1.278a.51.51,0,1,1,.511-.511A.512.512,0,0,1,899.884,267.5Z" fill="#fce181"/>
      <path id="Path_1424" data-name="Path 1424" d="M895.872,265.7v4.848a6.051,6.051,0,0,0,3.428-1.421Zm.317,1.741a.51.51,0,1,1,.51.51A.508.508,0,0,1,896.189,267.445Zm1.021,2.112a.512.512,0,1,1,.51-.511A.511.511,0,0,1,897.21,269.557Z" fill="#fce181"/>
      <path id="Path_1425" data-name="Path 1425" d="M894.166,265h-4.849a6.045,6.045,0,0,0,1.421,3.428Zm-1.9.2a.51.51,0,1,1-.511.509A.51.51,0,0,1,892.265,265.2Zm-2.216,1.277a.51.51,0,1,1,.51.51A.509.509,0,0,1,890.049,266.476Z" fill="#fce181"/>
      <path id="Path_1426" data-name="Path 1426" d="M894.872,265.7l-3.427,3.427a6.048,6.048,0,0,0,3.427,1.421Zm-1.652,3.853a.512.512,0,1,1,.511-.511A.512.512,0,0,1,893.22,269.557Zm.833-1.3a.511.511,0,1,1,.512-.511A.512.512,0,0,1,894.053,268.257Z" fill="#fce181"/>
      <path id="Path_1427" data-name="Path 1427" d="M900.389,259.5s-.006-.01-.01-.014l-.013-.009a7.066,7.066,0,0,0-9.985,0s-.011.005-.016.01a.154.154,0,0,0-.011.017,7.068,7.068,0,0,0-.005,9.974c.007.007.009.017.016.024s.016.009.024.016a7.066,7.066,0,0,0,9.969,0c.007-.006.015-.008.021-.015s.009-.015.014-.021a7.066,7.066,0,0,0,0-9.98Zm-4.517-1.064a6.053,6.053,0,0,1,3.428,1.422l-3.428,3.429Zm-1,4.851-3.428-3.429a6.059,6.059,0,0,1,3.428-1.422Zm-.707.706h-4.848a6.053,6.053,0,0,1,1.42-3.428Zm0,1-3.428,3.428A6.045,6.045,0,0,1,889.317,265Zm.706.708v4.848a6.048,6.048,0,0,1-3.427-1.421Zm1,0,3.428,3.427a6.051,6.051,0,0,1-3.428,1.421Zm.707-.708h4.849a6.041,6.041,0,0,1-1.421,3.428Zm0-1,3.427-3.428A6.047,6.047,0,0,1,901.428,264Z" fill="#1d1d1b"/>
      <path id="Path_1428" data-name="Path 1428" d="M893.378,261.156a.51.51,0,1,0,.51-.51A.51.51,0,0,0,893.378,261.156Z" fill="#b21011"/>
      <path id="Path_1429" data-name="Path 1429" d="M892.175,263.79a.51.51,0,1,0-.511-.511A.511.511,0,0,0,892.175,263.79Z" fill="#b21011"/>
      <path id="Path_1430" data-name="Path 1430" d="M890.4,263.279a.511.511,0,1,0-.509-.51A.511.511,0,0,0,890.4,263.279Z" fill="#b21011"/>
      <path id="Path_1431" data-name="Path 1431" d="M891.07,266.476a.51.51,0,1,0-.511.51A.51.51,0,0,0,891.07,266.476Z" fill="#b21011"/>
      <path id="Path_1432" data-name="Path 1432" d="M892.265,266.219a.51.51,0,1,0-.511-.511A.511.511,0,0,0,892.265,266.219Z" fill="#b21011"/>
      <path id="Path_1433" data-name="Path 1433" d="M893.22,268.534a.512.512,0,1,0,.511.512A.511.511,0,0,0,893.22,268.534Z" fill="#b21011"/>
      <path id="Path_1434" data-name="Path 1434" d="M897.21,267.445a.51.51,0,1,0-.511.51A.509.509,0,0,0,897.21,267.445Z" fill="#b21011"/>
      <path id="Path_1435" data-name="Path 1435" d="M898.863,265.2a.51.51,0,1,0,.51.509A.509.509,0,0,0,898.863,265.2Z" fill="#b21011"/>
      <path id="Path_1436" data-name="Path 1436" d="M899.884,266.476a.51.51,0,1,0,.511.51A.51.51,0,0,0,899.884,266.476Z" fill="#b21011"/>
      <path id="Path_1437" data-name="Path 1437" d="M897.21,268.534a.512.512,0,1,0,.51.512A.511.511,0,0,0,897.21,268.534Z" fill="#b21011"/>
      <path id="Path_1438" data-name="Path 1438" d="M894.053,267.235a.511.511,0,1,0,.512.511A.512.512,0,0,0,894.053,267.235Z" fill="#b21011"/>
      <path id="Path_1439" data-name="Path 1439" d="M898.231,262.952a.511.511,0,1,0,.51.51A.512.512,0,0,0,898.231,262.952Z" fill="#b21011"/>
      <path id="Path_1440" data-name="Path 1440" d="M896.5,260.646a.511.511,0,1,0,.509.51A.511.511,0,0,0,896.5,260.646Z" fill="#b21011"/>
      <path id="Path_1441" data-name="Path 1441" d="M899.515,262.539a.511.511,0,1,0,.511-.51A.512.512,0,0,0,899.515,262.539Z" fill="#b21011"/>
      <path id="Path_1442" data-name="Path 1442" d="M898.088,259.383a.511.511,0,1,0,.511.512A.51.51,0,0,0,898.088,259.383Z" fill="#b21011"/>
      <path id="Path_1443" data-name="Path 1443" d="M893.731,259.895a.511.511,0,1,0-.511-.512A.512.512,0,0,0,893.731,259.895Z" fill="#b21011"/>
      <g id="Group_401" data-name="Group 401">
        <path id="Path_1444" data-name="Path 1444" d="M774.488,263.278v-5.042l5.863-3.384.01-.021a2.084,2.084,0,0,1-.24-.425l-5.633,3.252V249.6l5.64,3.256a2.007,2.007,0,0,1,.253-.432l-5.642-3.257,5.8-3.349a2.033,2.033,0,0,1-.31-.4l-5.741,3.314v-8.057l5.551,3.2a1.958,1.958,0,0,1,.2-.46l-5.754-3.322v-5.042l2.691,1.553-.374-.794-2.317-1.337V230.9l-.164-.347a2.055,2.055,0,0,1-.336-.062v3.984l-12.345,7.127-4.625-2.669,15.623-9.021-1.467.27-14.656,8.461-4.505-2.6,5.958-3.44-1.468.27-4.99,2.881-2.585-1.492-.206.038a1.939,1.939,0,0,1-.169.323l2.71,1.564v19.44l.5,3.219v-22.37l4.505,2.6v20.173l-3.275,1.891a1.912,1.912,0,0,1,.2.464l3.328-1.922L767.9,266.26l2.164.672L757.018,259.4l4.625-2.669,12.345,7.126v3.18l.5-.957v-2.223l1.661-.959.433-.828ZM761.393,256.3l-4.625,2.67v-19.6l4.625,2.67Zm.5-13.966,4.367,2.522v8.633l-4.367,2.522Zm12.095,20.948-11.845-6.838,4.367-2.521,7.478,4.317Zm0-5.62-6.977-4.028,6.977-4.027ZM766.76,253.2V245.14l6.978,4.029Zm7.228-4.462-6.978-4.029,6.978-4.028Zm0-8.635-7.478,4.317-4.367-2.521,11.845-6.838Z" fill="none"/>
        <path id="Path_1445" data-name="Path 1445" d="M748.553,234.628a2,2,0,0,1-.466.567l3.176,20.437v-19.44Z" fill="#d90088"/>
        <path id="Path_1446" data-name="Path 1446" d="M750.008,260.583l-3.175-20.437V264.7l2.7-1.556a1.985,1.985,0,0,1-.278-1A2.005,2.005,0,0,1,750.008,260.583Z" fill="#fff"/>
        <path id="Path_1447" data-name="Path 1447" d="M773.988,248.735v-8.058l-6.977,4.028Z" fill="#d90088"/>
        <path id="Path_1448" data-name="Path 1448" d="M774.488,248.735l5.741-3.314a1.968,1.968,0,0,1-.275-1,1.93,1.93,0,0,1,.085-.535l-5.551-3.2Z" fill="#d90088"/>
        <path id="Path_1449" data-name="Path 1449" d="M766.76,245.14V253.2l6.977-4.028Z" fill="#d90088"/>
        <path id="Path_1450" data-name="Path 1450" d="M766.26,244.852l-4.367-2.521v13.677l4.367-2.521Z" fill="#d90088"/>
        <path id="Path_1451" data-name="Path 1451" d="M782.207,255.618l-2.4,4.587,6.522-3.765-2.773-1.6A2.006,2.006,0,0,1,782.207,255.618Z" fill="#fff"/>
        <path id="Path_1452" data-name="Path 1452" d="M774.488,263.278l2.094-1.209,3.769-7.218-5.863,3.385Z" fill="#d90088"/>
        <path id="Path_1453" data-name="Path 1453" d="M762.143,256.44l11.845,6.838v-5.042l-7.477-4.317Z" fill="#d90088"/>
        <path id="Path_1454" data-name="Path 1454" d="M766.51,244.417l7.478-4.317v-5.042L762.143,241.9Z" fill="#d90088"/>
        <path id="Path_1455" data-name="Path 1455" d="M780.381,252.426a2.036,2.036,0,0,1,.585-.532v-5.741a2.089,2.089,0,0,1-.427-.333l-5.8,3.349Z" fill="#d90088"/>
        <path id="Path_1456" data-name="Path 1456" d="M774.488,257.658l5.633-3.252a1.842,1.842,0,0,1,.007-1.548l-5.64-3.256Z" fill="#d90088"/>
        <path id="Path_1457" data-name="Path 1457" d="M783.7,243.415l2.631-1.519-6.116-3.53,1.913,4.055A2.015,2.015,0,0,1,783.7,243.415Z" fill="#fff"/>
        <path id="Path_1458" data-name="Path 1458" d="M774.488,240.1l5.754,3.322c.029-.05.044-.108.077-.155l-3.14-6.656-2.691-1.553Z" fill="#d90088"/>
        <path id="Path_1459" data-name="Path 1459" d="M773.988,257.658V249.6l-6.977,4.027Z" fill="#d90088"/>
        <path id="Path_1460" data-name="Path 1460" d="M786.833,241.607l4.625-2.67-15.077-8.7,3.461,7.338Z" fill="#fff"/>
        <path id="Path_1461" data-name="Path 1461" d="M776.8,235.817l-2.317-4.912v3.574Z" fill="#d90088"/>
        <path id="Path_1462" data-name="Path 1462" d="M761.643,241.607l12.345-7.127V230.5a2,2,0,0,1-1.027-.638l-.32.059-15.623,9.021Z" fill="#d90088"/>
        <path id="Path_1463" data-name="Path 1463" d="M756.518,238.648l14.656-8.462-13.2,2.422-5.958,3.439Z" fill="#d90088"/>
        <path id="Path_1464" data-name="Path 1464" d="M773.988,226.629V223.36l-10.856,6.268,9.466-1.736A2.009,2.009,0,0,1,773.988,226.629Z" fill="#fff"/>
        <path id="Path_1465" data-name="Path 1465" d="M761.643,256.73l-4.625,2.669,13.047,7.533,2.559.794a1.991,1.991,0,0,1,1.282-.534l.082-.156v-3.18Z" fill="#d90088"/>
        <path id="Path_1466" data-name="Path 1466" d="M756.768,258.966l4.625-2.67V242.041l-4.625-2.67Z" fill="#d90088"/>
        <path id="Path_1467" data-name="Path 1467" d="M756.268,239.082l-4.505-2.6v22.37l.22,1.42a2.016,2.016,0,0,1,1.01.875l3.275-1.891Z" fill="#d90088"/>
        <path id="Path_1468" data-name="Path 1468" d="M774.488,266.079l1.661-3.182-1.661.959Z" fill="#d90088"/>
        <path id="Path_1469" data-name="Path 1469" d="M786.834,256.73l-7.455,4.3-3.7,7.084a2.063,2.063,0,0,1,.143.309l15.635-9.026Z" fill="#fff"/>
        <path id="Path_1470" data-name="Path 1470" d="M773.988,222.782v-5.115L748.68,232.279l12.985-2.382Z" fill="#fff"/>
        <path id="Path_1471" data-name="Path 1471" d="M756.5,232.878l-7.575,1.389,2.584,1.492Z" fill="#d90088"/>
        <path id="Path_1472" data-name="Path 1472" d="M753.19,261.61c.009.034.026.062.034.1L767.9,266.26l-11.383-6.572Z" fill="#d90088"/>
        <path id="Path_1473" data-name="Path 1473" d="M772.026,269.635l-15.76-4.891,17.722,10.232v-3.767A2.016,2.016,0,0,1,772.026,269.635Z" fill="#fff"/>
        <path id="Path_1474" data-name="Path 1474" d="M753.19,261.61a1.912,1.912,0,0,0-.2-.464l-1.23.709v-3l-.5-3.219v6.513l-1.735,1a1.991,1.991,0,0,0,3.1.469l3.639,1.129-4.253-2.455Z" fill="#1d1d1b"/>
        <path id="Path_1475" data-name="Path 1475" d="M780.242,243.422a1.958,1.958,0,0,0-.2.46l1.427.824-1.237.715a2.033,2.033,0,0,0,.31.4l1.177-.679V253.2l-1.335-.77a2.007,2.007,0,0,0-.253.432l1.337.772-1.344.776a2.084,2.084,0,0,0,.24.425l-.01.021,1.615-.933,1.594.92a1.972,1.972,0,0,0,.419-1.209,2.006,2.006,0,0,0-1.013-1.736v-5.741a2.006,2.006,0,0,0,1.013-1.736,1.972,1.972,0,0,0-.277-1l-1.736,1Z" fill="#1d1d1b"/>
        <path id="Path_1476" data-name="Path 1476" d="M774.488,266.079l-.5.957v2.16l-3.923-2.264-2.164-.672,6.087,3.514v1.435A2.015,2.015,0,0,0,776,269.2a1.94,1.94,0,0,0-.178-.771l-1.335.771Z" fill="#1d1d1b"/>
        <path id="Path_1477" data-name="Path 1477" d="M748.553,234.628a1.939,1.939,0,0,0,.169-.323l.206-.038-1.845-1.066,1.6-.922-.321.059a2.006,2.006,0,1,0-2.247,3.17l.721,4.638v-6.511Z" fill="#1d1d1b"/>
        <path id="Path_1478" data-name="Path 1478" d="M776.149,262.9l3.23-1.865.432-.827-3.229,1.864Z" fill="#1d1d1b"/>
        <path id="Path_1479" data-name="Path 1479" d="M757.971,232.608l5.162-2.98-1.467.27-5.162,2.98Z" fill="#1d1d1b"/>
        <path id="Path_1480" data-name="Path 1480" d="M771.174,230.187l1.467-.27,1.347-.777V230.5a2.055,2.055,0,0,0,.336.062l.164.347V229.14l1.893,1.093-.246-.522a1.994,1.994,0,0,0,.366-1.149,2.015,2.015,0,0,0-2.013-2.013,1.965,1.965,0,0,0-.5.08v1.933Z" fill="#1d1d1b"/>
        <path id="Path_1481" data-name="Path 1481" d="M777.179,236.611l3.038,1.755-.375-.795-3.038-1.754Z" fill="#1d1d1b"/>
        <path id="Path_1482" data-name="Path 1482" d="M751.263,255.632,748.087,235.2a2,2,0,0,0,.466-.567l-1.72-.993v6.511l3.175,20.437a2.005,2.005,0,0,0-.758,1.562,1.985,1.985,0,0,0,.278,1l1.735-1Z" fill="#1d1d1b"/>
        <path id="Path_1483" data-name="Path 1483" d="M780.229,245.421l1.237-.715-1.427-.824a1.93,1.93,0,0,0-.085.535A1.968,1.968,0,0,0,780.229,245.421Z" fill="#1d1d1b"/>
        <path id="Path_1484" data-name="Path 1484" d="M780.351,254.852l-3.769,7.217,3.229-1.864,2.4-4.587a2.006,2.006,0,0,0,1.353-.779l-1.594-.92Z" fill="#1d1d1b"/>
        <path id="Path_1485" data-name="Path 1485" d="M780.966,246.153v5.741a2.036,2.036,0,0,0-.585.532l1.335.77v-8.055l-1.177.679A2.089,2.089,0,0,0,780.966,246.153Z" fill="#1d1d1b"/>
        <path id="Path_1486" data-name="Path 1486" d="M780.121,254.406l1.344-.776-1.337-.772a1.842,1.842,0,0,0-.007,1.548Z" fill="#1d1d1b"/>
        <path id="Path_1487" data-name="Path 1487" d="M780.319,243.267c-.033.047-.048.1-.077.155l1.724,1,1.736-1a2.015,2.015,0,0,0-1.572-.994l-1.913-4.055-3.038-1.755Z" fill="#1d1d1b"/>
        <path id="Path_1488" data-name="Path 1488" d="M774.488,230.905l2.317,4.912,3.038,1.754-3.461-7.338-1.894-1.094Z" fill="#1d1d1b"/>
        <path id="Path_1489" data-name="Path 1489" d="M773.988,230.5V229.14l-1.347.777.32-.059A2,2,0,0,0,773.988,230.5Z" fill="#1d1d1b"/>
        <path id="Path_1490" data-name="Path 1490" d="M771.174,230.187l2.814-1.625v-1.933a2.009,2.009,0,0,0-1.39,1.263l-9.466,1.736-5.161,2.98Z" fill="#1d1d1b"/>
        <path id="Path_1491" data-name="Path 1491" d="M772.624,267.726l-2.559-.794,3.923,2.264v-2.16l-.082.156A1.991,1.991,0,0,0,772.624,267.726Z" fill="#1d1d1b"/>
        <path id="Path_1492" data-name="Path 1492" d="M751.983,260.271l-.22-1.42v3l1.23-.709A2.016,2.016,0,0,0,751.983,260.271Z" fill="#1d1d1b"/>
        <path id="Path_1493" data-name="Path 1493" d="M779.379,261.032l-3.23,1.865-1.661,3.182V269.2l1.335-.771a2.063,2.063,0,0,0-.143-.309Z" fill="#1d1d1b"/>
        <path id="Path_1494" data-name="Path 1494" d="M748.928,234.267l7.575-1.389,5.162-2.98-12.985,2.382-1.6.922Z" fill="#1d1d1b"/>
        <path id="Path_1495" data-name="Path 1495" d="M767.9,266.26l-14.677-4.554c-.008-.034-.025-.062-.034-.1l-1.177.679,4.253,2.455,15.76,4.891a2.016,2.016,0,0,0,1.962,1.574v-1.435Z" fill="#1d1d1b"/>
      </g>
    </g>
  </g>
</svg>
